<?xml version="1.0" encoding="utf-8"?>
<!-- Generator: Adobe Illustrator 16.0.0, SVG Export Plug-In . SVG Version: 6.00 Build 0)  -->
<!DOCTYPE svg PUBLIC "-//W3C//DTD SVG 1.1//EN" "http://www.w3.org/Graphics/SVG/1.1/DTD/svg11.dtd">
<svg version="1.1" id="Layer_1" xmlns="http://www.w3.org/2000/svg" xmlns:xlink="http://www.w3.org/1999/xlink" x="0px" y="0px"
	 width="321.7px" height="319.46px" viewBox="0 0 321.7 319.46" enable-background="new 0 0 321.7 319.46" xml:space="preserve">
<g>
	<path fill="none" d="M214.684,187.899c-3.928,2.855-5.022,7.119-5.145,11.535c-0.258,9.362-0.182,18.734-0.209,28.103
		c-0.04,13.366-0.072,26.732-0.06,40.099c0.005,4.489,1.609,6.038,6.104,6.097c2.248,0.03,4.497,0.011,6.745,0.006
		c5.627-0.015,7.019-1.412,7.015-7.106c-0.014-18.487-0.05-36.976-0.052-55.464c0-4.972,1.763-6.682,6.772-6.7
		c3.997-0.014,7.996,0.069,11.991-0.024c4.126-0.097,6.023-1.944,6.067-5.938c0.038-3.492-0.136-6.985-0.216-10.479
		c-0.595-3.121-2.936-3.727-5.567-3.74c-7.341-0.041-14.69-0.2-22.023,0.062C222.079,184.493,217.875,184.75,214.684,187.899z
		 M176.972,169.377c-0.176-3.405-2.236-4.722-5.367-4.766c-2.979-0.043-5.961-0.032-8.941-0.003
		c-3.123,0.03-5.229,1.311-5.546,4.686c-0.026,8.245-0.066,16.49-0.075,24.735c-0.022,20.49-0.104,40.979-0.018,61.469
		c0.055,13.026,5.314,18.176,18.239,18.234c6.747,0.03,13.498-0.148,20.237,0.066c3.672,0.117,5.583-1.438,6.212-4.858
		c0.659-3.583,0.624-7.225,0.04-10.773c-0.447-2.722-2.369-4.307-5.318-4.301c-4.497,0.01-8.996,0.055-13.493-0.018
		c-3.857-0.063-5.786-1.922-5.804-5.745c-0.065-13.619,0.017-27.237-0.115-40.854c-0.023-2.49,0.968-2.853,3.089-2.825
		c5.117,0.069,10.239-0.072,15.358-0.139c4.473-0.059,6.427-1.922,6.523-6.288c0.053-2.373,0.052-4.748,0-7.121
		c-0.1-4.502-2.156-6.574-6.746-6.604c-4.994-0.033-9.993,0.003-14.983,0.197c-2.368,0.092-3.349-0.558-3.242-3.104
		C177.188,177.377,177.006,173.375,176.972,169.377z M144.4,188.622c-1.308-2.765-4.102-3.311-6.528-3.542
		c-13.613-1.3-27.263-1.455-40.878-0.06c-2.766,0.284-5.62,1.165-7.406,3.756c-3.87,3.849-4.45,8.851-4.495,13.86
		c-0.153,17.232-0.121,34.467-0.166,51.7c-0.007,2.63,0.228,5.223,0.744,7.811c1.172,5.878,4.569,9.495,10.437,10.885
		c2.465,0.584,4.938,0.692,7.432,0.697c9.616,0.021,19.235-0.137,28.848,0.045c12.933,0.243,12.682-0.341,12.481-13.012
		c-0.079-4.969-1.92-6.792-6.795-6.805c-8.867-0.021-17.734,0.026-26.601-0.02c-4.781-0.024-6.283-1.553-6.35-6.228
		c-0.025-1.748,0.172-3.52-0.049-5.24c-0.38-2.95,0.928-3.519,3.611-3.467c8.237,0.156,16.495,0.363,24.716-0.034
		c10.335-0.499,15.01-4.742,15.757-13.488c0.846-9.924,1.172-19.95-0.431-29.864C148.283,192.86,147.411,189.976,144.4,188.622z
		 M261.837,187.821c-1.201,3.402-0.433,6.916-0.513,10.372c-0.101,4.312,1.761,6.031,6.193,6.085
		c7.493,0.089,14.987,0.159,22.482,0.179c10.916,0.029,11.05,0.243,11.087,11.093c0.01,2.939-0.821,3.865-3.808,3.816
		c-8.742-0.144-17.496-0.172-26.232,0.136c-8.219,0.289-13.495,4.899-14.262,12.137c-1.003,9.459-1.035,18.955-0.11,28.419
		c0.843,8.604,5.458,13.213,14.131,13.46c11.731,0.333,23.487,0.355,35.218,0.02c9.294-0.267,13.707-4.888,14.606-14.202
		c0.865-8.974,0.393-17.962,0.246-26.949c-0.179-10.866-0.101-21.737-0.325-32.603c-0.096-4.58-1.181-8.93-5.227-11.87
		c-1.835-2.168-4.435-2.691-7.008-2.964c-13.896-1.468-27.839-0.378-41.76-0.619C264.329,184.291,262.494,185.418,261.837,187.821z
		 M174.178,35.658c-3.354-0.147-6.715-0.502-10.061-0.396c-5.459,0.174-7.02,1.938-7.026,7.386
		c-0.012,10.863,0.062,21.728-0.026,32.591c-0.081,9.955-4.951,14.653-14.817,14.638c-16.732-0.025-33.465-0.02-50.198,0
		c-5.059,0.006-6.966,1.935-6.971,6.997c-0.014,13.986-0.021,27.971,0.008,41.957c0.01,4.374,1.991,6.287,6.443,6.29
		c19.729,0.015,39.459,0.016,59.189,0c5.012-0.004,6.915-1.958,6.922-7.075c0.018-10.614-0.009-21.228,0.004-31.842
		c0.014-11.358,4.479-15.803,15.915-15.814c16.482-0.017,32.966,0.013,49.449-0.013c4.607-0.007,6.562-2.008,6.645-6.606
		c0.062-3.492,0.112-6.984,0.168-10.477c3.493-0.032,6.986-0.066,10.479-0.097c4.955-0.045,6.578-1.755,6.679-6.792
		c0.066-3.344-1.385-7.629,0.57-9.774c2.005-2.2,6.359-0.475,9.674-0.734c0.496-0.04,1,0.021,1.497-0.015
		c3.748-0.272,5.643-2.174,5.653-5.977c0.042-14.478,0.043-28.955,0.004-43.432c-0.011-4.014-1.858-5.979-5.81-5.991
		c-20.344-0.054-40.687-0.05-61.03-0.004c-3.944,0.009-5.836,2.031-5.941,6.082c-0.073,2.869-0.12,5.746,0.021,8.609
		c0.103,2.073-0.538,2.926-2.718,2.806c-2.861-0.157-5.742-0.119-8.608-0.017c-3.985,0.142-5.867,2.101-5.959,6.102
		C174.244,27.925,174.227,31.792,174.178,35.658z M33.116,220.228c-0.03,0-0.061,0-0.09,0c0,16.62,0.072,33.242-0.069,49.861
		c-0.024,2.865,0.798,3.617,3.57,3.465c10.886-0.598,16.17-5.734,16.241-16.864c0.146-22.866,0.072-45.735-0.064-68.603
		c-0.018-2.951,0.758-3.833,3.733-3.745c7.242,0.214,14.494,0.087,21.743,0.064c5.643-0.018,6.898-1.266,6.91-6.755
		c0.004-1.999,0.009-3.999-0.006-5.998c-0.042-5.582-1.321-6.887-6.782-6.89c-12.372-0.006-24.744-0.003-37.116-0.002
		c-7.306,0-8.062,0.757-8.066,8.228C33.109,188.736,33.116,204.483,33.116,220.228z M13.047,184.25c2.37,0,4.741,0.062,7.108-0.015
		c3.611-0.116,5.317-1.721,5.461-5.208c0.118-2.863,0.143-5.736,0.064-8.602c-0.106-3.854-1.72-5.512-5.466-5.572
		c-4.737-0.077-9.478-0.036-14.216-0.012c-3.156,0.016-4.88,1.593-4.927,4.797c-0.047,3.242-0.066,6.485-0.022,9.727
		c0.042,3.173,1.736,4.81,4.891,4.871C8.308,184.284,10.678,184.246,13.047,184.25z M163.771,309.044
		c-1.62-4.935-2.869-8.791-4.157-12.635c-0.485-1.451-0.443-3.442-2.906-3.062c-2.354,0.361-2.543,2.22-2.555,3.957
		c-0.03,4.619,0.099,9.239,0.188,13.859c0.019,0.967-0.142,2.109,1.395,2.125c1.909,0.019,1.355-1.435,1.367-2.412
		c0.053-4.189,0.022-8.38,0.022-12.57c1.745,3.619,2.941,7.362,4.238,11.07c0.412,1.178,0.093,3.022,1.991,3.14
		c2.176,0.135,2.461-1.745,2.972-3.252c1.259-3.717,2.479-7.448,3.714-11.174c0.565,4.335,0.546,8.548,0.58,12.762
		c0.008,1.046-0.344,2.476,1.462,2.406c1.774-0.068,1.33-1.508,1.339-2.527c0.04-4.873,0.042-9.747-0.002-14.62
		c-0.009-0.919,0.492-2.164-0.763-2.633c-1.233-0.461-2.606-0.281-3.449,0.752c-0.765,0.936-1.293,2.126-1.691,3.285
		C166.321,300.98,165.24,304.484,163.771,309.044z M195.352,303.122c0,1.869-0.156,3.756,0.048,5.603
		c0.171,1.541-1.055,4.264,1.176,4.368c3.063,0.144,1.034-2.84,1.59-4.341c0.346-0.935-0.581-2.478,1.077-2.741
		c1.171-0.187,2.59-0.586,3.562,0.375c0.672,0.661,0.846,1.799,1.438,2.574c1.165,1.524,1.086,5.3,3.713,4.066
		c2.23-1.047-0.864-3.092-1.188-4.812c-0.251-1.333-1.411-2.288,0.364-3.796c2.724-2.313,2.423-5.603,0.914-8.554
		c-1.177-2.302-8.149-3.852-11.427-2.464c-2.658,1.125-0.815,3.729-1.214,5.62C195.128,300.333,195.352,301.75,195.352,303.122z
		 M81.188,304.622c0.117,0.705,0.267,2.458,0.714,4.132c0.958,3.581,3.662,4.86,7.09,4.874c3.414,0.015,6.189-1.188,7.204-4.751
		c1.047-3.677,1.002-7.434-0.058-11.096c-0.805-2.778-2.846-4.303-5.718-4.696C84.346,292.251,81.145,295.888,81.188,304.622z
		 M30.65,303.064c-0.259-7.426-2.788-10.372-8.588-10.006c-4.347,0.272-6.598,2.932-6.921,8.175
		c-0.478,7.74,1.198,11.298,5.737,12.184C27.524,314.712,30.93,311.104,30.65,303.064z M274.668,313.007
		c-0.468-1.106-0.802-2.044-1.25-2.923c-1.169-2.291-2.208-4.004,0.193-6.766c3.388-3.896,0.349-9.522-4.879-9.979
		c-1.733-0.151-3.496,0.041-5.232-0.088c-2.064-0.153-2.505,0.836-2.463,2.682c0.102,4.363-0.088,8.734,0.102,13.092
		c0.062,1.429-1.311,4.128,1.372,4.087c2.344-0.036,1.16-2.635,1.097-3.96c-0.128-2.66,0.773-3.506,3.383-3.289
		c2.433,0.203,2.214,2.353,3.176,3.639C271.273,310.981,270.991,314.068,274.668,313.007z M178.324,303.177c0.004,0,0.008,0,0.011,0
		c0,2.749,0.006,5.498-0.002,8.248c-0.004,1.134,0.272,1.969,1.665,1.872c1.362-0.095,1.219-1.158,1.09-1.931
		c-0.595-3.542,0.684-4.681,4.362-4.603c4.567,0.097,6.465-2.54,6.259-7.396c-0.209-4.918-2.537-6.139-10.259-6.152
		c-5.175-0.01-2.583,3.687-3.071,5.849C178.083,300.374,178.324,301.802,178.324,303.177z M48.594,301.698
		c0,1.744-0.044,3.49,0.008,5.233c0.14,4.648,1.815,6.355,6.286,6.477c5.475,0.148,7.401-1.32,7.666-6.264
		c0.2-3.729,0.111-7.474,0.054-11.211c-0.015-0.963,0.633-2.517-1.213-2.562c-2.011-0.048-1.517,1.597-1.537,2.732
		c-0.061,3.487-0.008,6.978-0.053,10.466c-0.04,3.123-1.715,4.441-4.78,4.306c-2.948-0.132-3.753-1.795-3.665-4.463
		c0.116-3.486,0.073-6.979-0.001-10.466c-0.021-0.965,0.634-2.515-1.201-2.575c-2.012-0.064-1.511,1.579-1.55,2.72
		C48.543,297.958,48.591,299.829,48.594,301.698z M299.462,312.133c-1.559-5.89-3.096-11.784-4.694-17.663
		c-0.331-1.219-1.386-1.207-2.447-1.112c-2.574,0.232-3.556,2.024-4.139,4.178c-1.171,4.32-2.355,8.639-3.404,12.988
		c-0.207,0.858-1.452,2.228,0.435,2.734c1.693,0.456,2.203-0.835,2.349-2.133c0.232-2.086,1.388-2.56,3.314-2.535
		c2.77,0.035,5.571-0.377,5.954,3.599c0.102,1.048,1.086,1.253,2.039,1.06C299.475,313.125,299.585,312.678,299.462,312.133z
		 M212.416,303.471c0,0.748-0.021,1.496,0.004,2.242c0.229,6.791,4.167,9.646,10.761,7.852c0.877-0.238,1.763-0.321,1.706-1.525
		c-0.061-1.322-1.007-1.168-1.886-1.108c-0.62,0.042-1.24,0.107-1.86,0.14c-3.664,0.194-5.65-1.235-5.644-4.255
		c0.009-3.958,3.096-1.51,4.708-2.124c1.015-0.387,2.881,0.627,2.868-1.344c-0.014-1.953-1.821-1.08-2.902-1.286
		c-0.36-0.069-0.774,0.081-1.113-0.027c-1.268-0.404-3.633,1.167-3.531-1.729c0.081-2.333,1.142-4.101,3.79-4.213
		c1.365-0.058,2.737,0.044,4.105,0.093c0.651,0.023,1.276,0.018,1.429-0.797c0.121-0.652-0.034-1.2-0.646-1.59
		c-3.484-2.212-9.919,0.176-11.203,4.131C212.41,299.748,212.389,301.601,212.416,303.471z M147.033,296.088
		c0.146,0,0.526,0.048,0.892-0.01c0.856-0.135,2.182,0.753,2.396-0.861c0.226-1.71-1.159-1.533-2.249-1.702
		c-7.093-1.101-9.687,0.858-10.343,8.021c-0.157,1.721-0.058,3.494,0.156,5.214c0.771,6.183,5.495,8.873,11.38,6.652
		c0.914-0.345,1.128-0.812,1.053-1.63c-0.076-0.823-0.664-0.941-1.32-0.923c-1.495,0.044-3,0.247-4.48,0.127
		c-2.802-0.229-3.826-2.228-3.785-4.676c0.047-2.83,2.408-1.195,3.702-1.627c1.38-0.46,4.01,1.033,4.01-1.216
		c0.001-2.579-2.732-0.936-4.189-1.404c-1.172-0.377-3.054,0.875-3.482-1.009c-0.45-1.981,0.647-3.699,2.364-4.719
		C144.208,295.69,145.553,295.808,147.033,296.088z M99.957,303.646c0.144,7.911,2.305,10.599,8.593,10.179
		c1.485-0.099,4.225,0.532,4.044-1.752c-0.184-2.311-2.635-0.62-4.053-0.871c-0.239-0.042-0.497,0.041-0.745,0.032
		c-2.849-0.107-4.896-2.122-4.617-4.747c0.314-2.954,2.701-1.067,4.063-1.602c1.204-0.472,3.591,1.101,3.516-1.343
		c-0.069-2.254-2.387-0.865-3.652-1.267c-0.113-0.035-0.257,0.026-0.371-0.009c-1.231-0.382-3.378,0.966-3.505-1.467
		c-0.12-2.286,0.908-4.232,3.417-4.642c1.452-0.237,2.985-0.021,4.478,0.061c0.856,0.047,1.488-0.137,1.635-1.069
		c0.081-0.508-0.061-0.918-0.548-1.257c-3.423-2.377-10.469,0.141-11.477,4.215C100.288,299.908,100.205,301.797,99.957,303.646z
		 M250.098,308.724c2.585-0.597,4.345,0.129,4.738,3.035c0.154,1.132,0.835,1.854,2.064,1.474c1.297-0.4,0.658-1.422,0.465-2.162
		c-1.349-5.169-2.892-10.291-4.071-15.497c-0.575-2.533-1.967-2.498-3.83-1.99c-1.797,0.489-2.522,1.964-2.96,3.552
		c-1.287,4.67-2.513,9.356-3.717,14.048c-0.186,0.72-0.936,1.756,0.508,2.063c1.078,0.23,2.081-0.033,2.224-1.326
		C245.831,309.087,247.353,308.054,250.098,308.724z M8.271,295.652c0.604,0.08,1.102,0.219,1.591,0.193
		c0.867-0.044,2.159,0.703,2.271-0.992c0.082-1.232-0.919-1.282-1.771-1.467c-1.975-0.427-3.977-0.503-5.958-0.199
		c-2.128,0.326-3.72,1.44-4.222,3.675c-0.479,2.132-0.081,4.008,1.933,5.199c1.708,1.012,3.473,1.93,5.218,2.878
		c1.511,0.82,2.847,1.894,2.364,3.783c-0.474,1.853-2.079,2.329-3.845,2.245c-1.246-0.059-2.492-0.126-3.735-0.226
		c-0.923-0.075-1.811-0.144-1.853,1.153c-0.033,0.996,0.667,1.254,1.455,1.312c1.861,0.14,3.73,0.372,5.587,0.312
		c2.603-0.085,4.517-1.251,5.172-3.992c0.667-2.789-0.2-4.939-2.671-6.353c-1.51-0.864-3.114-1.565-4.681-2.328
		c-1.33-0.646-2.456-1.653-2.167-3.149c0.341-1.767,1.949-2.063,3.546-2.047C7.13,295.658,7.755,295.652,8.271,295.652z
		 M312.726,310.958c-0.724,0.579-3.063-1.465-3.301,0.735c-0.273,2.539,2.361,1.253,3.689,1.709
		c0.461,0.158,0.985,0.158,1.482,0.177c3.06,0.115,5.822-0.384,6.811-3.854c1.001-3.509-0.646-5.742-3.703-7.21
		c-1.347-0.646-2.709-1.261-4.038-1.939c-1.213-0.62-1.996-1.661-1.686-3.012c0.321-1.399,1.593-1.891,2.907-1.906
		c1.49-0.017,2.981,0.17,4.474,0.245c0.721,0.036,1.528,0.207,1.745-0.844c0.255-1.24-0.554-1.523-1.49-1.61
		c-1.733-0.16-3.475-0.395-5.208-0.359c-2.411,0.05-4.44,0.976-5.175,3.494c-0.767,2.622,0.255,4.667,2.54,6.021
		c1.711,1.015,3.554,1.802,5.277,2.797c1.277,0.737,2.104,1.908,1.623,3.43c-0.46,1.453-1.681,2.097-3.195,2.124
		C314.732,310.969,313.985,310.958,312.726,310.958z M232,310.866c-0.499-0.032-1-0.113-1.495-0.086
		c-0.871,0.049-2.158-0.723-2.29,0.968c-0.117,1.492,1.083,1.454,2.047,1.551c1.488,0.149,2.987,0.326,4.478,0.294
		c2.735-0.059,4.931-1.151,5.596-4.01c0.661-2.836-0.187-5.2-2.923-6.604c-1.662-0.853-3.402-1.559-5.034-2.465
		c-1.145-0.634-1.945-1.663-1.58-3.082c0.33-1.287,1.523-1.666,2.631-1.733c1.483-0.091,2.985,0.086,4.476,0.187
		c0.87,0.06,1.857,0.333,2.097-0.889c0.304-1.547-0.98-1.521-1.903-1.626c-1.606-0.184-3.233-0.337-4.845-0.283
		c-2.406,0.079-4.379,0.989-5.149,3.522c-0.821,2.695,0.299,4.656,2.539,6.011c1.701,1.029,3.561,1.795,5.293,2.776
		c1.167,0.66,1.823,1.79,1.622,3.126c-0.207,1.369-1.192,2.188-2.574,2.33C233.999,310.954,232.995,310.873,232,310.866z
		 M120.365,310.9c-0.987-0.059-1.488-0.137-1.984-0.108c-0.888,0.05-2.218-0.74-2.424,0.823c-0.219,1.66,1.189,1.622,2.295,1.697
		c1.614,0.109,3.239,0.278,4.847,0.191c2.65-0.143,4.392-1.475,5.031-4.186c0.638-2.703-0.354-4.652-2.587-6.041
		c-1.158-0.72-2.427-1.264-3.657-1.864c-1.688-0.823-3.837-1.581-3.21-3.912c0.628-2.336,2.938-1.843,4.775-1.821
		c0.87,0.011,1.738,0.17,2.609,0.236c0.729,0.054,1.539,0.218,1.744-0.832c0.228-1.173-0.468-1.453-1.452-1.656
		c-1.982-0.409-3.978-0.521-5.966-0.294c-2.286,0.26-4.033,1.401-4.627,3.748c-0.632,2.495,0.301,4.429,2.503,5.696
		c1.835,1.056,3.761,1.955,5.583,3.031c1.155,0.681,1.818,1.782,1.442,3.169c-0.369,1.361-1.45,1.989-2.792,2.107
		C121.628,310.962,120.75,310.9,120.365,310.9z M74.584,313.915c1.206-1.233,4.144,0.433,3.778-2.104
		c-0.343-2.381-2.701-0.81-4.074-0.857c-2.055-0.071-3.984-0.433-4.654-2.382c-1.24-3.607-1.459-7.468,0.267-10.938
		c1.392-2.8,4.312-1.826,6.746-1.643c0.953,0.071,1.748,0.093,1.883-1.146c0.111-1.024-0.521-1.237-1.324-1.391
		c-5.41-1.033-10.744-0.852-11.076,7.449c-0.085,2.116-0.054,4.249,0.12,6.358c0.156,1.887,0.592,4.029,2.342,4.874
		c2.368,1.145,3.867,3.044,5.6,4.504c-0.504,1.496-2.511,0.19-2.577,1.906c-0.009,0.238,0.392,0.683,0.638,0.709
		c1.345,0.149,2.874,0.584,3.908-0.564C78.212,316.411,76.456,315.038,74.584,313.915z M34.598,303.241c0,1.37,0,2.741,0,4.112
		c0,5.968,0.005,6.101,6.129,5.871c1.493-0.056,4.455,1.561,4.406-1.326c-0.036-2.129-2.894-1.155-4.346-1.024
		c-3.134,0.284-3.768-1.01-3.611-3.812c0.217-3.852,0.059-7.724,0.044-11.587c-0.004-0.993,0.079-2.109-1.447-2.01
		c-1.282,0.083-1.151,1.083-1.158,1.924C34.591,298.006,34.605,300.624,34.598,303.241z M302.408,302.849
		c0,2.853,0.012,5.705-0.006,8.558c-0.007,1.083,0.094,1.912,1.544,1.927c1.363,0.014,1.676-0.604,1.669-1.804
		c-0.03-5.581-0.02-11.163-0.008-16.745c0.003-1.079-0.089-1.893-1.54-1.932c-1.736-0.048-1.672,1.016-1.666,2.182
		C302.414,297.639,302.405,300.245,302.408,302.849z M281.082,303.476c0-2.749-0.002-5.498,0.001-8.247
		c0.001-0.952-0.164-1.763-1.374-1.786c-1.283-0.024-1.302,0.849-1.301,1.772c0.006,5.373-0.007,10.747,0.012,16.12
		c0.003,0.82-0.215,1.834,1.113,1.939c1.468,0.114,1.563-0.851,1.561-1.926C281.087,308.724,281.092,306.101,281.082,303.476z
		 M87.43,286.785c-1.714,0.087-3.436,0.41-3.256,2.309c0.225,2.372,1.596,0.29,2.395,0.247c1.209-0.065,2.151,0.547,3.143,0.951
		c1.613,0.658,2.918,0.339,4.006-0.87c0.671-0.745,0.395-2.218-0.366-1.933C91.091,288.338,89.273,287.228,87.43,286.785z"/>
	<path fill-rule="evenodd" clip-rule="evenodd" fill="#FFFFFF" d="M33.116,220.228c0-15.745-0.007-31.492,0.003-47.238
		c0.004-7.471,0.76-8.228,8.066-8.228c12.372-0.001,24.744-0.004,37.116,0.002c5.461,0.003,6.741,1.308,6.782,6.89
		c0.015,1.999,0.01,3.999,0.006,5.998c-0.012,5.489-1.267,6.737-6.91,6.755c-7.249,0.022-14.5,0.149-21.743-0.064
		c-2.975-0.088-3.751,0.794-3.733,3.745c0.137,22.867,0.21,45.736,0.064,68.603c-0.071,11.13-5.355,16.267-16.241,16.864
		c-2.772,0.152-3.595-0.6-3.57-3.465c0.142-16.619,0.069-33.241,0.069-49.861C33.056,220.228,33.086,220.228,33.116,220.228z"/>
	<path opacity="0.8" fill-rule="evenodd" clip-rule="evenodd" fill="#FFFFFF" d="M13.047,184.249
		c-2.37-0.003-4.739,0.035-7.108-0.012c-3.155-0.062-4.848-1.698-4.891-4.871c-0.043-3.241-0.025-6.484,0.022-9.727
		c0.047-3.204,1.771-4.781,4.927-4.797c4.739-0.024,9.479-0.065,14.216,0.012c3.746,0.061,5.36,1.719,5.466,5.572
		c0.079,2.865,0.054,5.738-0.064,8.602c-0.144,3.487-1.85,5.092-5.461,5.208C17.788,184.312,15.417,184.25,13.047,184.249z"/>
	<g>
		<g>
			<path fill-rule="evenodd" clip-rule="evenodd" fill="#FFFFFF" d="M148.729,195.617c-0.446-2.757-1.318-5.641-4.329-6.995
				c-1.308-2.765-4.102-3.311-6.528-3.542c-13.613-1.3-27.263-1.455-40.878-0.06c-2.766,0.284-5.62,1.165-7.406,3.756
				c-3.87,3.849-4.45,8.851-4.495,13.86c-0.153,17.232-0.121,34.467-0.166,51.7c-0.007,2.63,0.228,5.223,0.744,7.811
				c1.172,5.878,4.569,9.495,10.437,10.885c2.465,0.584,4.938,0.692,7.432,0.697c9.616,0.021,19.235-0.137,28.848,0.045
				c12.933,0.243,12.682-0.341,12.481-13.012c-0.079-4.969-1.92-6.792-6.795-6.805c-8.867-0.021-17.734,0.026-26.601-0.02
				c-4.781-0.024-6.283-1.553-6.35-6.228c-0.025-1.748,0.172-3.52-0.049-5.24c-0.38-2.95,0.928-3.519,3.611-3.467
				c8.237,0.156,16.495,0.363,24.716-0.034c10.335-0.499,15.01-4.742,15.757-13.488
				C150.006,215.557,150.332,205.531,148.729,195.617z M124.03,219.275c-2.738,0.109-5.485,0.021-8.228,0.021
				c-2.868-0.002-5.736-0.052-8.602,0.017c-1.576,0.037-2.339-0.574-2.259-2.168c0.013-0.249,0.004-0.5-0.007-0.748
				c-0.494-11.465-0.234-11.736,11.222-11.736c2.618,0,5.238-0.062,7.854,0.015c4.209,0.124,5.811,2.057,5.837,6.887
				C129.877,217.012,128.351,219.102,124.03,219.275z"/>
		</g>
	</g>
	<path fill-rule="evenodd" clip-rule="evenodd" fill="#FFFFFF" d="M163.771,309.044c1.47-4.561,2.551-8.064,3.745-11.529
		c0.398-1.159,0.927-2.35,1.691-3.285c0.843-1.033,2.216-1.213,3.449-0.752c1.255,0.469,0.754,1.714,0.763,2.633
		c0.044,4.873,0.042,9.747,0.002,14.62c-0.009,1.02,0.436,2.459-1.339,2.527c-1.806,0.069-1.454-1.36-1.462-2.406
		c-0.034-4.214-0.015-8.427-0.58-12.762c-1.235,3.726-2.455,7.457-3.714,11.174c-0.511,1.507-0.796,3.387-2.972,3.252
		c-1.898-0.117-1.579-1.962-1.991-3.14c-1.297-3.708-2.493-7.451-4.238-11.07c0,4.19,0.03,8.381-0.022,12.57
		c-0.012,0.978,0.542,2.431-1.367,2.412c-1.536-0.016-1.376-1.158-1.395-2.125c-0.09-4.62-0.219-9.24-0.188-13.859
		c0.012-1.737,0.201-3.596,2.555-3.957c2.463-0.38,2.421,1.611,2.906,3.062C160.901,300.253,162.15,304.11,163.771,309.044z"/>
	<path fill-rule="evenodd" clip-rule="evenodd" fill="#FFFFFF" d="M320.876,232.385c-0.179-10.866-0.101-21.737-0.325-32.603
		c-0.096-4.58-1.181-8.93-5.227-11.87c-1.835-2.168-4.435-2.691-7.008-2.964c-13.896-1.468-27.839-0.378-41.76-0.619
		c-2.228-0.039-4.062,1.089-4.72,3.491c-1.201,3.402-0.433,6.916-0.513,10.372c-0.101,4.312,1.761,6.031,6.193,6.085
		c7.493,0.089,14.987,0.159,22.482,0.179c10.916,0.029,11.05,0.243,11.087,11.093c0.01,2.939-0.821,3.865-3.808,3.816
		c-8.742-0.144-17.496-0.172-26.232,0.136c-8.219,0.289-13.495,4.899-14.262,12.137c-1.003,9.459-1.035,18.955-0.11,28.419
		c0.843,8.604,5.458,13.213,14.131,13.46c11.731,0.333,23.487,0.355,35.218,0.02c9.294-0.267,13.707-4.888,14.606-14.202
		C321.495,250.361,321.022,241.373,320.876,232.385z M300.354,250.986c-0.72,2.11-2.557,2.901-4.759,2.891
		c-4.608-0.021-9.218,0.063-13.823-0.03c-3.345-0.068-5.272-2.045-5.493-5.324c-0.521-7.771,1.072-9.46,8.931-9.461
		c1.744,0,3.487,0,5.231,0c0.996,0,2.009-0.114,2.985,0.022c2.479,0.348,6.367-1.368,7.164,0.917
		C301.744,243.311,301.583,247.378,300.354,250.986z"/>
	<path fill-rule="evenodd" clip-rule="evenodd" fill="#FFFFFF" d="M253.697,188.027c-0.595-3.121-2.936-3.727-5.567-3.74
		c-7.341-0.041-14.69-0.2-22.023,0.062c-4.027,0.145-8.231,0.402-11.423,3.551c-3.928,2.855-5.022,7.119-5.145,11.535
		c-0.258,9.362-0.182,18.734-0.209,28.103c-0.04,13.366-0.072,26.732-0.06,40.099c0.005,4.489,1.609,6.038,6.104,6.097
		c2.248,0.03,4.497,0.011,6.745,0.006c5.627-0.015,7.019-1.412,7.015-7.106c-0.014-18.487-0.05-36.976-0.052-55.464
		c0-4.972,1.763-6.682,6.772-6.7c3.997-0.014,7.996,0.069,11.991-0.024c4.126-0.097,6.023-1.944,6.067-5.938
		C253.951,195.013,253.777,191.52,253.697,188.027z"/>
	<path fill-rule="evenodd" clip-rule="evenodd" fill="#FFFFFF" d="M195.352,303.122c0-1.371-0.224-2.789,0.053-4.102
		c0.398-1.892-1.444-4.495,1.214-5.62c3.277-1.388,10.25,0.162,11.427,2.464c1.509,2.951,1.81,6.24-0.914,8.554
		c-1.775,1.508-0.615,2.463-0.364,3.796c0.324,1.721,3.419,3.766,1.188,4.812c-2.627,1.233-2.548-2.542-3.713-4.066
		c-0.592-0.775-0.766-1.913-1.438-2.574c-0.973-0.961-2.392-0.562-3.562-0.375c-1.658,0.264-0.731,1.807-1.077,2.741
		c-0.556,1.501,1.474,4.484-1.59,4.341c-2.23-0.104-1.005-2.827-1.176-4.368C195.195,306.877,195.352,304.991,195.352,303.122z
		 M201.011,303.314c3.052,0.415,4.958-0.719,4.979-3.902c0.022-3.328-2.442-3.321-4.907-3.575c-3.132-0.323-3.034,1.53-2.901,3.63
		C198.304,301.404,197.357,304.098,201.011,303.314z"/>
	<path fill-rule="evenodd" clip-rule="evenodd" fill="#FFFFFF" d="M81.188,304.622c-0.043-8.733,3.158-12.37,9.232-11.537
		c2.872,0.394,4.914,1.918,5.718,4.696c1.06,3.662,1.104,7.419,0.058,11.096c-1.015,3.563-3.79,4.766-7.204,4.751
		c-3.428-0.014-6.132-1.293-7.09-4.874C81.455,307.08,81.305,305.327,81.188,304.622z M93.932,302.392
		c-0.049-0.39-0.052-1.921-0.464-3.333c-0.661-2.265-2.272-3.577-4.726-3.459c-2.972,0.143-4.484,2.674-4.541,7.417
		c-0.066,5.59,0.979,7.528,4.242,7.866C92.336,311.287,93.922,309.151,93.932,302.392z"/>
	<path fill-rule="evenodd" clip-rule="evenodd" fill="#FFFFFF" d="M30.65,303.064c0.28,8.04-3.126,11.648-9.772,10.353
		c-4.539-0.886-6.214-4.443-5.737-12.184c0.324-5.243,2.574-7.902,6.921-8.175C27.862,292.692,30.391,295.638,30.65,303.064z
		 M27.859,302.729c-0.062-0.447-0.149-1.939-0.496-3.369c-0.55-2.271-1.992-3.713-4.432-3.776c-3.523-0.093-5.39,3.357-5.046,9.2
		c0.263,4.472,2.158,6.526,5.64,6.117C26.454,310.557,27.801,308.334,27.859,302.729z"/>
	<path fill-rule="evenodd" clip-rule="evenodd" fill="#FFFFFF" d="M274.668,313.007c-3.677,1.061-3.395-2.026-4.502-3.505
		c-0.962-1.286-0.743-3.436-3.176-3.639c-2.609-0.217-3.511,0.629-3.383,3.289c0.063,1.325,1.247,3.924-1.097,3.96
		c-2.683,0.041-1.31-2.658-1.372-4.087c-0.189-4.357,0-8.729-0.102-13.092c-0.042-1.846,0.398-2.835,2.463-2.682
		c1.736,0.129,3.499-0.063,5.232,0.088c5.228,0.456,8.267,6.082,4.879,9.979c-2.401,2.762-1.362,4.475-0.193,6.766
		C273.866,310.963,274.2,311.901,274.668,313.007z M263.755,299.823c-0.48,2.492,0.097,3.854,3.197,3.626
		c2.76-0.202,4.659-0.81,4.7-3.956c0.047-3.483-2.442-3.363-4.895-3.65C263.348,295.444,263.509,297.512,263.755,299.823z"/>
	<path fill-rule="evenodd" clip-rule="evenodd" fill="#FFFFFF" d="M178.324,303.177c0-1.375-0.241-2.804,0.055-4.112
		c0.488-2.162-2.104-5.858,3.071-5.849c7.722,0.014,10.05,1.234,10.259,6.152c0.206,4.855-1.691,7.492-6.259,7.396
		c-3.679-0.078-4.957,1.061-4.362,4.603c0.129,0.772,0.272,1.836-1.09,1.931c-1.393,0.097-1.669-0.738-1.665-1.872
		c0.008-2.75,0.002-5.499,0.002-8.248C178.332,303.177,178.328,303.177,178.324,303.177z M181.105,300.125
		c0.574,1.435-1.492,4.384,2.501,4.217c3.654-0.152,5.496-1.513,5.412-4.634c-0.092-3.401-2.386-3.683-5.132-3.89
		C180.111,295.533,181.304,298.1,181.105,300.125z"/>
	<path fill-rule="evenodd" clip-rule="evenodd" fill="#FFFFFF" d="M48.592,301.698c-0.001-1.869-0.049-3.74,0.017-5.606
		c0.04-1.141-0.462-2.784,1.55-2.72c1.834,0.061,1.18,1.61,1.201,2.575c0.074,3.487,0.117,6.979,0.001,10.466
		c-0.089,2.668,0.716,4.331,3.665,4.463c3.065,0.136,4.74-1.183,4.78-4.306c0.045-3.488-0.008-6.979,0.053-10.466
		c0.02-1.136-0.475-2.78,1.537-2.732c1.846,0.045,1.198,1.599,1.213,2.562c0.057,3.737,0.146,7.482-0.054,11.211
		c-0.265,4.943-2.191,6.412-7.666,6.264c-4.471-0.121-6.146-1.828-6.286-6.477C48.55,305.188,48.594,303.442,48.592,301.698z"/>
	<path fill-rule="evenodd" clip-rule="evenodd" fill="#FFFFFF" d="M299.462,312.133c0.123,0.545,0.013,0.992-0.594,1.115
		c-0.953,0.193-1.938-0.012-2.039-1.06c-0.383-3.976-3.185-3.563-5.954-3.599c-1.927-0.024-3.082,0.449-3.314,2.535
		c-0.146,1.298-0.655,2.589-2.349,2.133c-1.887-0.507-0.642-1.876-0.435-2.734c1.049-4.35,2.233-8.668,3.404-12.988
		c0.583-2.153,1.564-3.945,4.139-4.178c1.062-0.095,2.116-0.106,2.447,1.112C296.366,300.349,297.903,306.244,299.462,312.133z
		 M292.366,295.72c-2.145,2.989-2.127,5.968-3.075,8.605c-0.449,1.25,0.132,1.682,1.444,1.837c3.873,0.455,4.37-0.017,3.411-3.723
		C293.618,300.402,293.069,298.368,292.366,295.72z"/>
	<path fill-rule="evenodd" clip-rule="evenodd" fill="#FFFFFF" d="M212.419,303.472c-0.03-1.871-0.009-3.725,0.582-5.542
		c1.284-3.955,7.719-6.343,11.203-4.131c0.612,0.39,0.768,0.938,0.646,1.59c-0.152,0.814-0.777,0.82-1.429,0.797
		c-1.368-0.049-2.74-0.15-4.105-0.093c-2.648,0.112-3.709,1.88-3.79,4.213c-0.102,2.896,2.264,1.324,3.531,1.729
		c0.339,0.108,0.753-0.042,1.113,0.027c1.081,0.206,2.889-0.667,2.902,1.286c0.013,1.971-1.854,0.957-2.868,1.344
		c-1.612,0.614-4.699-1.834-4.708,2.124c-0.007,3.02,1.979,4.449,5.644,4.255c0.62-0.032,1.24-0.098,1.86-0.14
		c0.879-0.06,1.825-0.214,1.886,1.108c0.057,1.204-0.829,1.287-1.706,1.525c-6.594,1.795-10.532-1.061-10.761-7.852
		C212.395,304.967,212.416,304.219,212.419,303.472z"/>
	<path fill-rule="evenodd" clip-rule="evenodd" fill="#FFFFFF" d="M147.033,296.088c-1.48-0.28-2.824-0.398-3.896,0.238
		c-1.716,1.02-2.814,2.737-2.364,4.719c0.428,1.884,2.31,0.632,3.482,1.009c1.457,0.469,4.19-1.175,4.189,1.404
		c0,2.249-2.63,0.756-4.01,1.216c-1.294,0.432-3.655-1.203-3.702,1.627c-0.041,2.448,0.983,4.446,3.785,4.676
		c1.48,0.12,2.985-0.083,4.48-0.127c0.657-0.019,1.244,0.1,1.32,0.923c0.075,0.817-0.139,1.285-1.053,1.63
		c-5.885,2.221-10.609-0.47-11.38-6.652c-0.214-1.72-0.313-3.493-0.156-5.214c0.657-7.163,3.25-9.122,10.343-8.021
		c1.089,0.169,2.474-0.008,2.249,1.702c-0.213,1.614-1.54,0.727-2.396,0.861C147.559,296.136,147.179,296.088,147.033,296.088z"/>
	<path fill-rule="evenodd" clip-rule="evenodd" fill="#FFFFFF" d="M99.957,303.646c0.248-1.849,0.332-3.738,0.777-5.538
		c1.008-4.074,8.054-6.592,11.477-4.215c0.488,0.339,0.629,0.749,0.548,1.257c-0.147,0.933-0.779,1.116-1.635,1.069
		c-1.493-0.081-3.026-0.298-4.478-0.061c-2.509,0.409-3.536,2.355-3.417,4.642c0.126,2.433,2.273,1.085,3.505,1.467
		c0.114,0.035,0.258-0.026,0.371,0.009c1.265,0.401,3.583-0.987,3.652,1.267c0.076,2.443-2.312,0.871-3.516,1.343
		c-1.362,0.534-3.75-1.353-4.063,1.602c-0.279,2.625,1.768,4.64,4.617,4.747c0.248,0.009,0.506-0.074,0.745-0.032
		c1.418,0.251,3.869-1.439,4.053,0.871c0.181,2.284-2.559,1.653-4.044,1.752C102.261,314.245,100.1,311.557,99.957,303.646z"/>
	<path fill-rule="evenodd" clip-rule="evenodd" fill="#FFFFFF" d="M250.098,308.724c-2.745-0.67-4.267,0.363-4.579,3.196
		c-0.143,1.293-1.146,1.557-2.224,1.326c-1.443-0.308-0.693-1.344-0.508-2.063c1.204-4.691,2.43-9.378,3.717-14.048
		c0.438-1.588,1.163-3.062,2.96-3.552c1.863-0.508,3.255-0.543,3.83,1.99c1.18,5.206,2.723,10.328,4.071,15.497
		c0.193,0.74,0.832,1.762-0.465,2.162c-1.229,0.38-1.91-0.342-2.064-1.474C254.442,308.853,252.683,308.127,250.098,308.724z
		 M250.57,295.741c-2.027,2.719-1.963,5.462-2.871,7.859c-0.771,2.029-0.259,2.552,1.854,2.588c2.592,0.044,4.186-0.16,2.898-3.407
		C251.641,300.73,251.286,298.498,250.57,295.741z"/>
	<path fill-rule="evenodd" clip-rule="evenodd" fill="#FFFFFF" d="M8.271,295.652c-0.517,0-1.141,0.006-1.765-0.001
		c-1.597-0.017-3.205,0.28-3.546,2.047c-0.289,1.496,0.837,2.503,2.167,3.149c1.567,0.763,3.171,1.464,4.681,2.328
		c2.471,1.413,3.338,3.563,2.671,6.353c-0.656,2.741-2.57,3.907-5.172,3.992c-1.857,0.06-3.727-0.173-5.587-0.312
		c-0.788-0.059-1.488-0.316-1.455-1.312c0.042-1.297,0.93-1.229,1.853-1.153c1.243,0.1,2.49,0.167,3.735,0.226
		c1.766,0.084,3.371-0.393,3.845-2.245c0.483-1.89-0.853-2.963-2.364-3.783c-1.745-0.948-3.509-1.866-5.218-2.878
		c-2.014-1.191-2.412-3.067-1.933-5.199c0.502-2.234,2.094-3.349,4.222-3.675c1.981-0.304,3.983-0.228,5.958,0.199
		c0.853,0.185,1.854,0.234,1.771,1.467c-0.113,1.695-1.404,0.948-2.271,0.992C9.374,295.871,8.875,295.732,8.271,295.652z"/>
	<path fill-rule="evenodd" clip-rule="evenodd" fill="#FFFFFF" d="M312.726,310.958c1.26,0,2.007,0.011,2.753-0.003
		c1.515-0.027,2.735-0.671,3.195-2.124c0.481-1.521-0.346-2.692-1.623-3.43c-1.724-0.995-3.566-1.782-5.277-2.797
		c-2.285-1.354-3.307-3.398-2.54-6.021c0.734-2.519,2.764-3.444,5.175-3.494c1.733-0.035,3.475,0.199,5.208,0.359
		c0.937,0.087,1.745,0.37,1.49,1.61c-0.217,1.051-1.024,0.88-1.745,0.844c-1.492-0.075-2.983-0.262-4.474-0.245
		c-1.314,0.016-2.586,0.507-2.907,1.906c-0.311,1.351,0.473,2.392,1.686,3.012c1.329,0.679,2.691,1.293,4.038,1.939
		c3.058,1.468,4.704,3.701,3.703,7.21c-0.988,3.47-3.751,3.969-6.811,3.854c-0.497-0.019-1.021-0.019-1.482-0.177
		c-1.328-0.456-3.963,0.83-3.689-1.709C309.662,309.494,312.002,311.538,312.726,310.958z"/>
	<path fill-rule="evenodd" clip-rule="evenodd" fill="#FFFFFF" d="M232,310.869c0.995,0.004,1.999,0.085,2.983-0.016
		c1.382-0.143,2.367-0.961,2.574-2.33c0.201-1.336-0.455-2.466-1.622-3.126c-1.732-0.981-3.592-1.747-5.293-2.776
		c-2.24-1.354-3.36-3.315-2.539-6.011c0.771-2.533,2.743-3.443,5.149-3.522c1.611-0.054,3.238,0.1,4.845,0.283
		c0.923,0.105,2.207,0.079,1.903,1.626c-0.239,1.222-1.227,0.948-2.097,0.889c-1.49-0.101-2.992-0.277-4.476-0.187
		c-1.107,0.067-2.301,0.446-2.631,1.733c-0.365,1.419,0.436,2.448,1.58,3.082c1.632,0.906,3.372,1.612,5.034,2.465
		c2.736,1.403,3.584,3.768,2.923,6.604c-0.665,2.858-2.86,3.951-5.596,4.01c-1.49,0.032-2.989-0.145-4.478-0.294
		c-0.964-0.097-2.164-0.059-2.047-1.551c0.132-1.69,1.419-0.919,2.29-0.968C231,310.752,231.501,310.833,232,310.869z"/>
	<path fill-rule="evenodd" clip-rule="evenodd" fill="#FFFFFF" d="M120.365,310.9c0.385,0,1.263,0.062,2.128-0.015
		c1.343-0.118,2.424-0.746,2.792-2.107c0.376-1.387-0.288-2.488-1.442-3.169c-1.822-1.076-3.748-1.976-5.583-3.031
		c-2.202-1.268-3.135-3.201-2.503-5.696c0.595-2.347,2.341-3.488,4.627-3.748c1.989-0.227,3.984-0.115,5.966,0.294
		c0.984,0.203,1.68,0.483,1.452,1.656c-0.205,1.05-1.014,0.886-1.744,0.832c-0.871-0.066-1.739-0.226-2.609-0.236
		c-1.837-0.021-4.147-0.515-4.775,1.821c-0.627,2.331,1.521,3.089,3.21,3.912c1.23,0.601,2.499,1.145,3.657,1.864
		c2.233,1.389,3.225,3.338,2.587,6.041c-0.639,2.711-2.38,4.043-5.031,4.186c-1.608,0.087-3.233-0.082-4.847-0.191
		c-1.106-0.075-2.514-0.037-2.295-1.697c0.206-1.563,1.537-0.773,2.424-0.823C118.877,310.763,119.378,310.841,120.365,310.9z"/>
	<path fill-rule="evenodd" clip-rule="evenodd" fill="#FFFFFF" d="M74.584,313.915c1.871,1.123,3.628,2.496,1.577,4.775
		c-1.034,1.148-2.562,0.714-3.908,0.564c-0.247-0.026-0.647-0.471-0.638-0.709c0.066-1.716,2.073-0.41,2.577-1.906
		c-1.733-1.46-3.232-3.359-5.6-4.504c-1.75-0.845-2.186-2.987-2.342-4.874c-0.174-2.109-0.205-4.242-0.12-6.358
		c0.333-8.301,5.666-8.482,11.076-7.449c0.802,0.153,1.435,0.366,1.324,1.391c-0.135,1.238-0.93,1.217-1.883,1.146
		c-2.434-0.184-5.354-1.157-6.746,1.643c-1.727,3.471-1.507,7.331-0.267,10.938c0.67,1.949,2.599,2.311,4.654,2.382
		c1.373,0.048,3.731-1.523,4.074,0.857C78.729,314.347,75.79,312.681,74.584,313.915z"/>
	<path fill-rule="evenodd" clip-rule="evenodd" fill="#FFFFFF" d="M201.753,258.167c-0.447-2.722-2.369-4.307-5.318-4.301
		c-4.497,0.01-8.996,0.055-13.493-0.018c-3.857-0.063-5.786-1.922-5.804-5.745c-0.065-13.619,0.017-27.237-0.115-40.854
		c-0.023-2.49,0.968-2.853,3.089-2.825c5.117,0.069,10.239-0.072,15.358-0.139c4.473-0.059,6.427-1.922,6.523-6.288
		c0.053-2.373,0.052-4.748,0-7.121c-0.1-4.502-2.156-6.574-6.746-6.604c-4.994-0.033-9.993,0.003-14.983,0.197
		c-2.368,0.092-3.349-0.558-3.242-3.104c0.166-3.988-0.016-7.991-0.05-11.988c-0.176-3.405-2.236-4.722-5.367-4.766
		c-2.979-0.043-5.961-0.032-8.941-0.003c-3.123,0.03-5.229,1.311-5.546,4.686c-0.026,8.245-0.066,16.49-0.075,24.735
		c-0.022,20.49-0.104,40.979-0.018,61.469c0.055,13.026,5.314,18.176,18.239,18.234c6.747,0.03,13.498-0.148,20.237,0.066
		c3.672,0.117,5.583-1.438,6.212-4.858C202.372,265.358,202.337,261.716,201.753,258.167z"/>
	<path fill-rule="evenodd" clip-rule="evenodd" fill="#FFFFFF" d="M34.602,303.241c0.004-2.617-0.011-5.234,0.012-7.852
		c0.007-0.841-0.124-1.841,1.158-1.924c1.526-0.1,1.443,1.017,1.447,2.01c0.015,3.863,0.173,7.735-0.044,11.587
		c-0.157,2.802,0.477,4.096,3.611,3.812c1.452-0.131,4.31-1.104,4.346,1.024c0.049,2.887-2.913,1.271-4.406,1.326
		c-6.124,0.229-6.128,0.097-6.129-5.871C34.598,305.982,34.598,304.611,34.602,303.241z"/>
	<path fill-rule="evenodd" clip-rule="evenodd" fill="#FFFFFF" d="M302.407,302.849c-0.002-2.604,0.007-5.21-0.006-7.814
		c-0.006-1.166-0.07-2.229,1.666-2.182c1.451,0.039,1.543,0.853,1.54,1.932c-0.012,5.582-0.022,11.164,0.008,16.745
		c0.007,1.199-0.306,1.817-1.669,1.804c-1.45-0.015-1.551-0.844-1.544-1.927C302.42,308.554,302.408,305.702,302.407,302.849z"/>
	<path fill-rule="evenodd" clip-rule="evenodd" fill="#FFFFFF" d="M281.087,303.476c0.005,2.625,0,5.248,0.007,7.873
		c0.003,1.075-0.093,2.04-1.561,1.926c-1.328-0.105-1.11-1.119-1.113-1.939c-0.019-5.373-0.006-10.747-0.012-16.12
		c-0.001-0.924,0.018-1.797,1.301-1.772c1.21,0.023,1.375,0.834,1.374,1.786C281.08,297.978,281.082,300.727,281.087,303.476z"/>
	<path fill-rule="evenodd" clip-rule="evenodd" fill="#FFFFFF" d="M87.43,286.785c1.843,0.443,3.661,1.554,5.922,0.704
		c0.761-0.285,1.037,1.188,0.366,1.933c-1.087,1.209-2.393,1.528-4.006,0.87c-0.992-0.404-1.934-1.017-3.143-0.951
		c-0.799,0.043-2.169,2.125-2.395-0.247C83.994,287.195,85.716,286.872,87.43,286.785z"/>
	<path fill-rule="evenodd" clip-rule="evenodd" fill="none" d="M290.441,239.061c0.996,0,2.009-0.114,2.985,0.022
		c2.479,0.348,6.367-1.368,7.164,0.917c1.153,3.311,0.992,7.378-0.236,10.985c-0.72,2.11-2.557,2.901-4.759,2.891
		c-4.608-0.021-9.218,0.063-13.823-0.03c-3.345-0.068-5.272-2.045-5.493-5.324c-0.521-7.771,1.072-9.46,8.931-9.461
		C286.954,239.061,288.697,239.061,290.441,239.061z"/>
	<path fill-rule="evenodd" clip-rule="evenodd" fill="none" d="M115.802,219.293c-2.868,0-5.736-0.05-8.602,0.019
		c-1.576,0.037-2.339-0.574-2.259-2.168c0.013-0.249,0.004-0.5-0.007-0.748c-0.494-11.465-0.234-11.736,11.222-11.736
		c2.618,0,5.238-0.062,7.854,0.015c4.209,0.124,5.811,2.057,5.837,6.887c0.03,5.451-1.497,7.541-5.817,7.714
		C121.292,219.384,118.545,219.295,115.802,219.293z"/>
	<path fill-rule="evenodd" clip-rule="evenodd" fill="none" d="M201.011,303.314c-3.653,0.784-2.707-1.91-2.83-3.848
		c-0.133-2.1-0.23-3.953,2.901-3.63c2.465,0.254,4.93,0.247,4.907,3.575C205.969,302.595,204.062,303.729,201.011,303.314z"/>
	<path fill-rule="evenodd" clip-rule="evenodd" fill="none" d="M93.932,302.392c-0.01,6.759-1.596,8.895-5.489,8.491
		c-3.262-0.338-4.308-2.276-4.242-7.866c0.057-4.743,1.569-7.274,4.541-7.417c2.453-0.118,4.065,1.194,4.726,3.459
		C93.879,300.471,93.882,302.002,93.932,302.392z"/>
	<path fill-rule="evenodd" clip-rule="evenodd" fill="none" d="M27.859,302.729c-0.058,5.605-1.405,7.828-4.334,8.172
		c-3.481,0.409-5.376-1.646-5.64-6.117c-0.344-5.843,1.523-9.293,5.046-9.2c2.44,0.063,3.882,1.505,4.432,3.776
		C27.71,300.79,27.797,302.282,27.859,302.729z"/>
	<path fill-rule="evenodd" clip-rule="evenodd" fill="none" d="M263.755,299.823c-0.246-2.311-0.407-4.379,3.003-3.98
		c2.452,0.287,4.941,0.167,4.895,3.65c-0.041,3.146-1.94,3.754-4.7,3.956C263.852,303.676,263.274,302.315,263.755,299.823z"/>
	<path fill-rule="evenodd" clip-rule="evenodd" fill="none" d="M181.105,300.125c0.198-2.024-0.994-4.592,2.781-4.307
		c2.746,0.207,5.04,0.488,5.132,3.89c0.084,3.121-1.758,4.481-5.412,4.634C179.613,304.508,181.68,301.559,181.105,300.125z"/>
	<path fill-rule="evenodd" clip-rule="evenodd" fill="none" d="M292.366,295.72c0.703,2.647,1.252,4.682,1.78,6.72
		c0.959,3.706,0.462,4.178-3.411,3.723c-1.312-0.155-1.894-0.587-1.444-1.837C290.239,301.688,290.222,298.709,292.366,295.72z"/>
	<path fill-rule="evenodd" clip-rule="evenodd" fill="none" d="M250.57,295.741c0.716,2.757,1.07,4.989,1.882,7.04
		c1.287,3.247-0.307,3.451-2.898,3.407c-2.113-0.036-2.625-0.559-1.854-2.588C248.607,301.203,248.543,298.459,250.57,295.741z"/>
	<g opacity="0.7">
		<g>
			<path fill-rule="evenodd" clip-rule="evenodd" fill="#FFFFFF" d="M230.525,41.399c0-3.3-2.7-6-6-6h-61.54c-3.3,0-6,2.7-6,6
				v30.434c0,3.3-1.099,8.466-2.44,11.481c0,0-3.139,7.047-12.271,7.033c-16.732-0.025-33.465-0.02-50.198,0
				c-5.059,0.006-6.966,1.935-6.971,6.997c-0.014,13.986-0.021,27.971,0.008,41.957c0.01,4.374,1.991,6.287,6.443,6.29
				c19.729,0.015,39.459,0.016,59.189,0c5.012-0.004,6.914-1.958,6.922-7.075c0.018-10.614-0.008-21.228,0.004-31.842
				c0.014-11.358,4.479-15.803,15.916-15.814c16.481-0.017,32.966,0.013,49.448-0.013c0.793-0.001,0.793-0.001,0.793-0.001
				c0.741-0.103,2.551-0.187,4.021-0.187c1.472,0,2.675-2.7,2.675-6V41.399z"/>
		</g>
	</g>
	<g opacity="0.8">
		<path fill-rule="evenodd" clip-rule="evenodd" fill="#FFFFFF" d="M246.773,67.293c0,3.3-2.7,6-6,6h-60.596c-3.3,0-6-2.7-6-6
			V24.035c0-3.3,2.7-6,6-6h60.596c3.3,0,6,2.7,6,6V67.293z"/>
	</g>
	<g opacity="0.9">
		<path fill-rule="evenodd" clip-rule="evenodd" fill="#FFFFFF" d="M264.407,49.258c0,3.3-2.7,6-6,6h-60.596c-3.3,0-6-2.7-6-6V6
			c0-3.3,2.7-6,6-6h60.596c3.3,0,6,2.7,6,6V49.258z"/>
	</g>
</g>
</svg>
