<?xml version="1.0" encoding="utf-8"?>
<!-- Generator: Adobe Illustrator 16.0.0, SVG Export Plug-In . SVG Version: 6.00 Build 0)  -->
<!DOCTYPE svg PUBLIC "-//W3C//DTD SVG 1.1//EN" "http://www.w3.org/Graphics/SVG/1.1/DTD/svg11.dtd">
<svg version="1.1" id="Layer_1" xmlns="http://www.w3.org/2000/svg" xmlns:xlink="http://www.w3.org/1999/xlink" x="0px" y="0px"
	 width="305.202px" height="203.693px" viewBox="0 0 305.202 203.693" enable-background="new 0 0 305.202 203.693"
	 xml:space="preserve">
<g>
	<path fill-rule="evenodd" clip-rule="evenodd" fill="#FFFFFF" d="M137.568,144.84c-14.257,12.574-28.089,24.771-41.92,36.968
		c-3.576,3.154-6.987,6.528-10.8,9.363c-1.677,1.246-4.611,2.428-6.169,1.76c-1.616-0.692-3.002-3.587-3.198-5.642
		c-0.845-8.892-1.252-17.827-1.754-26.751c-1.261-22.409-2.6-44.815-3.621-67.235c-0.181-3.975-1.516-5.412-5.313-6.108
		c-19.33-3.542-38.641-7.209-57.875-11.232C4.368,75.43,2.294,72.616,0,70.859c2.259-1.825,4.269-4.741,6.81-5.317
		c96.815-21.948,193.674-43.701,290.562-65.326c2.378-0.531,6.767-0.07,7.358,1.229c0.962,2.114,0.354,5.788-0.966,7.97
		c-38.278,63.19-76.718,126.282-115.166,189.369c-3.957,6.494-6.908,6.526-11.51,0.207c-11.808-16.22-23.555-32.483-35.34-48.72
		C140.497,148.546,139.151,146.89,137.568,144.84z M182.559,189.938c34.346-56.408,68.223-112.046,102.099-167.683
		c-0.385-0.336-0.769-0.673-1.151-1.009C232.56,53.383,181.616,85.52,130.352,117.858
		C147.912,142.101,164.995,165.686,182.559,189.938z M255.945,26.998c-0.147-0.354-0.295-0.706-0.442-1.06
		c-0.738,0.127-1.514,0.15-2.212,0.395C196.741,46.24,140.209,66.196,83.626,86.008c-3.664,1.283-4.155,3.3-3.922,6.695
		c0.86,12.481,1.417,24.984,2.141,37.475c0.775,13.341,1.612,26.678,2.421,40.017c2.29-1.565,3.434-3.348,4.516-5.167
		c9.241-15.53,18.326-31.155,27.813-46.532c2.094-3.395,5.165-6.602,8.523-8.737c41.39-26.332,82.918-52.447,124.408-78.623
		C251.679,29.778,253.806,28.378,255.945,26.998z M32.431,69.632c0.029,0.491,0.058,0.982,0.088,1.473
		c11.762,2.276,23.484,4.807,35.311,6.685c3.908,0.621,8.382,0.416,12.092-0.87c41.785-14.484,83.472-29.247,125.177-43.958
		c2.048-0.722,4.022-1.65,6.031-2.482c-0.106-0.311-0.213-0.621-0.319-0.932C151.351,42.91,91.891,56.271,32.431,69.632z
		 M131.938,136.74c-2.805-3.802-5.284-7.163-8.285-11.231c-7.38,12.411-14.245,23.955-21.11,35.5
		c0.36,0.253,0.719,0.505,1.079,0.758C112.918,153.55,122.215,145.333,131.938,136.74z"/>
	<path fill-rule="evenodd" clip-rule="evenodd" fill="none" d="M182.559,189.938c-17.564-24.252-34.647-47.837-52.207-72.08
		C181.616,85.52,232.56,53.383,283.506,21.246c0.383,0.336,0.767,0.673,1.151,1.009C250.782,77.892,216.905,133.529,182.559,189.938
		z"/>
	<path fill-rule="evenodd" clip-rule="evenodd" fill="none" d="M255.945,26.998c-2.139,1.38-4.266,2.78-6.419,4.138
		c-41.489,26.176-83.018,52.291-124.408,78.623c-3.358,2.136-6.429,5.343-8.523,8.737c-9.488,15.377-18.573,31.002-27.813,46.532
		c-1.082,1.819-2.226,3.602-4.516,5.167c-0.809-13.339-1.646-26.676-2.421-40.017c-0.725-12.491-1.281-24.993-2.141-37.475
		c-0.233-3.395,0.258-5.413,3.922-6.695c56.583-19.812,113.115-39.769,169.665-59.675c0.698-0.245,1.474-0.268,2.212-0.395
		C255.65,26.292,255.797,26.645,255.945,26.998z"/>
	<path fill-rule="evenodd" clip-rule="evenodd" fill="none" d="M32.431,69.632c59.46-13.361,118.92-26.723,178.379-40.084
		c0.106,0.311,0.213,0.621,0.319,0.932c-2.009,0.832-3.983,1.76-6.031,2.482C163.393,47.673,121.706,62.437,79.921,76.92
		c-3.709,1.286-8.184,1.49-12.092,0.87c-11.826-1.877-23.548-4.409-35.311-6.685C32.489,70.615,32.46,70.123,32.431,69.632z"/>
	<path fill-rule="evenodd" clip-rule="evenodd" fill="none" d="M131.938,136.74c-9.723,8.593-19.02,16.81-28.316,25.026
		c-0.359-0.253-0.719-0.505-1.079-0.758c6.865-11.545,13.73-23.089,21.11-35.5C126.654,129.578,129.133,132.938,131.938,136.74z"/>
</g>
</svg>
