<?xml version="1.0" encoding="utf-8"?>
<!-- Generator: Adobe Illustrator 16.0.0, SVG Export Plug-In . SVG Version: 6.00 Build 0)  -->
<!DOCTYPE svg PUBLIC "-//W3C//DTD SVG 1.1//EN" "http://www.w3.org/Graphics/SVG/1.1/DTD/svg11.dtd">
<svg version="1.1" id="Layer_1" xmlns="http://www.w3.org/2000/svg" xmlns:xlink="http://www.w3.org/1999/xlink" x="0px" y="0px"
	 width="411.38px" height="119.02px" viewBox="0 0 411.38 119.02" enable-background="new 0 0 411.38 119.02" xml:space="preserve">
<g>
	<path fill="none" d="M98.275,76.686c-1.109,0.359-1.693,1.345-2.44,2.111c-4.961,5.088-10.25,9.788-16.28,13.581
		c-9.182,5.774-18.94,9.603-30.042,9.666c-5.87,0.034-10.632-4.787-12.162-9.309c-2.612-7.72-0.28-14.875,2.736-21.932
		c0.421-0.984,1.135-0.892,1.907-0.897c2.107-0.014,4.22,0.057,6.322-0.055c13.936-0.741,26.94-4.917,39.469-10.809
		c0.479-0.225,0.892-0.591,1.451-0.97c-0.921-0.344-1.503-0.003-2.067,0.2c-5.003,1.804-10.134,3.117-15.338,4.197
		c-8.633,1.792-17.327,2.168-26.092,1.393c-1.44-0.127-2.142-0.255-1.142-2.012c3.437-6.037,7.43-11.688,11.51-17.286
		c10.408-14.28,23.137-26.027,38.367-35.036c1.116-0.661,2.3-1.047,3.532-0.864c3.392,0.503,6.758,1.172,10.145,1.708
		c3.151,0.499,6.316,0.911,9.476,1.36c-3.61-3.121-7.921-4.66-12.348-6.872c5.039-1.494,9.561-2.835,14.217-4.215
		c-0.531-0.749-0.957-0.609-1.317-0.623c-5.773-0.215-11.28,1.28-16.79,2.692c-1.335,0.342-2.544,0.399-3.888,0.065
		c-5.774-1.434-11.668-2.229-17.597-2.344C61.94,0.087,44.955,4.37,28.771,11.934c-9.502,4.441-18.055,10.224-24.328,18.885
		c-6.358,8.779-5.903,17.241,1.425,24.74c5.065,5.183,11.2,8.688,18.039,10.945c1.745,0.576,1.922,1.229,1.072,2.763
		c-2.42,4.366-4.381,8.945-6.042,13.658c-2.835,8.046-4.774,16.26-3.062,24.779c1.459,7.259,4.978,10.784,12.219,11.229
		c9.28,0.568,17.93-1.716,26.272-5.392c15.318-6.749,28.006-16.979,38.663-29.798c1.875-2.254,4.132-4.244,5.218-7.085
		c0.082-0.069,0.163-0.139,0.245-0.208c-0.051,0.01-0.125,0.003-0.147,0.033C98.307,76.539,98.297,76.617,98.275,76.686z
		 M128.941,45.892c7.571-0.85,11.461-6.839,8.449-12.824c-1.923-3.82-5.626-4.504-9.347-4.63
		c-5.454-0.184-10.917-0.062-16.377-0.039c-0.53,0.002-1.391-0.368-1.423,0.667c-0.036,1.153,0.879,0.833,1.52,0.86
		c1.948,0.083,2.98,0.907,2.969,3.033c-0.051,9.283-0.017,18.566-0.019,27.85c0,1.997-0.676,3.356-3.005,3.189
		c-0.678-0.049-1.551-0.183-1.464,0.929c0.088,1.137,1.015,0.709,1.632,0.715c2.805,0.025,5.61,0.03,8.415-0.001
		c4.426-0.05,8.888,0.534,13.247-0.749c4.298-1.264,6.957-4.734,6.977-9.141c0.02-4.329-2.324-7.245-6.784-8.661
		C132.194,46.604,130.483,46.917,128.941,45.892z M359.963,46.417c0.894-0.925,1.729-0.865,2.436-1.115
		c3.615-1.282,6.039-4.381,6.214-8.008c0.235-4.916-3.302-8.731-8.535-8.871c-5.537-0.148-11.082-0.052-16.623-0.008
		c-0.645,0.005-1.765-0.574-1.829,0.711c-0.062,1.245,1.145,0.9,1.761,0.93c1.746,0.086,2.848,0.661,2.845,2.601
		c-0.013,9.368,0.01,18.736-0.032,28.104c-0.008,1.981-0.58,3.59-3.139,3.243c-0.666-0.091-1.531-0.159-1.456,0.949
		c0.066,0.981,0.854,0.691,1.426,0.694c4.056,0.019,8.112,0.041,12.168,0.015c0.646-0.004,1.708,0.65,1.777-0.718
		c0.08-1.556-1.158-0.907-1.848-0.932c-2.911-0.107-3.419-0.515-3.458-3.414c-0.052-3.903,0.034-7.808-0.035-11.71
		c-0.023-1.315,0.394-1.671,1.716-1.746c4.489-0.252,6.639,2.668,8.279,6.071c1.724,3.573,3.126,7.301,4.68,10.956
		c0.287,0.675,0.335,1.506,1.465,1.486c2.337-0.043,4.676,0.034,7.013,0.085c0.697,0.016,0.989-0.267,0.957-0.961
		c-0.026-0.581-0.279-0.832-0.867-0.789c-2.722,0.199-3.821-1.692-4.759-3.749c-1.259-2.765-2.428-5.572-3.742-8.31
		C365.099,49.271,363.371,47.027,359.963,46.417z M381.709,46.881c-0.054,0-0.107,0-0.161,0c0,4.761,0.023,9.523-0.012,14.285
		c-0.014,1.835-0.827,2.957-2.871,2.837c-0.633-0.037-1.556-0.29-1.543,0.848c0.014,1.194,0.984,0.788,1.574,0.758
		c4.219-0.212,8.429,0.122,12.641,0.12c6.373-0.003,12.442-1.171,16.293-6.915c3.907-5.83,4.537-12.371,2.92-19.09
		c-1.581-6.564-5.898-10.69-12.512-11.157c-6.605-0.465-13.266-0.154-19.901-0.175c-0.439-0.001-0.976-0.108-1.038,0.597
		c-0.063,0.729,0.379,0.828,0.978,0.981c3.635,0.93,3.631,0.951,3.633,4.727C381.71,38.758,381.709,42.819,381.709,46.881z
		 M144.599,48.819c-0.063,4.385,0.633,9.009,3.727,12.826c6.278,7.748,20.881,5.975,25.805-3.149
		c3.651-6.765,4.028-13.961,2.019-21.288c-0.848-3.089-2.656-5.585-5.418-7.349c-6.311-4.031-16.577-2.454-21.387,3.298
		C145.635,37.594,144.571,42.837,144.599,48.819z M258.562,65.638c0.001,0.023,0.001,0.046,0.001,0.068
		c3.902,0,7.804,0.004,11.706-0.004c0.71-0.001,1.686,0.407,1.634-0.944c-0.126-3.275-0.258-6.55-0.366-9.826
		c-0.023-0.682-0.336-0.986-0.997-1.009c-0.787-0.027-1.138,0.329-1.109,1.125c0.022,0.623-0.015,1.249-0.051,1.872
		c-0.26,4.478-1.81,6.19-6.188,6.692c-1.701,0.195-3.422,0.291-5.134,0.296c-2.803,0.009-3.593-0.765-3.695-3.616
		c-0.082-2.262-0.039-4.529-0.04-6.793c-0.004-6.642-0.007-6.6,6.66-5.62c2.057,0.302,3.404,1.08,3.359,3.354
		c-0.017,0.844,0.241,1.335,1.198,1.271c0.917-0.061,0.934-0.671,0.874-1.321c-0.257-2.807-0.232-5.611-0.006-8.418
		c0.051-0.632,0.093-1.294-0.851-1.333c-0.714-0.03-1.078,0.167-1.278,0.973c-0.827,3.326-1.098,3.505-4.539,3.578
		c-1.405,0.03-2.812-0.026-4.217,0.017c-0.889,0.027-1.229-0.28-1.218-1.209c0.051-4.451,0.051-8.902,0.051-13.354
		c-0.001-0.749,0.255-1.126,1.053-1.21c3.045-0.318,6.074-0.4,9.033,0.544c1.961,0.625,3.12,2.027,3.473,4.029
		c0.202,1.146,0.254,2.323,0.323,3.488c0.043,0.717-0.064,1.42,1.033,1.401c1.11-0.02,0.962-0.776,0.994-1.46
		c0.128-2.728,0.157-5.466,0.419-8.181c0.138-1.434-0.344-1.697-1.638-1.688c-7.496,0.049-14.992,0.015-22.488,0.04
		c-0.586,0.002-1.546-0.459-1.559,0.75c-0.009,0.992,0.803,0.772,1.37,0.78c2.085,0.031,2.837,1.115,2.826,3.129
		c-0.048,9.371-0.037,18.742-0.023,28.114c0.002,1.861-0.593,3.019-2.719,2.841c-0.605-0.05-1.548-0.4-1.556,0.78
		c-0.009,1.395,1.09,0.812,1.72,0.819C250.6,65.661,254.581,65.638,258.562,65.638z M331.508,65.638
		c0,0.004-0.001,0.008-0.001,0.013c2.185,0,4.37,0.022,6.555-0.014c0.608-0.01,1.535,0.372,1.53-0.819
		c-0.005-0.958-0.744-0.837-1.349-0.836c-1.563,0.003-2.372-0.873-2.897-2.253c-4.013-10.561-8.047-21.113-11.074-32.015
		c-0.277-0.998-0.223-2.129-1.879-2.152c-1.57-0.021-2.308,0.477-2.896,1.95c-4.186,10.497-8.557,20.917-13.48,31.096
		c-0.764,1.579-1.569,3.113-3.564,3.344c-0.75,0.087-0.891,0.519-0.813,1.128c0.081,0.631,0.555,0.62,1.049,0.619
		c3.509-0.003,7.018,0.002,10.526,0.025c0.658,0.004,1.057-0.186,1.03-0.913c-0.021-0.592-0.382-0.807-0.913-0.821
		c-0.39-0.011-0.781,0.009-1.171-0.005c-2.888-0.102-3.729-1.155-2.793-3.856c1.047-3.019,2.337-5.952,3.432-8.956
		c0.386-1.06,1.024-1.482,2.083-1.477c3.045,0.015,6.091,0.001,9.136,0.033c1.069,0.011,1.835,0.295,2.193,1.585
		c0.812,2.926,1.907,5.771,2.798,8.677c0.883,2.883,0.082,3.93-2.899,3.994c-0.391,0.008-0.781,0.011-1.172-0.001
		c-0.688-0.021-1.265,0.066-1.198,0.979c0.064,0.858,0.71,0.665,1.213,0.668C327.138,65.646,329.322,65.638,331.508,65.638z
		 M184.804,45.85c0,3.904-0.019,7.809,0.005,11.713c0.028,4.612,2.341,7.391,6.914,8.333c2.934,0.605,5.893,0.638,8.856,0.26
		c6.474-0.827,8.997-3.686,9.012-10.242c0.017-7.184-0.044-14.368,0.032-21.551c0.039-3.682,0.142-3.677,3.64-4.34
		c0.562-0.106,1.347,0.067,1.276-0.933c-0.075-1.046-0.863-0.674-1.403-0.679c-3.201-0.028-6.402-0.059-9.602,0.004
		c-0.613,0.013-1.777-0.652-1.78,0.716c-0.003,1.319,1.136,0.753,1.787,0.783c3.123,0.144,3.836,0.652,3.853,3.409
		c0.049,7.964,0.052,15.929-0.016,23.894c-0.021,2.528-0.885,4.861-3.232,6.114c-3.324,1.775-6.908,2.195-10.345,0.441
		c-3.201-1.634-3.707-4.786-3.71-8.032c-0.007-7.028-0.001-14.055-0.001-21.083c0-4.27,0.078-4.353,4.414-4.707
		c0.587-0.047,1.333,0.166,1.286-0.853c-0.048-1.055-0.858-0.702-1.386-0.705c-4.216-0.025-8.432-0.021-12.648,0.001
		c-0.546,0.003-1.363-0.303-1.367,0.736c-0.003,0.931,0.803,0.936,1.351,0.916c2.609-0.092,3.098,1.481,3.077,3.624
		C184.777,37.729,184.805,41.789,184.804,45.85z M292.111,60.109c-0.743-0.474-0.716-1.072-0.859-1.565
		c-2.231-7.631-4.459-15.262-6.669-22.899c-1.405-4.856-1.394-4.875,3.49-5.692c0.615-0.103,1.062-0.18,1.005-0.939
		c-0.054-0.705-0.562-0.62-1.017-0.621c-4.373-0.01-8.747-0.013-13.121-0.023c-0.489-0.001-0.938-0.007-0.964,0.673
		c-0.02,0.54,0.132,0.938,0.722,0.982c2.786,0.204,3.418,2.378,4.066,4.485c3.094,10.055,6.187,20.11,9.207,30.188
		c0.381,1.272,0.906,1.729,2.255,1.731c1.315,0.002,1.925-0.367,2.318-1.654c0.888-2.905,1.888-5.783,2.977-8.62
		c2.763-7.201,5.552-14.393,8.442-21.543c0.681-1.682,1.267-3.592,3.211-4.404c0.642-0.268,1.146-0.584,0.904-1.362
		c-0.232-0.75-0.908-0.441-1.395-0.446c-2.811-0.026-5.623-0.046-8.433,0.02c-0.614,0.014-1.756-0.61-1.716,0.792
		c0.033,1.171,1.023,0.671,1.611,0.715c3.546,0.264,4.176,1.032,3.086,4.402c-1.392,4.299-2.937,8.549-4.448,12.809
		C295.261,51.433,293.695,55.716,292.111,60.109z M229.676,65.668c0-0.008,0-0.017,0-0.025c4.06,0,8.119-0.046,12.178,0.029
		c1.157,0.021,1.489-0.329,1.449-1.445c-0.117-3.354-0.146-6.711-0.224-10.066c-0.016-0.651,0.254-1.466-0.891-1.52
		c-1.317-0.063-1.001,0.867-1.042,1.59c-0.452,8.029-2.007,9.53-10.081,9.728c-0.234,0.005-0.469,0.022-0.702,0.023
		c-3.481,0.013-4.114-0.598-4.118-4.046c-0.008-8.121-0.003-16.241-0.004-24.362c0-5.362,0-5.362,5.362-5.639
		c0.665-0.034,1.571,0.225,1.48-0.906c-0.078-0.969-0.929-0.628-1.474-0.631c-4.371-0.027-8.744-0.069-13.114,0.036
		c-0.704,0.017-2.142-0.888-2.174,0.741c-0.026,1.293,1.333,0.888,2.02,0.89c2.133,0.004,2.65,1.186,2.626,3.002
		c-0.032,2.576-0.007,5.153-0.012,7.73c-0.015,6.481,0.005,12.962-0.07,19.441c-0.023,2.037-0.311,4.051-3.208,3.756
		c-0.709-0.072-1.514-0.09-1.398,1.003c0.103,0.976,0.882,0.665,1.453,0.666C221.715,65.673,225.695,65.668,229.676,65.668z
		 M192.454,104.08c-4.112-1.441-3.03-0.801-3.333-5.081c-0.016-0.232-0.001-0.468-0.001-0.702c-0.003-4.729-0.003-4.729,4.764-4.729
		c5.689,0.002,5.689,0.002,5.624,5.751c-0.04,3.521-0.04,3.519-3.319,4.152c-0.071,0.014-0.096,0.262-0.209,0.596
		c3.257,0,6.438,0,9.62,0c0.2-0.201,0.399-0.402,0.599-0.604c-4.35,0.195-3.438-2.575-3.457-4.778
		c-0.032-3.669,0.011-7.339-0.016-11.008c-0.018-2.435-0.523-5.124,3.2-5.276c0.003,0,0-0.136,0-0.318c-3.297,0-6.597,0-9.896,0
		c0.231,0.522,0.511,0.735,0.763,0.707c2.272-0.263,2.894,0.949,2.721,2.94c-0.047,0.542-0.007,1.093-0.007,1.639
		c-0.006,5.028-0.006,5.028-5.039,5.026c-5.396-0.002-5.396-0.002-5.354-5.401c0.028-3.638,0.028-3.636,3.234-4.428
		c0.059-0.015,0.057-0.271,0.113-0.571c-3.097,0-6.165,0-9.232,0c3.606,0.674,2.642,3.418,2.664,5.642
		c0.032,3.356,0.088,6.717-0.019,10.07c-0.076,2.371,1.256,5.438-2.615,6.373C186.322,104.08,189.388,104.08,192.454,104.08z
		 M320.864,86.485c0.685,0.175,0.897,0.814,1.25,1.285c4.024,5.362,8.025,10.742,12.058,16.099c0.348,0.461,0.572,1.342,1.306,1.137
		c0.902-0.252,0.549-1.18,0.543-1.82c-0.052-5.458-0.092-10.918-0.245-16.374c-0.064-2.259-0.009-4.241,2.989-4.288
		c0.019,0,0.034-0.271,0.094-0.771c-2.255,0-4.474,0-6.693,0.001c-0.306,0.001-0.661-0.049-0.754,0.357
		c-0.128,0.551,0.29,0.693,0.675,0.687c1.095-0.02,2.263,0.128,2.288,1.42c0.098,4.829,0.039,9.661,0.039,14.999
		c-3.702-5.203-7.144-9.995-10.534-14.822c-1.892-2.692-3.842-3.306-8.073-1.909c4.031,0.129,3.216,2.629,3.271,4.664
		c0.1,3.661,0.139,7.326,0.286,10.985c0.103,2.531,0.758,5.275-3.022,5.891c2.539,0,5.078,0,8.152,0
		c-1.471-1.146-3.681-0.126-3.649-2.501C320.91,96.547,320.864,91.566,320.864,86.485z M234.742,92.115
		c0.015-7.568-3.861-11.49-10.554-10.681c-4.265,0.516-7.521,3.367-8.545,7.844c-1.154,5.044-1.352,10.122,3.091,13.792
		c4.053,3.349,11.402,1.546,14.081-3.112C234.211,97.532,234.845,94.913,234.742,92.115z M359.582,94.188
		c0.589,1.336,1.408,0.823,2.02,0.932c0.856,0.152,1.476,0.46,1.604,1.4c0.213,1.544,0.442,3.085,0.199,4.647
		c-0.204,1.316-0.947,2.021-2.274,2.293c-3.683,0.757-6.74-0.522-8.39-3.933c-2.011-4.157-1.97-8.481-0.066-12.656
		c1.529-3.353,4.02-4.68,7.288-4.27c3.254,0.409,4.313,2.692,4.66,5.557c0.056,0.46,0.049,1.036,0.653,1.062
		c0.63,0.025,0.637-0.523,0.666-1.005c0.106-1.712,0.206-3.426,0.357-5.134c0.063-0.726-0.047-1.118-0.895-1.275
		c-4.771-0.888-9.468-0.88-13.281,2.524c-3.873,3.457-4.831,8.117-3.907,13.068c0.641,3.428,2.549,5.955,6.219,6.832
		c3.708,0.885,7.267,0.335,10.816-0.765c0.85-0.263,1.287-0.664,1.282-1.642c-0.011-2.103,0.11-4.206,0.16-6.31
		c0.012-0.517,0.192-1.272-0.579-1.301C364.001,94.139,361.883,94.188,359.582,94.188z M159.909,100.377
		c-0.212,3.475-0.207,3.442,3.119,4.04c1.711,0.307,3.375,0.351,5.099,0.011c2.87-0.565,5.275-1.695,5.948-4.809
		c0.688-3.18-1.185-5.133-3.627-6.704c-1.834-1.18-3.702-2.313-5.486-3.564c-1.517-1.063-1.912-2.602-1.38-4.352
		c0.527-1.738,1.915-2.396,3.552-2.586c1.759-0.202,2.983,0.66,3.785,2.184c0.552,1.047,0.861,2.161,0.901,3.347
		c0.016,0.464-0.037,1.009,0.64,1.007c0.633-0.001,0.675-0.513,0.718-0.991c0.152-1.708,0.298-3.417,0.472-5.122
		c0.069-0.685-0.215-0.916-0.877-1.061c-3.213-0.702-6.384-0.702-9.367,0.79c-3.335,1.669-4.106,5.685-1.653,8.48
		c0.809,0.922,1.854,1.665,2.875,2.366c1.667,1.146,3.458,2.114,5.091,3.302c1.183,0.859,1.928,2.12,1.512,3.656
		c-0.438,1.611-1.515,2.666-3.198,3.076c-2.589,0.632-5.109-0.819-6.223-3.351c-0.427-0.97,0.327-2.993-1.182-2.781
		C159.21,97.515,160.447,99.491,159.909,100.377z M270.615,82.056c2.923,1.47,2.924,1.47,2.926,4.934
		c0.002,4.13-0.102,8.264,0.044,12.388c0.079,2.25-0.139,3.992-2.872,4.18c-0.032,0.001-0.046,0.271-0.083,0.51
		c3.475,0,6.921,0,10.369,0c0.003-0.52-0.182-0.664-0.386-0.698c-3.986-0.681-3.987-0.678-3.996-4.812
		c-0.002-0.935,0.098-1.884-0.026-2.802c-0.205-1.521,0.456-1.867,1.834-1.749c2.211,0.19,4.348-0.275,6.352-1.199
		c2.466-1.139,3.867-3.685,3.565-6.267c-0.289-2.472-1.617-4.091-4.347-4.488C279.559,81.405,275.087,82.036,270.615,82.056z
		 M254.636,104.077c-1.643-1.49-3.951,0.21-4.623-2.016c-0.481-1.597-0.194-3.261-0.249-4.895c-0.018-0.546,0.059-1.102-0.015-1.638
		c-0.171-1.258,0.38-1.629,1.567-1.519c2.134,0.198,4.205-0.197,6.182-0.974c2.911-1.144,4.462-3.924,3.949-6.917
		c-0.444-2.597-2.326-4.147-5.616-4.266c-3.661-0.131-7.33-0.046-10.995-0.028c-0.394,0.002-0.983-0.247-1.136,0.842
		c1.466,0.098,3.122,0.176,3.102,2.348c-0.052,5.387-0.02,10.774-0.01,16.162c0.002,1.318-0.574,2.044-1.946,2.083
		c-0.43,0.013-0.981-0.072-1.093,0.816C247.232,104.077,250.686,104.077,254.636,104.077z M307.482,82.048
		c-3.726-0.498-8.777-0.29-9.915,0.359c2.749,0.913,2.75,0.913,2.752,4.18c0.003,3.665,0.064,7.331-0.02,10.994
		c-0.058,2.492,1.156,5.604-2.726,6.41c3.101,0,6.203,0,9.305,0c-3.246-1.298-3.246-1.298-3.246-5.01
		c0.001-4.132,0.102-8.269-0.038-12.396c-0.081-2.421,0.156-4.236,3.245-3.854C306.96,82.746,307.118,82.445,307.482,82.048z"/>
	<path fill-rule="evenodd" clip-rule="evenodd" fill="#FFFFFF" d="M98.248,76.658c-1.085,2.842-3.343,4.832-5.218,7.085
		c-10.657,12.818-23.345,23.049-38.663,29.798c-8.343,3.676-16.993,5.96-26.272,5.392c-7.242-0.444-10.76-3.97-12.219-11.229
		c-1.712-8.52,0.227-16.733,3.062-24.779c1.661-4.713,3.622-9.292,6.042-13.658c0.85-1.534,0.673-2.187-1.072-2.763
		c-6.839-2.258-12.974-5.762-18.039-10.945c-7.328-7.499-7.784-15.961-1.425-24.74c6.272-8.661,14.825-14.444,24.328-18.885
		C44.955,4.37,61.94,0.087,79.904,0.434c5.929,0.114,11.823,0.91,17.597,2.344c1.344,0.334,2.553,0.277,3.888-0.065
		c5.509-1.412,11.017-2.907,16.79-2.692c0.361,0.014,0.786-0.125,1.317,0.623c-4.656,1.38-9.178,2.721-14.217,4.215
		c4.427,2.212,8.738,3.751,12.348,6.872c-3.159-0.449-6.324-0.861-9.476-1.36c-3.387-0.535-6.753-1.204-10.145-1.708
		c-1.232-0.183-2.417,0.204-3.532,0.864c-15.23,9.009-27.959,20.755-38.367,35.036c-4.08,5.598-8.074,11.25-11.51,17.286
		c-1,1.757-0.298,1.885,1.142,2.012c8.766,0.775,17.459,0.399,26.092-1.393c5.205-1.08,10.335-2.393,15.338-4.197
		c0.563-0.203,1.146-0.544,2.067-0.2c-0.559,0.379-0.972,0.745-1.451,0.97C75.257,64.935,62.253,69.11,48.317,69.851
		c-2.103,0.112-4.215,0.041-6.322,0.055c-0.771,0.005-1.486-0.087-1.907,0.897c-3.016,7.057-5.348,14.212-2.736,21.932
		c1.53,4.521,6.292,9.343,12.162,9.309c11.101-0.063,20.86-3.892,30.042-9.666c6.031-3.793,11.319-8.493,16.28-13.581
		c0.747-0.766,1.331-1.752,2.44-2.111L98.248,76.658z M85.757,8.502c-2.951-0.607-5.796,0.029-8.653,0.248
		c-14.77,1.129-28.487,5.353-40.483,14.3c-6.175,4.606-11.305,10.125-13.489,17.77c-1.691,5.922-1.115,11.501,3.487,16.037
		c3.164,3.119,3.649,2.978,6.096-0.618c0.132-0.193,0.25-0.396,0.383-0.589C43.154,41,55.222,28.282,69.653,17.887
		C74.689,14.259,80.185,11.347,85.757,8.502z"/>
	<path fill-rule="evenodd" clip-rule="evenodd" fill="#FFFFFF" d="M128.941,45.892c1.542,1.025,3.252,0.712,4.789,1.2
		c4.46,1.416,6.804,4.332,6.784,8.661c-0.02,4.406-2.679,7.876-6.977,9.141c-4.359,1.283-8.821,0.699-13.247,0.749
		c-2.805,0.031-5.61,0.027-8.415,0.001c-0.617-0.006-1.543,0.421-1.632-0.715c-0.086-1.112,0.787-0.979,1.464-0.929
		c2.329,0.167,3.005-1.192,3.005-3.189c0.001-9.284-0.032-18.567,0.019-27.85c0.011-2.126-1.021-2.95-2.969-3.033
		c-0.641-0.028-1.556,0.293-1.52-0.86c0.033-1.036,0.894-0.666,1.423-0.667c5.46-0.023,10.924-0.145,16.377,0.039
		c3.72,0.126,7.423,0.81,9.347,4.63C140.403,39.053,136.512,45.042,128.941,45.892z M120.093,54.877c0,0.937,0,1.875,0,2.812
		s-0.041,1.876,0.003,2.812c0.139,2.965,0.744,3.528,3.651,3.565c1.729,0.022,3.441-0.091,5.096-0.602
		c4.076-1.26,6.144-4.27,5.864-8.466c-0.277-4.154-2.572-6.697-6.73-7.518c-2.171-0.429-4.361-0.218-6.542-0.304
		c-1.028-0.041-1.373,0.388-1.354,1.373C120.122,50.659,120.093,52.768,120.093,54.877z M120.092,37.66
		c0,2.178,0.013,4.356-0.006,6.535c-0.007,0.787,0.102,1.338,1.102,1.37c3.012,0.093,5.929-0.171,8.42-2.087
		c2.341-1.8,3.414-4.208,3.03-7.152c-0.38-2.918-2.163-4.71-4.86-5.704c-1.854-0.684-3.751-0.911-5.724-0.823
		c-1.386,0.062-2.135,0.394-1.998,2.031C120.218,33.76,120.094,35.715,120.092,37.66z"/>
	<path fill-rule="evenodd" clip-rule="evenodd" fill="#FFFFFF" d="M359.963,46.417c3.408,0.61,5.136,2.854,6.412,5.512
		c1.314,2.738,2.483,5.545,3.742,8.31c0.938,2.057,2.037,3.948,4.759,3.749c0.588-0.043,0.841,0.208,0.867,0.789
		c0.032,0.695-0.26,0.977-0.957,0.961c-2.337-0.051-4.676-0.128-7.013-0.085c-1.13,0.021-1.178-0.811-1.465-1.486
		c-1.554-3.655-2.956-7.383-4.68-10.956c-1.641-3.402-3.79-6.323-8.279-6.071c-1.322,0.074-1.739,0.431-1.716,1.746
		c0.069,3.902-0.017,7.808,0.035,11.71c0.039,2.899,0.547,3.307,3.458,3.414c0.689,0.025,1.928-0.624,1.848,0.932
		c-0.069,1.368-1.132,0.714-1.777,0.718c-4.056,0.026-8.112,0.004-12.168-0.015c-0.572-0.003-1.359,0.287-1.426-0.694
		c-0.075-1.108,0.79-1.04,1.456-0.949c2.559,0.348,3.131-1.262,3.139-3.243c0.042-9.369,0.02-18.736,0.032-28.104
		c0.003-1.94-1.099-2.515-2.845-2.601c-0.616-0.03-1.822,0.315-1.761-0.93c0.064-1.285,1.185-0.706,1.829-0.711
		c5.541-0.044,11.086-0.14,16.623,0.008c5.233,0.14,8.771,3.956,8.535,8.871c-0.175,3.627-2.599,6.726-6.214,8.008
		C361.692,45.553,360.856,45.493,359.963,46.417z M351.657,37.782c-0.004,0-0.007,0-0.011,0c0,2.028-0.023,4.056,0.015,6.083
		c0.011,0.552-0.207,1.199,0.713,1.464c3.789,1.091,9.498-2.258,10.292-6.104c1.22-5.898-2.274-9.506-8.703-9.208
		c-1.778,0.083-2.521,0.496-2.342,2.386C351.79,34.181,351.657,35.988,351.657,37.782z"/>
	<path fill-rule="evenodd" clip-rule="evenodd" fill="#FFFFFF" d="M381.709,46.881c0-4.062,0.001-8.123,0-12.184
		c-0.002-3.776,0.002-3.797-3.633-4.727c-0.599-0.153-1.041-0.251-0.978-0.981c0.062-0.706,0.599-0.598,1.038-0.597
		c6.636,0.021,13.296-0.29,19.901,0.175c6.613,0.467,10.931,4.593,12.512,11.157c1.617,6.72,0.987,13.261-2.92,19.09
		c-3.851,5.744-9.92,6.912-16.293,6.915c-4.212,0.001-8.422-0.333-12.641-0.12c-0.59,0.03-1.561,0.436-1.574-0.758
		c-0.013-1.137,0.91-0.885,1.543-0.848c2.044,0.119,2.857-1.002,2.871-2.837c0.035-4.761,0.012-9.523,0.012-14.285
		C381.602,46.881,381.655,46.881,381.709,46.881z M387.064,46.204c-0.024,0-0.049,0-0.074,0c0,4.834-0.038,9.668,0.024,14.501
		c0.018,1.365-0.014,3.083,1.886,3.263c5.823,0.551,12.395-0.947,15.116-8.242c1.761-4.721,2.098-9.566,1.147-14.48
		c-1.341-6.934-4.318-10.314-10.088-11.297c-1.977-0.336-4.045-0.093-6.062-0.246c-1.566-0.119-1.994,0.529-1.975,2.003
		C387.104,36.538,387.064,41.372,387.064,46.204z"/>
	<path fill-rule="evenodd" clip-rule="evenodd" fill="#FFFFFF" d="M144.599,48.819c-0.027-5.982,1.036-11.226,4.746-15.662
		c4.81-5.751,15.076-7.329,21.387-3.298c2.762,1.764,4.57,4.26,5.418,7.349c2.01,7.327,1.632,14.523-2.019,21.288
		c-4.924,9.125-19.527,10.897-25.805,3.149C145.232,57.828,144.536,53.204,144.599,48.819z M171.606,47.099
		c-0.004-4.659-0.51-8.675-2.281-12.408c-1.477-3.112-3.696-5.491-7.411-5.626c-3.7-0.134-6.614,1.653-8.268,4.802
		c-4.481,8.537-4.791,17.449-0.625,26.092c3.295,6.837,11.31,6.79,15.322,0.282C170.936,56.036,171.471,51.332,171.606,47.099z"/>
	<path fill-rule="evenodd" clip-rule="evenodd" fill="#FFFFFF" d="M258.562,65.638c-3.981,0-7.963,0.023-11.944-0.023
		c-0.63-0.007-1.729,0.575-1.72-0.819c0.008-1.181,0.95-0.831,1.556-0.78c2.126,0.178,2.721-0.979,2.719-2.841
		c-0.014-9.372-0.024-18.743,0.023-28.114c0.011-2.014-0.741-3.098-2.826-3.129c-0.567-0.008-1.379,0.211-1.37-0.78
		c0.013-1.21,0.973-0.749,1.559-0.75c7.496-0.025,14.992,0.009,22.488-0.04c1.294-0.009,1.775,0.254,1.638,1.688
		c-0.262,2.715-0.291,5.453-0.419,8.181c-0.032,0.685,0.116,1.44-0.994,1.46c-1.098,0.019-0.99-0.684-1.033-1.401
		c-0.069-1.166-0.121-2.342-0.323-3.488c-0.353-2.001-1.512-3.404-3.473-4.029c-2.959-0.944-5.988-0.862-9.033-0.544
		c-0.798,0.083-1.054,0.461-1.053,1.21c0,4.452,0,8.903-0.051,13.354c-0.011,0.929,0.329,1.236,1.218,1.209
		c1.404-0.043,2.812,0.014,4.217-0.017c3.441-0.073,3.712-0.252,4.539-3.578c0.2-0.806,0.564-1.003,1.278-0.973
		c0.943,0.039,0.901,0.701,0.851,1.333c-0.227,2.807-0.251,5.611,0.006,8.418c0.06,0.649,0.043,1.26-0.874,1.321
		c-0.957,0.063-1.215-0.427-1.198-1.271c0.045-2.275-1.303-3.052-3.359-3.354c-6.667-0.979-6.664-1.021-6.66,5.62
		c0.001,2.265-0.042,4.531,0.04,6.793c0.103,2.851,0.893,3.625,3.695,3.616c1.712-0.005,3.433-0.101,5.134-0.296
		c4.379-0.501,5.929-2.214,6.188-6.692c0.036-0.624,0.073-1.25,0.051-1.872c-0.028-0.796,0.322-1.152,1.109-1.125
		c0.661,0.022,0.974,0.327,0.997,1.009c0.108,3.276,0.24,6.551,0.366,9.826c0.052,1.351-0.924,0.942-1.634,0.944
		c-3.902,0.008-7.804,0.004-11.706,0.004C258.563,65.684,258.563,65.661,258.562,65.638z"/>
	<path fill-rule="evenodd" clip-rule="evenodd" fill="#FFFFFF" d="M331.508,65.638c-2.186,0-4.37,0.008-6.556-0.006
		c-0.503-0.003-1.148,0.19-1.213-0.668c-0.066-0.913,0.511-1,1.198-0.979c0.391,0.012,0.781,0.009,1.172,0.001
		c2.981-0.064,3.782-1.111,2.899-3.994c-0.891-2.906-1.985-5.751-2.798-8.677c-0.358-1.29-1.124-1.574-2.193-1.585
		c-3.045-0.032-6.091-0.018-9.136-0.033c-1.059-0.005-1.697,0.417-2.083,1.477c-1.095,3.004-2.385,5.937-3.432,8.956
		c-0.936,2.701-0.095,3.754,2.793,3.856c0.39,0.014,0.781-0.006,1.171,0.005c0.531,0.015,0.892,0.229,0.913,0.821
		c0.026,0.727-0.372,0.917-1.03,0.913c-3.509-0.023-7.018-0.028-10.526-0.025c-0.494,0-0.968,0.012-1.049-0.619
		c-0.077-0.609,0.063-1.041,0.813-1.128c1.995-0.231,2.801-1.765,3.564-3.344c4.924-10.179,9.295-20.599,13.48-31.096
		c0.588-1.474,1.325-1.971,2.896-1.95c1.656,0.022,1.602,1.154,1.879,2.152c3.027,10.902,7.062,21.454,11.074,32.015
		c0.525,1.38,1.334,2.256,2.897,2.253c0.604-0.001,1.344-0.122,1.349,0.836c0.005,1.191-0.922,0.809-1.53,0.819
		c-2.185,0.036-4.37,0.014-6.555,0.014C331.507,65.646,331.508,65.643,331.508,65.638z M319.877,33.221
		c-1.87,4.837-3.474,9.036-5.125,13.215c-0.403,1.023-0.126,1.418,0.934,1.408c2.641-0.024,5.282-0.064,7.923-0.03
		c1.076,0.014,1.147-0.437,0.854-1.282C322.997,42.31,321.549,38.081,319.877,33.221z"/>
	<path fill-rule="evenodd" clip-rule="evenodd" fill="#FFFFFF" d="M184.805,45.85c0-4.061-0.027-8.121,0.012-12.181
		c0.021-2.143-0.468-3.716-3.077-3.624c-0.548,0.02-1.354,0.015-1.351-0.916c0.004-1.039,0.821-0.733,1.367-0.736
		c4.216-0.022,8.432-0.027,12.648-0.001c0.528,0.003,1.337-0.35,1.386,0.705c0.047,1.019-0.699,0.806-1.286,0.853
		c-4.336,0.354-4.414,0.438-4.414,4.707c0,7.028-0.006,14.056,0.001,21.083c0.003,3.246,0.509,6.398,3.71,8.032
		c3.437,1.754,7.021,1.334,10.345-0.441c2.347-1.253,3.211-3.586,3.232-6.114c0.067-7.964,0.064-15.929,0.016-23.894
		c-0.017-2.756-0.729-3.265-3.853-3.409c-0.65-0.03-1.79,0.536-1.787-0.783c0.003-1.368,1.167-0.704,1.78-0.716
		c3.2-0.063,6.401-0.032,9.602-0.004c0.54,0.005,1.328-0.367,1.403,0.679c0.071,1-0.714,0.827-1.276,0.933
		c-3.498,0.663-3.601,0.658-3.64,4.34c-0.076,7.183-0.016,14.368-0.032,21.551c-0.015,6.556-2.538,9.415-9.012,10.242
		c-2.964,0.378-5.922,0.345-8.856-0.26c-4.572-0.942-6.886-3.721-6.914-8.333C184.786,53.658,184.804,49.754,184.805,45.85z"/>
	<path fill-rule="evenodd" clip-rule="evenodd" fill="#FFFFFF" d="M292.111,60.109c1.584-4.393,3.149-8.676,4.674-12.973
		c1.512-4.259,3.057-8.509,4.448-12.809c1.09-3.37,0.46-4.138-3.086-4.402c-0.588-0.044-1.578,0.457-1.611-0.715
		c-0.04-1.402,1.102-0.778,1.716-0.792c2.81-0.066,5.622-0.045,8.433-0.02c0.486,0.005,1.162-0.304,1.395,0.446
		c0.241,0.778-0.263,1.094-0.904,1.362c-1.944,0.812-2.53,2.723-3.211,4.404c-2.891,7.15-5.68,14.342-8.442,21.543
		c-1.089,2.837-2.089,5.715-2.977,8.62c-0.394,1.287-1.003,1.656-2.318,1.654c-1.349-0.003-1.874-0.459-2.255-1.731
		c-3.021-10.077-6.113-20.132-9.207-30.188c-0.648-2.107-1.28-4.282-4.066-4.485c-0.59-0.043-0.741-0.442-0.722-0.982
		c0.025-0.68,0.475-0.674,0.964-0.673c4.374,0.01,8.748,0.013,13.121,0.023c0.454,0,0.963-0.084,1.017,0.621
		c0.058,0.759-0.39,0.836-1.005,0.939c-4.884,0.818-4.896,0.836-3.49,5.692c2.21,7.637,4.438,15.269,6.669,22.899
		C291.396,59.037,291.368,59.635,292.111,60.109z"/>
	<path fill-rule="evenodd" clip-rule="evenodd" fill="#FFFFFF" d="M229.676,65.668c-3.98,0-7.961,0.005-11.942-0.005
		c-0.571-0.001-1.35,0.31-1.453-0.666c-0.116-1.093,0.688-1.076,1.398-1.003c2.897,0.295,3.185-1.719,3.208-3.756
		c0.075-6.479,0.056-12.96,0.07-19.441c0.005-2.577-0.021-5.154,0.012-7.73c0.023-1.816-0.493-2.998-2.626-3.002
		c-0.687-0.001-2.046,0.403-2.02-0.89c0.032-1.628,1.47-0.724,2.174-0.741c4.37-0.105,8.743-0.063,13.114-0.036
		c0.545,0.003,1.396-0.338,1.474,0.631c0.091,1.13-0.815,0.872-1.48,0.906c-5.362,0.276-5.362,0.277-5.362,5.639
		c0.001,8.121-0.004,16.241,0.004,24.362c0.004,3.449,0.637,4.06,4.118,4.046c0.233-0.001,0.468-0.018,0.702-0.023
		c8.074-0.197,9.629-1.699,10.081-9.728c0.041-0.723-0.275-1.653,1.042-1.59c1.145,0.054,0.875,0.869,0.891,1.52
		c0.078,3.355,0.106,6.712,0.224,10.066c0.04,1.116-0.292,1.467-1.449,1.445c-4.059-0.076-8.118-0.029-12.178-0.029
		C229.676,65.651,229.676,65.66,229.676,65.668z"/>
	<path fill-rule="evenodd" clip-rule="evenodd" fill="#FFFFFF" d="M192.454,104.08c-3.066,0-6.132,0-9.197,0
		c3.872-0.936,2.539-4.002,2.615-6.373c0.107-3.354,0.051-6.714,0.019-10.07c-0.021-2.224,0.942-4.968-2.664-5.642
		c3.067,0,6.135,0,9.232,0c-0.056,0.3-0.054,0.557-0.113,0.571c-3.206,0.792-3.206,0.79-3.234,4.428
		c-0.042,5.399-0.042,5.399,5.354,5.401c5.033,0.002,5.033,0.002,5.039-5.026c0-0.546-0.04-1.097,0.007-1.639
		c0.172-1.991-0.449-3.203-2.721-2.94c-0.252,0.028-0.532-0.185-0.763-0.707c3.3,0,6.599,0,9.896,0c0,0.183,0.003,0.318,0,0.318
		c-3.724,0.152-3.218,2.842-3.2,5.276c0.027,3.669-0.016,7.339,0.016,11.008c0.019,2.203-0.893,4.974,3.457,4.778
		c-0.2,0.201-0.399,0.402-0.599,0.604c-3.182,0-6.363,0-9.62,0c0.113-0.334,0.138-0.582,0.209-0.596
		c3.279-0.634,3.279-0.632,3.319-4.152c0.065-5.749,0.065-5.749-5.624-5.751c-4.767-0.001-4.767-0.001-4.764,4.729
		c0,0.234-0.015,0.47,0.001,0.702C189.424,103.279,188.342,102.639,192.454,104.08z"/>
	<path fill-rule="evenodd" clip-rule="evenodd" fill="#FFFFFF" d="M320.864,86.485c0,5.081,0.046,10.062-0.021,15.039
		c-0.031,2.375,2.179,1.355,3.649,2.501c-3.074,0-5.613,0-8.152,0c3.78-0.615,3.125-3.359,3.022-5.891
		c-0.147-3.659-0.187-7.324-0.286-10.985c-0.056-2.035,0.76-4.535-3.271-4.664c4.231-1.396,6.182-0.783,8.073,1.909
		c3.391,4.827,6.832,9.619,10.534,14.822c0-5.338,0.059-10.17-0.039-14.999c-0.025-1.292-1.193-1.439-2.288-1.42
		c-0.385,0.007-0.803-0.136-0.675-0.687c0.093-0.406,0.448-0.356,0.754-0.357c2.22-0.001,4.438-0.001,6.693-0.001
		c-0.06,0.5-0.075,0.771-0.094,0.771c-2.998,0.047-3.054,2.029-2.989,4.288c0.153,5.456,0.193,10.916,0.245,16.374
		c0.006,0.641,0.359,1.568-0.543,1.82c-0.733,0.205-0.958-0.676-1.306-1.137c-4.032-5.356-8.033-10.736-12.058-16.099
		C321.762,87.3,321.549,86.66,320.864,86.485z"/>
	<path fill-rule="evenodd" clip-rule="evenodd" fill="#FFFFFF" d="M234.74,92.115c0.104,2.798-0.529,5.417-1.925,7.843
		c-2.679,4.658-10.028,6.461-14.081,3.112c-4.442-3.67-4.245-8.748-3.091-13.792c1.024-4.477,4.28-7.328,8.545-7.844
		C230.881,80.625,234.757,84.547,234.74,92.115z M218.56,92.769c0,2.375,0.044,4.412,0.785,6.332
		c0.935,2.424,2.232,4.524,5.215,4.66c2.344,0.107,4.554-1.578,5.576-4.561c1.482-4.329,1.504-8.75-0.042-13.068
		c-0.729-2.035-2.013-3.756-4.491-3.871c-2.571-0.12-4.264,1.268-5.396,3.412C218.983,87.991,218.503,90.499,218.56,92.769z"/>
	<path fill-rule="evenodd" clip-rule="evenodd" fill="#FFFFFF" d="M359.582,94.188c2.301,0,4.419-0.05,6.533,0.026
		c0.771,0.028,0.591,0.784,0.579,1.301c-0.05,2.104-0.171,4.207-0.16,6.31c0.005,0.978-0.433,1.379-1.282,1.642
		c-3.55,1.1-7.108,1.649-10.816,0.765c-3.67-0.877-5.578-3.404-6.219-6.832c-0.924-4.951,0.034-9.611,3.907-13.068
		c3.813-3.404,8.511-3.412,13.281-2.524c0.848,0.157,0.958,0.55,0.895,1.275c-0.151,1.708-0.251,3.422-0.357,5.134
		c-0.029,0.481-0.036,1.03-0.666,1.005c-0.604-0.025-0.598-0.602-0.653-1.062c-0.347-2.864-1.406-5.147-4.66-5.557
		c-3.269-0.41-5.759,0.917-7.288,4.27c-1.903,4.175-1.944,8.499,0.066,12.656c1.649,3.41,4.707,4.689,8.39,3.933
		c1.327-0.272,2.07-0.977,2.274-2.293c0.243-1.562,0.014-3.104-0.199-4.647c-0.129-0.94-0.748-1.248-1.604-1.4
		C360.99,95.012,360.171,95.524,359.582,94.188z"/>
	<path fill-rule="evenodd" clip-rule="evenodd" fill="#FFFFFF" d="M159.909,100.377c0.538-0.886-0.699-2.862,0.718-3.062
		c1.509-0.212,0.755,1.812,1.182,2.781c1.114,2.531,3.634,3.982,6.223,3.351c1.684-0.41,2.76-1.465,3.198-3.076
		c0.417-1.536-0.329-2.797-1.512-3.656c-1.633-1.188-3.424-2.156-5.091-3.302c-1.021-0.701-2.066-1.444-2.875-2.366
		c-2.453-2.796-1.682-6.812,1.653-8.48c2.983-1.492,6.153-1.492,9.367-0.79c0.662,0.145,0.946,0.376,0.877,1.061
		c-0.174,1.705-0.32,3.414-0.472,5.122c-0.043,0.479-0.085,0.99-0.718,0.991c-0.677,0.002-0.624-0.543-0.64-1.007
		c-0.041-1.186-0.35-2.3-0.901-3.347c-0.802-1.523-2.026-2.386-3.785-2.184c-1.637,0.189-3.025,0.848-3.552,2.586
		c-0.531,1.75-0.137,3.288,1.38,4.352c1.785,1.251,3.652,2.385,5.486,3.564c2.442,1.571,4.315,3.524,3.627,6.704
		c-0.673,3.113-3.079,4.243-5.948,4.809c-1.724,0.34-3.388,0.296-5.099-0.011C159.703,103.819,159.697,103.852,159.909,100.377z"/>
	<path fill-rule="evenodd" clip-rule="evenodd" fill="#FFFFFF" d="M270.615,82.056c4.472-0.02,8.943-0.65,13.38-0.005
		c2.729,0.397,4.058,2.017,4.347,4.488c0.302,2.582-1.1,5.128-3.565,6.267c-2.004,0.924-4.141,1.39-6.352,1.199
		c-1.378-0.118-2.039,0.228-1.834,1.749c0.124,0.918,0.024,1.867,0.026,2.802c0.009,4.135,0.01,4.132,3.996,4.812
		c0.204,0.034,0.389,0.179,0.386,0.698c-3.448,0-6.895,0-10.369,0c0.037-0.238,0.051-0.509,0.083-0.51
		c2.733-0.188,2.951-1.93,2.872-4.18c-0.146-4.124-0.042-8.258-0.044-12.388C273.539,83.525,273.538,83.525,270.615,82.056z
		 M276.61,87.843c0.004,0,0.008,0,0.012,0c0,1.327-0.009,2.655,0.006,3.982c0.005,0.526-0.11,1.22,0.681,1.248
		c2.14,0.077,4.237-0.089,5.908-1.674c1.58-1.498,1.89-3.401,1.416-5.392c-0.538-2.267-3.713-3.765-6.835-3.188
		c-2.385,0.44-0.715,2.426-1.163,3.626C276.481,86.856,276.61,87.374,276.61,87.843z"/>
	<path fill-rule="evenodd" clip-rule="evenodd" fill="#FFFFFF" d="M254.636,104.077c-3.95,0-7.403,0-10.883,0
		c0.111-0.889,0.663-0.804,1.093-0.816c1.372-0.039,1.948-0.765,1.946-2.083c-0.01-5.388-0.042-10.775,0.01-16.162
		c0.021-2.172-1.636-2.25-3.102-2.348c0.152-1.089,0.742-0.84,1.136-0.842c3.665-0.018,7.334-0.103,10.995,0.028
		c3.29,0.118,5.172,1.669,5.616,4.266c0.513,2.993-1.038,5.773-3.949,6.917c-1.977,0.776-4.048,1.172-6.182,0.974
		c-1.188-0.11-1.738,0.261-1.567,1.519c0.073,0.536-0.003,1.092,0.015,1.638c0.055,1.634-0.232,3.298,0.249,4.895
		C250.685,104.287,252.993,102.587,254.636,104.077z M249.765,87.981c0,1.248,0.001,2.495-0.001,3.742
		c0,0.624-0.095,1.312,0.825,1.369c4.094,0.259,7.749-1.521,7.426-6.189c-0.193-2.8-2.663-4.302-6.53-4.141
		c-3.121,0.129-1.207,2.521-1.7,3.825C249.629,86.997,249.76,87.514,249.765,87.981z"/>
	<path fill-rule="evenodd" clip-rule="evenodd" fill="#FFFFFF" d="M307.482,82.048c-0.364,0.397-0.522,0.698-0.643,0.684
		c-3.089-0.383-3.326,1.433-3.245,3.854c0.14,4.128,0.039,8.265,0.038,12.396c0,3.712,0,3.712,3.246,5.01c-3.102,0-6.204,0-9.305,0
		c3.882-0.806,2.668-3.918,2.726-6.41c0.084-3.663,0.022-7.329,0.02-10.994c-0.002-3.267-0.003-3.267-2.752-4.18
		C298.705,81.758,303.757,81.55,307.482,82.048z"/>
	<path fill-rule="evenodd" clip-rule="evenodd" fill="#79C049" d="M98.275,76.686c0.022-0.069,0.032-0.146,0.072-0.203
		c0.022-0.03,0.096-0.023,0.147-0.033c-0.082,0.069-0.164,0.139-0.246,0.208L98.275,76.686z"/>
	<path fill-rule="evenodd" clip-rule="evenodd" fill="none" d="M85.757,8.502c-5.572,2.845-11.068,5.757-16.104,9.385
		C55.222,28.282,43.154,41,33.099,55.649c-0.133,0.193-0.251,0.396-0.383,0.589c-2.447,3.596-2.932,3.737-6.096,0.618
		c-4.602-4.536-5.178-10.115-3.487-16.037c2.184-7.644,7.314-13.164,13.489-17.77c11.996-8.947,25.713-13.171,40.483-14.3
		C79.961,8.531,82.806,7.895,85.757,8.502z"/>
	<path fill-rule="evenodd" clip-rule="evenodd" fill="none" d="M120.093,54.877c0-2.109,0.029-4.218-0.012-6.327
		c-0.019-0.985,0.326-1.414,1.354-1.373c2.181,0.086,4.371-0.125,6.542,0.304c4.158,0.821,6.454,3.363,6.73,7.518
		c0.28,4.196-1.788,7.206-5.864,8.466c-1.654,0.511-3.367,0.625-5.096,0.602c-2.907-0.038-3.512-0.6-3.651-3.565
		c-0.044-0.935-0.004-1.874-0.003-2.812S120.093,55.814,120.093,54.877z"/>
	<path fill-rule="evenodd" clip-rule="evenodd" fill="none" d="M120.093,37.66c0.001-1.945,0.125-3.9-0.037-5.832
		c-0.137-1.637,0.611-1.969,1.998-2.031c1.973-0.087,3.871,0.14,5.724,0.823c2.697,0.994,4.479,2.786,4.86,5.704
		c0.384,2.945-0.689,5.352-3.03,7.152c-2.491,1.916-5.409,2.18-8.42,2.087c-1-0.031-1.109-0.583-1.102-1.37
		C120.104,42.016,120.092,39.838,120.093,37.66z"/>
	<path fill-rule="evenodd" clip-rule="evenodd" fill="none" d="M351.657,37.782c0-1.794,0.133-3.601-0.036-5.379
		c-0.18-1.89,0.563-2.303,2.342-2.386c6.429-0.297,9.923,3.31,8.703,9.208c-0.794,3.845-6.503,7.195-10.292,6.104
		c-0.92-0.265-0.702-0.913-0.713-1.464c-0.038-2.027-0.015-4.055-0.015-6.083C351.65,37.782,351.653,37.782,351.657,37.782z"/>
	<path fill-rule="evenodd" clip-rule="evenodd" fill="none" d="M387.064,46.204c0-4.833,0.04-9.667-0.024-14.499
		c-0.02-1.474,0.408-2.123,1.975-2.003c2.017,0.153,4.085-0.09,6.062,0.246c5.77,0.983,8.747,4.363,10.088,11.297
		c0.95,4.914,0.613,9.759-1.147,14.48c-2.722,7.294-9.293,8.792-15.116,8.242c-1.899-0.18-1.868-1.897-1.886-3.263
		c-0.062-4.833-0.024-9.667-0.024-14.501C387.016,46.204,387.04,46.204,387.064,46.204z"/>
	<path fill-rule="evenodd" clip-rule="evenodd" fill="none" d="M171.606,47.099c-0.136,4.233-0.671,8.937-3.263,13.143
		c-4.012,6.507-12.026,6.555-15.322-0.282c-4.166-8.643-3.855-17.555,0.625-26.092c1.653-3.149,4.567-4.937,8.268-4.802
		c3.715,0.135,5.934,2.514,7.411,5.626C171.097,38.424,171.602,42.44,171.606,47.099z"/>
	<path fill-rule="evenodd" clip-rule="evenodd" fill="none" d="M319.877,33.221c1.672,4.859,3.12,9.088,4.586,13.311
		c0.293,0.845,0.222,1.296-0.854,1.282c-2.641-0.034-5.282,0.006-7.923,0.03c-1.06,0.01-1.337-0.385-0.934-1.408
		C316.403,42.257,318.007,38.058,319.877,33.221z"/>
	<path fill-rule="evenodd" clip-rule="evenodd" fill="none" d="M218.56,92.769c-0.056-2.27,0.424-4.777,1.647-7.096
		c1.132-2.145,2.824-3.532,5.396-3.412c2.479,0.115,3.763,1.836,4.491,3.871c1.546,4.318,1.524,8.739,0.042,13.068
		c-1.022,2.982-3.232,4.668-5.576,4.561c-2.982-0.136-4.28-2.236-5.215-4.66C218.604,97.181,218.56,95.144,218.56,92.769z"/>
	<path fill-rule="evenodd" clip-rule="evenodd" fill="none" d="M276.61,87.843c0-0.469-0.129-0.986,0.024-1.397
		c0.448-1.2-1.222-3.186,1.163-3.626c3.122-0.576,6.297,0.922,6.835,3.188c0.474,1.99,0.164,3.894-1.416,5.392
		c-1.671,1.585-3.769,1.751-5.908,1.674c-0.791-0.028-0.676-0.722-0.681-1.248c-0.015-1.327-0.006-2.655-0.006-3.982
		C276.618,87.843,276.614,87.843,276.61,87.843z"/>
	<path fill-rule="evenodd" clip-rule="evenodd" fill="none" d="M249.763,87.981c-0.003-0.468-0.134-0.984,0.021-1.394
		c0.493-1.304-1.421-3.696,1.7-3.825c3.867-0.161,6.337,1.341,6.53,4.141c0.323,4.668-3.332,6.448-7.426,6.189
		c-0.92-0.058-0.825-0.745-0.825-1.369C249.766,90.477,249.765,89.229,249.763,87.981z"/>
</g>
</svg>
