<?xml version="1.0" encoding="utf-8"?>
<!-- Generator: Adobe Illustrator 16.0.0, SVG Export Plug-In . SVG Version: 6.00 Build 0)  -->
<!DOCTYPE svg PUBLIC "-//W3C//DTD SVG 1.1//EN" "http://www.w3.org/Graphics/SVG/1.1/DTD/svg11.dtd">
<svg version="1.1" id="Layer_1" xmlns="http://www.w3.org/2000/svg" xmlns:xlink="http://www.w3.org/1999/xlink" x="0px" y="0px"
	 width="438.928px" height="267.215px" viewBox="0 0 438.928 267.215" enable-background="new 0 0 438.928 267.215"
	 xml:space="preserve">
<g>
	<g>
		<g>
			<path fill="#0D6073" d="M1.22,71.752c2.078,1.714,4.362,3.333,6.851,4.852c2.486,1.522,5.181,2.841,8.079,3.959
				c2.897,1.107,6.018,1.988,9.356,2.614c3.347,0.631,6.947,0.95,10.81,0.95c4.755,0,9.085-0.5,12.979-1.51
				c3.907-0.998,7.247-2.538,10.03-4.615c2.79-2.083,4.957-4.743,6.518-7.968c1.564-3.241,2.343-7.085,2.343-11.537
				c0-4.752-0.95-8.711-2.84-11.87c-1.897-3.157-4.238-5.713-7.022-7.682c-2.787-1.969-5.774-3.459-8.967-4.463
				c-3.198-0.996-6.133-1.761-8.805-2.28c-0.517-0.072-1.709-0.284-3.563-0.615c-1.861-0.334-3.792-0.794-5.793-1.391
				c-2.01-0.593-3.792-1.301-5.353-2.118c-1.562-0.816-2.339-1.743-2.339-2.784c0-1.042,0.314-1.86,0.95-2.451
				c0.625-0.597,1.425-1.026,2.394-1.289c0.962-0.258,1.986-0.406,3.06-0.438c1.08-0.038,2.025-0.061,2.847-0.061
				c2.746,0,5.757,0.499,9.026,1.507c3.264,1.003,6.794,2.699,10.579,5.074c0.599,0.442,1.268,0.597,2.01,0.442
				c0.744-0.153,1.336-0.521,1.781-1.111l8.696-12.371c0.444-0.592,0.629-1.266,0.554-2.007c-0.074-0.741-0.405-1.371-1.005-1.896
				c-4.526-3.49-9.267-6.146-14.201-7.962C45.248,0.91,39.66,0,33.421,0c-3.567,0-7.243,0.384-11.035,1.168
				c-3.786,0.78-7.227,2.156-10.303,4.124c-3.087,1.968-5.63,4.622-7.64,7.966c-2.002,3.345-3.006,7.584-3.006,12.705
				c0,3.492,0.543,6.513,1.621,9.079c1.077,2.561,2.505,4.775,4.289,6.629c1.782,1.859,3.807,3.383,6.072,4.574
				c2.263,1.184,4.553,2.164,6.854,2.948c2.303,0.778,4.549,1.377,6.738,1.781c2.19,0.411,4.108,0.764,5.742,1.064
				c1.705,0.368,3.377,0.664,5.011,0.889c1.632,0.219,3.063,0.521,4.292,0.894c1.223,0.366,2.207,0.828,2.95,1.386
				c0.742,0.561,1.117,1.329,1.117,2.287c0,1.854-0.856,3.247-2.566,4.178c-1.708,0.935-4.196,1.393-7.466,1.393
				c-3.413,0-7.091-0.739-11.029-2.226c-3.936-1.491-7.911-3.525-11.923-6.129c-0.592-0.368-1.265-0.487-2.007-0.335
				c-0.743,0.147-1.336,0.521-1.78,1.113L0.771,67.857c-0.444,0.593-0.632,1.277-0.555,2.062C0.287,70.698,0.621,71.311,1.22,71.752
				z"/>
			<path fill="#0D6073" d="M71.974,21.614h15.824c0.814,0,1.466,0.263,1.947,0.778c0.484,0.521,0.727,1.156,0.727,1.892v55.718
				c0,0.745,0.26,1.377,0.778,1.898c0.52,0.515,1.153,0.773,1.897,0.773h16.713c0.813,0,1.463-0.259,1.951-0.773
				c0.48-0.521,0.721-1.153,0.721-1.898V24.284c0-0.735,0.26-1.37,0.784-1.892c0.517-0.516,1.146-0.778,1.89-0.778h15.604
				c0.811,0,1.465-0.257,1.949-0.772c0.479-0.526,0.725-1.164,0.725-1.903V3.789c0-0.745-0.246-1.376-0.725-1.897
				c-0.484-0.516-1.138-0.778-1.949-0.778H71.974c-0.742,0-1.375,0.263-1.895,0.778c-0.521,0.521-0.781,1.152-0.781,1.897v15.149
				c0,0.739,0.259,1.377,0.781,1.903C70.599,21.357,71.231,21.614,71.974,21.614z"/>
			<path fill="#0D6073" d="M189.14,81.954c0.702,0.481,1.467,0.72,2.284,0.72h19.057c1.188,0,1.984-0.362,2.394-1.115
				c0.409-0.745,0.464-1.445,0.167-2.114L180.509,3.674c-0.3-0.664-0.803-1.244-1.507-1.726c-0.706-0.478-1.43-0.726-2.174-0.726
				h-15.596c-0.822,0-1.581,0.248-2.288,0.726c-0.702,0.481-1.205,1.062-1.505,1.726l-32.31,75.439
				c-0.297,0.593-0.411,1.107-0.336,1.558c0.075,0.445,0.239,0.823,0.503,1.114c0.257,0.296,0.593,0.526,0.998,0.669
				c0.413,0.153,0.8,0.22,1.172,0.22h19.163c0.744,0,1.468-0.238,2.175-0.72c0.703-0.483,1.206-1.064,1.503-1.733l3.122-6.683
				c0.293-0.663,0.796-1.24,1.506-1.728c0.701-0.478,1.464-0.72,2.279-0.72h23.515c0.741,0,1.469,0.242,2.171,0.72
				c0.705,0.487,1.246,1.064,1.617,1.728l3.011,6.683C187.896,80.89,188.433,81.471,189.14,81.954z M175.545,51.425
				c-0.336,0.483-0.871,0.725-1.614,0.725h-9.918c-0.82,0-1.373-0.241-1.669-0.725c-0.3-0.488-0.3-1.062,0-1.727l5.569-13.482
				c0.296-0.669,0.63-1.01,1.004-1.01c0.369,0,0.704,0.341,1.002,1.01c0.893,2.149,1.854,4.468,2.898,6.958
				c1.04,2.494,1.931,4.659,2.673,6.524C175.862,50.362,175.884,50.937,175.545,51.425z"/>
			<path fill="#0D6073" d="M219.297,82.674h16.683c0.752,0,1.387-0.259,1.901-0.773c0.524-0.521,0.79-1.153,0.79-1.898V61.953
				c0-0.741,0.259-1.377,0.776-1.898c0.515-0.516,1.148-0.777,1.889-0.777h2.438c0.733,0,1.517,0.207,2.329,0.614
				c0.806,0.405,1.438,0.904,1.879,1.501c2.291,3.274,4.604,6.504,6.933,9.698c2.33,3.194,4.676,6.351,7.045,9.472
				c0.442,0.592,1.089,1.096,1.95,1.501c0.85,0.406,1.656,0.61,2.393,0.61h20.723c0.748,0,1.229-0.353,1.453-1.055
				c0.224-0.706,0.115-1.348-0.333-1.952c-2.455-3.267-5.236-6.87-8.358-10.811c-3.118-3.932-6.093-7.754-8.917-11.479
				c-0.444-0.591-0.571-1.199-0.388-1.837c0.185-0.63,0.575-1.166,1.172-1.615c1.781-1.114,3.376-2.501,4.793-4.179
				c1.408-1.671,2.634-3.547,3.676-5.624c1.033-2.08,1.841-4.289,2.395-6.624c0.56-2.342,0.835-4.705,0.835-7.08
				c0-4.31-0.728-8.245-2.176-11.81c-1.446-3.568-3.448-6.65-6.015-9.249c-2.559-2.605-5.663-4.628-9.303-6.075
				c-3.64-1.448-7.612-2.172-11.923-2.172h-34.652c-0.746,0-1.377,0.263-1.897,0.778c-0.522,0.521-0.777,1.152-0.777,1.897v76.213
				c0,0.745,0.259,1.377,0.781,1.898C217.915,82.415,218.551,82.674,219.297,82.674z M238.671,24.284
				c0-0.735,0.259-1.37,0.776-1.892c0.515-0.516,1.148-0.778,1.884-0.778h11.757c1.552,0,2.86,0.312,3.935,0.947
				c1.07,0.626,1.923,1.41,2.549,2.337c0.626,0.938,1.073,1.898,1.329,2.901c0.265,0.996,0.393,1.874,0.393,2.619
				c0,1.41-0.263,2.633-0.779,3.675c-0.521,1.042-1.185,1.914-1.996,2.614c-0.816,0.707-1.7,1.229-2.659,1.563
				c-0.961,0.335-1.884,0.505-2.771,0.505h-11.757c-0.735,0-1.369-0.265-1.884-0.784c-0.518-0.522-0.776-1.146-0.776-1.892V24.284z"
				/>
			<path fill="#0D6073" d="M291.266,21.614h15.822c0.812,0,1.465,0.263,1.949,0.778c0.48,0.521,0.722,1.156,0.722,1.892v55.718
				c0,0.745,0.261,1.377,0.787,1.898c0.512,0.515,1.145,0.773,1.89,0.773h16.712c0.816,0,1.463-0.259,1.954-0.773
				c0.481-0.521,0.718-1.153,0.718-1.898V24.284c0-0.735,0.262-1.37,0.785-1.892c0.515-0.516,1.145-0.778,1.892-0.778h15.604
				c0.816,0,1.459-0.257,1.951-0.772c0.477-0.526,0.719-1.164,0.719-1.903V3.789c0-0.745-0.242-1.376-0.719-1.897
				c-0.492-0.516-1.135-0.778-1.951-0.778h-58.835c-0.747,0-1.374,0.263-1.894,0.778c-0.524,0.521-0.786,1.152-0.786,1.897v15.149
				c0,0.739,0.262,1.377,0.786,1.903C289.892,21.357,290.519,21.614,291.266,21.614z"/>
			<path fill="#0D6073" d="M240.851,107.428c0-1.15-0.403-2.132-1.207-2.944c-0.803-0.801-1.779-1.201-2.925-1.201h-25.997
				c-1.256,0-2.259,0.4-3.007,1.201c-0.746,0.812-1.119,1.794-1.119,2.944V225.58c0,1.152,0.373,2.141,1.119,2.939
				c0.748,0.812,1.751,1.212,3.007,1.212h25.997c1.146,0,2.122-0.4,2.925-1.212c0.804-0.799,1.207-1.787,1.207-2.939V107.428z"/>
			<path fill="#0D6073" d="M351.647,133.718c0.746-0.793,1.123-1.787,1.123-2.933v-23.527c0-1.157-0.377-2.133-1.123-2.944
				c-0.753-0.8-1.758-1.207-3.021-1.207h-91.344c-1.155,0-2.137,0.407-2.941,1.207c-0.807,0.812-1.213,1.787-1.213,2.944v23.527
				c0,1.146,0.406,2.14,1.213,2.933c0.805,0.818,1.786,1.214,2.941,1.214h24.565c1.269,0,2.278,0.411,3.027,1.211
				c0.745,0.812,1.126,1.788,1.126,2.944v86.493c0,1.152,0.403,2.141,1.209,2.939c0.804,0.812,1.784,1.212,2.94,1.212h25.948
				c1.265,0,2.282-0.4,3.027-1.212c0.746-0.799,1.119-1.787,1.119-2.939v-86.493c0-1.156,0.406-2.133,1.218-2.944
				c0.803-0.8,1.785-1.211,2.939-1.211h24.224C349.89,134.932,350.895,134.536,351.647,133.718z"/>
			<path fill="#F8D80E" d="M437.15,2.052C435.777,0.687,434.038,0,431.935,0H379.16c-2.325,0-4.165,0.687-5.533,2.052
				c-1.372,1.364-1.947,3.213-1.737,5.532l7.902,136.206c0.207,2.106,1.052,3.9,2.533,5.369c1.463,1.48,3.365,2.215,5.685,2.215
				h35.079c2.104,0,3.895-0.734,5.369-2.215c1.47-1.469,2.316-3.263,2.527-5.369l7.9-136.206
				C439.098,5.265,438.512,3.416,437.15,2.052z"/>
			<path fill="#F8D80E" d="M436.992,223.431v-43.617c0-2.314-0.738-4.155-2.211-5.532c-1.474-1.359-3.27-2.045-5.37-2.045H382
				c-2.319,0-4.155,0.686-5.526,2.045c-1.376,1.377-2.057,3.218-2.057,5.532v43.617c0,2.106,0.681,3.898,2.057,5.374
				c1.371,1.476,3.207,2.21,5.526,2.21h47.411c2.101,0,3.896-0.734,5.37-2.21C436.254,227.329,436.992,225.537,436.992,223.431z"/>
			<path fill="#F8D80E" d="M180.78,217.537c0.038-34.345,0.038-68.685,0-103.025c-0.007-7.819-5.376-12.217-14.875-12.226
				c-25.256-0.029-50.515-0.012-75.769-0.012c-25.022,0-50.045-0.018-75.068,0.012c-9.405,0.009-14.835,4.463-14.848,12.253
				c-0.027,34.341-0.027,68.686,0,103.029c0.013,7.776,5.512,12.239,14.888,12.239h150.836
				C175.342,229.808,180.773,225.379,180.78,217.537z M126.214,172.698c-16.256,9.557-32.554,19.048-48.889,28.471
				c-5.598,3.221-9.597,0.945-9.66-5.46c-0.083-9.698-0.017-19.405-0.017-29.115c0-9.424-0.066-18.872,0.029-28.297
				c0.055-6.201,4.021-8.559,9.38-5.478c16.462,9.491,32.873,19.043,49.23,28.703C131.813,164.786,131.763,169.441,126.214,172.698z
				"/>
			<path fill="#0D6073" d="M1.251,249.689H0.796c-0.44,0-0.796,0.355-0.796,0.794v15.701c0,0.438,0.356,0.796,0.796,0.796h0.455
				c0.44,0,0.796-0.358,0.796-0.796v-15.701C2.048,250.045,1.691,249.689,1.251,249.689z"/>
			<path fill="#0D6073" d="M23.922,249.689h-6.153c-0.44,0-0.797,0.355-0.797,0.794v15.701c0,0.438,0.356,0.796,0.797,0.796h0.453
				c0.438,0,0.793-0.354,0.796-0.794l0.019-5.918l3.65,0.016c0.001,0,0.003,0,0.004,0c0.21,0,0.413-0.082,0.561-0.229
				c0.151-0.151,0.235-0.354,0.235-0.564v-0.455c0-0.438-0.356-0.793-0.796-0.793h-3.674v-6.551h4.904
				c0.44,0,0.796-0.532,0.796-0.97v-0.239C24.718,250.045,24.362,249.689,23.922,249.689z"/>
			<path fill="#0D6073" d="M33.471,250c-0.245-0.104-0.506-0.199-0.775-0.27c-0.281-0.076-0.563-0.136-0.825-0.162
				c-0.059-0.007-0.117-0.014-0.172-0.019l1.786-2.063c0.287-0.33,0.252-0.829-0.077-1.116l-0.322-0.282
				c-0.162-0.145-0.391-0.206-0.582-0.199c-0.212,0.019-0.41,0.115-0.548,0.277l-1.924,2.245c-0.278,0.327-0.25,0.811,0.063,1.103
				l0.103,0.093c-0.204,0.038-0.411,0.088-0.622,0.147c-0.276,0.078-0.537,0.176-0.786,0.297c-0.286,0.137-0.522,0.294-0.706,0.464
				c-0.462,0.402-0.804,0.901-1.01,1.479c-0.197,0.53-0.299,1.143-0.299,1.819v9.22c0,0.232,0.023,0.513,0.074,0.852
				c0.053,0.323,0.15,0.674,0.293,1.056c0.161,0.415,0.402,0.791,0.717,1.123c0.373,0.391,0.891,0.687,1.543,0.877
				c0.592,0.17,1.174,0.256,1.729,0.256c0.556,0,1.141-0.086,1.741-0.256c0.651-0.188,1.177-0.478,1.582-0.877
				c0.311-0.33,0.549-0.698,0.709-1.092c0.142-0.348,0.244-0.673,0.312-0.985c0.071-0.337,0.104-0.605,0.104-0.85v-9.323
				c0-1.414-0.461-2.536-1.37-3.339C34.008,250.293,33.766,250.135,33.471,250z M33.51,262.813c0,0.281-0.015,0.517-0.048,0.708
				c-0.036,0.195-0.097,0.409-0.183,0.64c-0.062,0.17-0.162,0.328-0.325,0.505c-0.045,0.051-0.119,0.102-0.2,0.143
				c-0.151,0.074-0.315,0.137-0.485,0.189c-0.187,0.052-0.375,0.09-0.566,0.115c-0.582,0.074-1.101,0.038-1.684-0.122
				c-0.386-0.1-0.567-0.229-0.666-0.337c-0.134-0.14-0.23-0.296-0.297-0.49c-0.085-0.239-0.144-0.466-0.182-0.685
				c-0.032-0.199-0.043-0.457-0.031-0.793v-8.874c0-0.507,0.069-0.911,0.207-1.189c0.143-0.289,0.309-0.499,0.505-0.644
				c0.212-0.158,0.44-0.258,0.708-0.316c0.3-0.066,0.593-0.102,0.871-0.102c0.145,0,0.317,0.016,0.521,0.04
				c0.18,0.021,0.359,0.063,0.532,0.12c0.187,0.057,0.364,0.129,0.546,0.224c0.113,0.054,0.207,0.124,0.285,0.208
				c0.155,0.165,0.277,0.372,0.37,0.631c0.097,0.275,0.147,0.618,0.147,1.025L33.51,262.813z"/>
			<path fill="#0D6073" d="M44.016,259.779c0.165-0.082,0.315-0.18,0.456-0.288c0.341-0.268,0.641-0.602,0.89-0.989
				c0.316-0.485,0.564-1.043,0.737-1.659c0.17-0.606,0.256-1.234,0.256-1.864c0-0.624-0.083-1.225-0.256-1.847
				c-0.17-0.61-0.417-1.173-0.733-1.675c-0.365-0.567-0.887-1.015-1.56-1.329c-0.635-0.292-1.404-0.438-2.286-0.438h-2.482
				c-0.44,0-0.796,0.355-0.796,0.794v15.701c0,0.438,0.356,0.796,0.796,0.796h0.455c0.44,0,0.796-0.358,0.796-0.796v-5.921
				l1.731-0.009l2.722,6.226c0.127,0.292,0.413,0.477,0.729,0.477h0.476c0.007,0,0.014,0,0.019,0
				c0.425-0.05,0.817-0.351,0.817-0.795c0-0.199-0.074-0.382-0.196-0.522L44.016,259.779z M42.98,257.999
				c-0.154,0.082-0.55,0.222-1.46,0.222h-1.231v-6.485h1.231c0.575,0,1.045,0.081,1.397,0.239c0.324,0.149,0.562,0.344,0.715,0.578
				c0.206,0.331,0.372,0.708,0.492,1.131c0.123,0.42,0.184,0.852,0.184,1.283c0,0.442-0.061,0.884-0.184,1.304
				c-0.122,0.422-0.288,0.805-0.485,1.118C43.468,257.653,43.252,257.853,42.98,257.999z"/>
			<path fill="#0D6073" d="M56.571,249.604h-0.455c-0.439,0-0.795,0.357-0.795,0.796v12.307l-0.006,0.367
				c-0.008,0.104-0.022,0.214-0.045,0.333c-0.033,0.193-0.094,0.396-0.18,0.606c-0.077,0.188-0.186,0.359-0.309,0.502
				c-0.637,0.668-2.17,0.676-2.751,0.038c-0.155-0.172-0.265-0.351-0.339-0.544c-0.083-0.218-0.137-0.425-0.168-0.669
				c-0.018-0.098-0.028-0.195-0.028-0.296v-12.645c0-0.438-0.356-0.796-0.796-0.796h-0.453c-0.44,0-0.797,0.357-0.797,0.796v12.502
				c0,0.234,0.023,0.515,0.071,0.847c0.054,0.337,0.152,0.694,0.292,1.055c0.155,0.407,0.395,0.787,0.708,1.119
				c0.701,0.76,1.657,1.145,2.844,1.145c1.215,0,2.188-0.385,2.884-1.139c0.317-0.338,0.548-0.694,0.703-1.086
				c0.142-0.348,0.245-0.678,0.309-0.985c0.071-0.323,0.106-0.601,0.106-0.848v-12.609C57.367,249.961,57.01,249.604,56.571,249.604
				z"/>
			<path fill="#0D6073" d="M69.849,249.689h-0.345c-0.3,0-0.574,0.168-0.709,0.432l-3.286,6.432l-3.285-6.432
				c-0.136-0.264-0.41-0.432-0.709-0.432h-0.367c-0.44,0-0.796,0.572-0.796,1.011v15.484c0,0.438,0.356,0.796,0.796,0.796H61.6
				c0.44,0,0.796-0.358,0.796-0.796v-11.22l2.252,4.451c0.136,0.27,0.409,0.436,0.71,0.436h0.303c0.302,0,0.576-0.168,0.711-0.438
				l2.227-4.445v11.216c0,0.438,0.357,0.796,0.797,0.796h0.452c0.44,0,0.796-0.358,0.796-0.796v-15.701
				C70.645,250.045,70.289,249.689,69.849,249.689z"/>
			<path fill="#0D6073" d="M90.23,249.943c-0.454-0.17-0.925-0.254-1.4-0.254h-3.238c-0.44,0-0.796,0.355-0.796,0.794v15.701
				c0,0.438,0.355,0.796,0.796,0.796h3.238c0.479,0,0.953-0.089,1.394-0.256c0.456-0.167,0.868-0.425,1.209-0.75
				c0.864-0.771,1.302-1.878,1.302-3.288v-8.701c0-1.371-0.433-2.474-1.288-3.285C91.093,250.372,90.686,250.117,90.23,249.943z
				 M90.688,262.687c0,0.432-0.057,0.793-0.169,1.077c-0.109,0.28-0.251,0.503-0.434,0.683c-0.162,0.167-0.345,0.284-0.556,0.362
				c-0.231,0.086-0.462,0.126-0.7,0.126h-1.991v-13.199h1.991c0.229,0,0.455,0.043,0.688,0.131c0.213,0.081,0.41,0.208,0.58,0.375
				c0.172,0.167,0.309,0.387,0.419,0.664c0.115,0.308,0.172,0.657,0.172,1.08V262.687z"/>
			<path fill="#0D6073" d="M102.758,264.978h-4.841v-4.714h3.544c0.44,0,0.797-0.554,0.797-0.992v-0.214
				c0-0.438-0.357-0.796-0.797-0.796h-3.544v-6.569h4.751c0.44,0,0.797-0.532,0.797-0.97v-0.239c0-0.438-0.356-0.794-0.797-0.794
				h-5.999c-0.44,0-0.796,0.355-0.796,0.794v15.701c0,0.438,0.356,0.796,0.796,0.796h6.089c0.44,0,0.796-0.358,0.796-0.796v-0.411
				C103.554,265.335,103.198,264.978,102.758,264.978z"/>
			<path fill="#0D6073" d="M124.999,264.978h-4.841v-4.714h3.543c0.44,0,0.796-0.554,0.796-0.992v-0.214
				c0-0.438-0.356-0.796-0.796-0.796h-3.543v-6.569h4.754c0.439,0,0.795-0.532,0.795-0.97v-0.239c0-0.438-0.356-0.794-0.795-0.794
				h-6.004c-0.44,0-0.796,0.355-0.796,0.794v15.701c0,0.438,0.356,0.796,0.796,0.796h6.091c0.439,0,0.795-0.358,0.795-0.796v-0.411
				C125.794,265.335,125.438,264.978,124.999,264.978z"/>
			<path fill="#0D6073" d="M138.105,249.689h-0.347c-0.299,0-0.572,0.168-0.708,0.432l-3.285,6.432l-3.286-6.432
				c-0.136-0.264-0.411-0.432-0.709-0.432h-0.367c-0.44,0-0.797,0.572-0.797,1.011v15.484c0,0.438,0.356,0.796,0.797,0.796h0.452
				c0.44,0,0.796-0.358,0.796-0.796v-11.22l2.252,4.451c0.135,0.27,0.41,0.436,0.71,0.436h0.301c0.302,0,0.577-0.168,0.712-0.438
				l2.227-4.445v11.216c0,0.438,0.357,0.796,0.797,0.796h0.455c0.44,0,0.796-0.358,0.796-0.796v-15.701
				C138.901,250.045,138.545,249.689,138.105,249.689z"/>
			<path fill="#0D6073" d="M148.663,251.457c-0.366-0.567-0.887-1.015-1.558-1.329c-0.637-0.292-1.405-0.438-2.285-0.438h-2.484
				c-0.44,0-0.796,0.355-0.796,0.794v15.701c0,0.438,0.356,0.796,0.796,0.796h0.452c0.44,0,0.797-0.358,0.797-0.796v-5.921h1.235
				c1,0,1.772-0.143,2.36-0.439c0.604-0.3,1.101-0.745,1.477-1.32c0.312-0.478,0.56-1.033,0.741-1.663
				c0.167-0.608,0.253-1.234,0.253-1.862c0-0.62-0.083-1.223-0.256-1.849C149.22,252.508,148.974,251.947,148.663,251.457z
				 M147.422,256.271c-0.122,0.422-0.288,0.805-0.488,1.124c-0.17,0.262-0.384,0.458-0.655,0.604
				c-0.155,0.082-0.549,0.222-1.459,0.222h-1.235v-6.485h1.235c0.572,0,1.042,0.081,1.394,0.239
				c0.325,0.149,0.561,0.342,0.716,0.583c0.206,0.326,0.372,0.703,0.493,1.128c0.122,0.418,0.184,0.848,0.184,1.281
				C147.606,255.409,147.545,255.851,147.422,256.271z"/>
			<path fill="#0D6073" d="M158.564,259.779c0.165-0.082,0.315-0.18,0.456-0.288c0.342-0.27,0.643-0.604,0.888-0.989
				c0.316-0.485,0.565-1.043,0.736-1.657c0.171-0.602,0.26-1.229,0.26-1.866c0-0.632-0.085-1.234-0.259-1.847
				c-0.17-0.61-0.416-1.173-0.733-1.675c-0.365-0.567-0.886-1.015-1.559-1.329c-0.635-0.292-1.403-0.438-2.285-0.438h-2.482
				c-0.44,0-0.797,0.355-0.797,0.794v15.701c0,0.438,0.356,0.796,0.797,0.796h0.451c0.44,0,0.796-0.358,0.796-0.796v-5.921
				l1.734-0.009l2.724,6.226c0.128,0.292,0.413,0.477,0.729,0.477h0.474c0.007,0,0.014,0,0.02,0c0.452-0.05,0.817-0.351,0.817-0.795
				c0-0.199-0.074-0.382-0.196-0.522L158.564,259.779z M157.526,257.999c-0.154,0.082-0.546,0.222-1.457,0.222h-1.235v-6.485h1.235
				c0.574,0,1.044,0.081,1.396,0.239c0.327,0.149,0.562,0.344,0.716,0.578c0.206,0.331,0.371,0.708,0.492,1.131
				c0.122,0.417,0.183,0.85,0.183,1.283c0,0.447-0.061,0.886-0.183,1.304c-0.122,0.422-0.288,0.805-0.487,1.124
				C158.018,257.653,157.803,257.853,157.526,257.999z"/>
			<path fill="#0D6073" d="M170.751,264.978h-4.841v-4.714h3.545c0.44,0,0.797-0.554,0.797-0.992v-0.214
				c0-0.438-0.356-0.796-0.797-0.796h-3.545v-6.569h4.754c0.44,0,0.797-0.532,0.797-0.97v-0.239c0-0.438-0.356-0.794-0.797-0.794
				h-6.001c-0.44,0-0.796,0.355-0.796,0.794v15.701c0,0.438,0.356,0.796,0.796,0.796h6.088c0.44,0,0.797-0.358,0.797-0.796v-0.411
				C171.548,265.335,171.192,264.978,170.751,264.978z"/>
			<path fill="#0D6073" d="M181.613,264.978h-4.839v-4.714h3.543c0.44,0,0.796-0.554,0.796-0.992v-0.214
				c0-0.438-0.356-0.796-0.796-0.796h-3.543v-6.569h4.752c0.44,0,0.796-0.532,0.796-0.97v-0.239c0-0.438-0.356-0.794-0.796-0.794
				h-6.002c-0.44,0-0.797,0.355-0.797,0.794v15.701c0,0.438,0.356,0.796,0.797,0.796h6.09c0.44,0,0.797-0.358,0.797-0.796v-0.411
				C182.41,265.335,182.054,264.978,181.613,264.978z"/>
			<path fill="#0D6073" d="M193.251,249.689h-0.453c-0.44,0-0.797,0.355-0.797,0.794v10.577l-4.735-10.894
				c-0.127-0.292-0.413-0.478-0.729-0.478h-0.369c-0.44,0-0.797,0.355-0.797,0.794v15.701c0,0.438,0.356,0.796,0.797,0.796h0.455
				c0.007,0,0.014,0,0.02,0c0.421-0.073,0.817-0.351,0.817-0.796c0-0.089-0.015-0.173-0.041-0.251l-0.032-10.378l4.744,10.945
				c0.126,0.291,0.414,0.479,0.73,0.479h0.391c0.44,0,0.796-0.358,0.796-0.796v-15.701
				C194.047,250.045,193.691,249.689,193.251,249.689z"/>
			<path fill="#0D6073" d="M202.361,249.943c-0.456-0.17-0.927-0.254-1.4-0.254h-3.24c-0.44,0-0.797,0.355-0.797,0.794v15.701
				c0,0.438,0.356,0.796,0.797,0.796h3.24c0.477,0,0.95-0.089,1.398-0.259c0.458-0.166,0.87-0.425,1.204-0.745
				c0.865-0.771,1.303-1.878,1.303-3.29v-8.701c0-1.374-0.433-2.479-1.287-3.281C203.23,250.374,202.823,250.119,202.361,249.943z
				 M202.82,262.687c0,0.427-0.058,0.79-0.171,1.08c-0.109,0.277-0.25,0.497-0.434,0.68c-0.164,0.167-0.345,0.284-0.554,0.362
				c-0.229,0.083-0.465,0.126-0.702,0.126h-1.989v-13.199h1.989c0.227,0,0.46,0.043,0.689,0.131
				c0.214,0.081,0.403,0.206,0.577,0.375c0.175,0.169,0.312,0.389,0.419,0.666c0.119,0.309,0.174,0.659,0.174,1.078V262.687z"/>
			<path fill="#0D6073" d="M214.887,264.978h-4.843v-4.714h3.546c0.44,0,0.796-0.554,0.796-0.992v-0.214
				c0-0.438-0.356-0.796-0.796-0.796h-3.546v-6.569h4.755c0.44,0,0.796-0.532,0.796-0.97v-0.239c0-0.438-0.356-0.794-0.796-0.794
				h-6.002c-0.44,0-0.796,0.355-0.796,0.794v15.701c0,0.438,0.356,0.796,0.796,0.796h6.09c0.439,0,0.796-0.358,0.796-0.796v-0.411
				C215.683,265.335,215.327,264.978,214.887,264.978z"/>
			<path fill="#0D6073" d="M224.103,249.943c-0.454-0.17-0.924-0.254-1.397-0.254h-3.243c-0.439,0-0.796,0.355-0.796,0.794v15.701
				c0,0.438,0.357,0.796,0.796,0.796h3.243c0.478,0,0.95-0.089,1.394-0.256c0.459-0.169,0.874-0.428,1.209-0.75
				c0.865-0.773,1.304-1.878,1.304-3.288v-8.701c0-1.369-0.433-2.474-1.288-3.281C224.973,250.374,224.564,250.119,224.103,249.943z
				 M224.563,262.687c0,0.427-0.058,0.79-0.173,1.08c-0.109,0.279-0.249,0.5-0.432,0.68c-0.163,0.167-0.346,0.284-0.555,0.362
				c-0.232,0.086-0.461,0.126-0.699,0.126h-1.991v-13.199h1.991c0.229,0,0.455,0.043,0.686,0.131
				c0.217,0.081,0.405,0.206,0.581,0.375c0.172,0.167,0.308,0.387,0.418,0.669c0.117,0.306,0.174,0.656,0.174,1.075V262.687z"/>
			<path fill="#0D6073" d="M235.447,250.002c-0.242-0.105-0.507-0.201-0.775-0.271c-0.278-0.076-0.561-0.136-0.822-0.162
				c-0.576-0.07-0.983-0.065-1.507,0.011c-0.261,0.041-0.521,0.1-0.791,0.175c-0.274,0.078-0.536,0.176-0.785,0.297
				c-0.289,0.141-0.522,0.297-0.704,0.462c-0.463,0.402-0.804,0.903-1.013,1.482c-0.197,0.53-0.296,1.143-0.296,1.817v9.22
				c0,0.232,0.023,0.513,0.071,0.852c0.057,0.342,0.154,0.694,0.293,1.054c0.157,0.409,0.397,0.786,0.718,1.125
				c0.37,0.391,0.889,0.685,1.544,0.877c0.605,0.172,1.171,0.256,1.73,0.256c0.555,0,1.139-0.086,1.742-0.256
				c0.651-0.188,1.176-0.478,1.583-0.885c0.311-0.331,0.551-0.694,0.706-1.084c0.141-0.352,0.246-0.675,0.312-0.985
				c0.071-0.337,0.104-0.605,0.104-0.85v-9.323c0-1.414-0.461-2.536-1.369-3.339C235.986,250.293,235.742,250.14,235.447,250.002z
				 M235.488,262.813c0,0.275-0.014,0.51-0.053,0.718c-0.034,0.194-0.097,0.404-0.177,0.628c-0.063,0.172-0.166,0.33-0.331,0.509
				c-0.042,0.049-0.113,0.1-0.202,0.143c-0.147,0.072-0.312,0.135-0.483,0.188c-0.183,0.052-0.375,0.09-0.562,0.115
				c-0.575,0.074-1.095,0.038-1.684-0.122c-0.305-0.079-0.532-0.192-0.667-0.335c-0.134-0.137-0.23-0.298-0.295-0.487
				c-0.086-0.24-0.146-0.478-0.184-0.685c-0.031-0.204-0.043-0.462-0.031-0.798v-8.874c0-0.507,0.069-0.907,0.215-1.198
				c0.135-0.28,0.298-0.488,0.496-0.635c0.213-0.158,0.442-0.258,0.706-0.316c0.307-0.068,0.592-0.102,0.874-0.102
				c0.145,0,0.316,0.016,0.521,0.04c0.179,0.021,0.357,0.063,0.532,0.116c0.187,0.061,0.363,0.133,0.544,0.225
				c0.115,0.057,0.21,0.127,0.285,0.208c0.153,0.166,0.279,0.378,0.37,0.634c0.098,0.275,0.147,0.618,0.147,1.025L235.488,262.813z"
				/>
			<path fill="#0D6073" d="M245.993,259.779c0.164-0.082,0.315-0.182,0.456-0.293c0.34-0.265,0.641-0.599,0.89-0.99
				c0.313-0.479,0.56-1.035,0.736-1.653c0.17-0.606,0.256-1.234,0.256-1.864c0-0.624-0.084-1.225-0.256-1.849
				c-0.174-0.61-0.418-1.174-0.734-1.675c-0.368-0.567-0.891-1.015-1.557-1.327c-0.636-0.292-1.405-0.438-2.287-0.438h-2.484
				c-0.44,0-0.798,0.355-0.798,0.794v15.701c0,0.438,0.357,0.796,0.798,0.796h0.453c0.44,0,0.797-0.358,0.797-0.796v-5.921
				l1.731-0.009l2.726,6.226c0.128,0.292,0.413,0.477,0.729,0.477h0.475c0.006,0,0.014,0,0.019,0
				c0.432-0.05,0.817-0.351,0.817-0.795c0-0.199-0.075-0.382-0.196-0.522L245.993,259.779z M244.961,257.999
				c-0.155,0.082-0.554,0.222-1.464,0.222h-1.234v-6.485h1.234c0.572,0,1.044,0.081,1.396,0.239
				c0.325,0.151,0.562,0.344,0.715,0.578c0.206,0.331,0.371,0.708,0.492,1.133c0.121,0.418,0.185,0.848,0.185,1.281
				c0,0.442-0.063,0.884-0.185,1.304c-0.123,0.422-0.287,0.805-0.486,1.124C245.446,257.653,245.23,257.853,244.961,257.999z"/>
			<path fill="#0D6073" d="M252.805,249.689h-0.454c-0.438,0-0.796,0.355-0.796,0.794v15.701c0,0.438,0.357,0.796,0.796,0.796h0.454
				c0.44,0,0.797-0.358,0.797-0.796v-15.701C253.602,250.045,253.245,249.689,252.805,249.689z"/>
			<path fill="#0D6073" d="M262.762,257.935c-0.416-0.326-0.839-0.636-1.262-0.928c-0.354-0.256-0.697-0.513-1.034-0.771
				c-0.282-0.213-0.54-0.456-0.768-0.726c-0.212-0.248-0.378-0.517-0.509-0.821c-0.114-0.261-0.17-0.579-0.17-0.943
				c0-0.258,0.016-0.481,0.048-0.657c0.036-0.182,0.097-0.382,0.176-0.587c0.065-0.164,0.162-0.317,0.301-0.464
				c0.303-0.334,0.769-0.495,1.424-0.495c0.341,0,0.624,0.045,0.843,0.134c0.202,0.084,0.366,0.198,0.498,0.348
				c0.109,0.124,0.184,0.269,0.234,0.438c0.067,0.239,0.109,0.464,0.135,0.681c0.027,0.228,0.03,0.485,0.018,0.781
				c-0.008,0.217,0.07,0.43,0.223,0.588c0.148,0.155,0.356,0.243,0.573,0.243h0.454c0.433,0,0.784-0.35,0.795-0.779l0.013-0.307
				c0.006-0.22-0.005-0.495-0.039-0.821c-0.037-0.325-0.104-0.664-0.211-1.023c-0.123-0.416-0.333-0.798-0.622-1.139
				c-0.672-0.788-1.653-1.188-2.913-1.188c-1.237,0-2.227,0.391-2.91,1.132c-0.323,0.314-0.568,0.681-0.725,1.085
				c-0.124,0.332-0.215,0.639-0.273,0.926c-0.059,0.304-0.086,0.567-0.086,0.791v0.338c0,1.123,0.383,2.15,1.146,3.065
				c0.32,0.374,0.685,0.715,1.075,1.011c0.366,0.278,0.744,0.551,1.134,0.822c0.395,0.282,0.783,0.567,1.17,0.865
				c0.332,0.25,0.641,0.543,0.914,0.872c0.253,0.304,0.454,0.655,0.616,1.067c0.153,0.391,0.227,0.852,0.227,1.407
				c0,0.446-0.065,0.812-0.193,1.09c-0.127,0.275-0.287,0.49-0.489,0.653c-0.217,0.172-0.453,0.296-0.722,0.375
				c-0.543,0.16-1.052,0.174-1.687,0.031c-0.224-0.052-0.43-0.153-0.629-0.314c-0.204-0.164-0.371-0.399-0.511-0.714
				c-0.148-0.329-0.222-0.788-0.222-1.357c0-0.438-0.355-0.796-0.797-0.796h-0.454c-0.44,0-0.798,0.357-0.798,0.796
				c0,0.687,0.107,1.344,0.314,1.956c0.221,0.663,0.569,1.207,1.051,1.632c0.475,0.4,0.992,0.662,1.54,0.784
				c0.494,0.107,0.921,0.158,1.308,0.158c1.127,0,2.095-0.32,2.884-0.963c0.962-0.804,1.45-1.923,1.45-3.331
				c0-1.426-0.439-2.682-1.307-3.744C263.627,258.688,263.226,258.298,262.762,257.935z"/>
			<path fill="#0D6073" d="M277.05,249.689h-0.343c-0.299,0-0.574,0.168-0.71,0.432l-3.286,6.432l-3.285-6.432
				c-0.136-0.264-0.408-0.432-0.707-0.432h-0.37c-0.441,0-0.797,0.572-0.797,1.011v15.484c0,0.438,0.355,0.796,0.797,0.796h0.454
				c0.44,0,0.798-0.358,0.798-0.796v-11.218l2.25,4.449c0.136,0.27,0.409,0.436,0.71,0.436h0.301c0.3,0,0.574-0.168,0.711-0.438
				l2.228-4.445v11.216c0,0.438,0.358,0.796,0.796,0.796h0.454c0.441,0,0.797-0.358,0.797-0.796v-15.701
				C277.847,250.045,277.491,249.689,277.05,249.689z"/>
			<path fill="#0D6073" d="M286.51,250c-0.244-0.104-0.503-0.199-0.771-0.27c-0.278-0.076-0.564-0.136-0.825-0.162
				c-0.583-0.077-0.978-0.068-1.509,0.011c-0.258,0.041-0.516,0.1-0.787,0.175c-0.271,0.078-0.533,0.174-0.792,0.3
				c-0.284,0.14-0.518,0.294-0.702,0.461c-0.461,0.402-0.801,0.901-1.008,1.48c-0.197,0.53-0.297,1.143-0.297,1.817v9.22
				c0,0.232,0.023,0.513,0.073,0.847c0.053,0.333,0.151,0.688,0.291,1.059c0.156,0.409,0.398,0.783,0.717,1.121
				c0.369,0.393,0.888,0.688,1.547,0.881c0.604,0.172,1.17,0.256,1.729,0.256c0.556,0,1.142-0.086,1.741-0.256
				c0.65-0.188,1.177-0.478,1.584-0.885c0.309-0.326,0.545-0.692,0.707-1.084c0.141-0.348,0.241-0.673,0.308-0.983
				c0.071-0.325,0.107-0.603,0.107-0.852v-9.323c0-1.416-0.464-2.536-1.369-3.339C287.05,250.293,286.806,250.135,286.51,250z
				 M286.554,262.813c0,0.275-0.015,0.51-0.055,0.722c-0.032,0.193-0.095,0.4-0.179,0.626c-0.061,0.17-0.16,0.328-0.328,0.507
				c-0.041,0.049-0.112,0.1-0.197,0.141c-0.149,0.074-0.314,0.137-0.484,0.189c-0.188,0.052-0.378,0.09-0.564,0.115
				c-0.581,0.069-1.098,0.038-1.687-0.122c-0.303-0.079-0.529-0.192-0.665-0.335c-0.133-0.137-0.23-0.298-0.298-0.489
				c-0.086-0.238-0.146-0.471-0.182-0.681c-0.033-0.213-0.043-0.47-0.03-0.8v-8.874c0-0.507,0.07-0.911,0.212-1.196
				c0.137-0.282,0.3-0.49,0.499-0.637c0.215-0.158,0.442-0.262,0.706-0.316c0.307-0.068,0.591-0.102,0.874-0.102
				c0.145,0,0.315,0.016,0.521,0.04c0.181,0.021,0.359,0.063,0.532,0.116c0.188,0.061,0.364,0.133,0.545,0.225
				c0.115,0.057,0.21,0.13,0.282,0.206c0.158,0.17,0.282,0.385,0.373,0.636c0.098,0.275,0.147,0.618,0.147,1.025L286.554,262.813z"
				/>
			<path fill="#0D6073" d="M307.797,249.943c-0.453-0.17-0.923-0.254-1.401-0.254h-3.237c-0.44,0-0.796,0.355-0.796,0.794v15.701
				c0,0.438,0.355,0.796,0.796,0.796h3.237c0.481,0,0.954-0.089,1.393-0.256c0.459-0.167,0.872-0.425,1.21-0.748
				c0.864-0.772,1.304-1.878,1.304-3.29v-8.701c0-1.371-0.435-2.477-1.289-3.281C308.663,250.372,308.254,250.117,307.797,249.943z
				 M308.254,262.687c0,0.432-0.057,0.793-0.168,1.077c-0.11,0.28-0.251,0.503-0.433,0.683c-0.167,0.167-0.349,0.284-0.561,0.362
				c-0.229,0.086-0.457,0.126-0.697,0.126h-1.99v-13.199h1.99c0.232,0,0.455,0.043,0.688,0.131c0.216,0.081,0.405,0.206,0.581,0.375
				c0.173,0.167,0.31,0.387,0.419,0.664c0.114,0.308,0.171,0.657,0.171,1.08V262.687z"/>
			<path fill="#0D6073" d="M320.323,264.978h-4.838v-4.714h3.543c0.44,0,0.796-0.554,0.796-0.992v-0.214
				c0-0.438-0.355-0.796-0.796-0.796h-3.543v-6.569h4.75c0.441,0,0.797-0.532,0.797-0.97v-0.239c0-0.438-0.355-0.794-0.797-0.794
				h-6.001c-0.439,0-0.797,0.355-0.797,0.794v15.701c0,0.438,0.357,0.796,0.797,0.796h6.089c0.441,0,0.796-0.358,0.796-0.796v-0.411
				C321.119,265.335,320.765,264.978,320.323,264.978z"/>
			<path fill="#0D6073" d="M337.763,252.718c0.113-0.284,0.251-0.503,0.423-0.669c0.17-0.165,0.368-0.294,0.591-0.378
				c0.433-0.162,0.881-0.187,1.383,0.012c0.234,0.092,0.436,0.222,0.614,0.402c0.201,0.208,0.356,0.459,0.478,0.769
				c0.128,0.323,0.193,0.717,0.193,1.173c0,0.438,0.356,0.796,0.795,0.796h0.475c0.44,0,0.798-0.357,0.798-0.796
				c0-0.707-0.117-1.376-0.344-1.988c-0.237-0.655-0.597-1.185-1.072-1.586c-1.169-0.952-2.668-1.212-4.051-0.685
				c-0.442,0.176-0.842,0.417-1.206,0.737c-0.856,0.806-1.291,1.905-1.291,3.282l-0.004,8.976l-0.007,0.246
				c-0.007,0.242,0.012,0.53,0.065,0.87c0.053,0.345,0.15,0.699,0.292,1.066c0.167,0.423,0.409,0.796,0.715,1.113
				c0.669,0.768,1.634,1.156,2.868,1.156c1.216,0,2.195-0.38,2.904-1.133c0.329-0.348,0.572-0.738,0.722-1.156
				c0.139-0.385,0.241-0.749,0.298-1.096c0.058-0.357,0.086-0.653,0.086-0.894v-0.339c0-0.438-0.356-0.793-0.799-0.793h-0.449
				c-0.438,0-0.795,0.355-0.795,0.793c0,0.331-0.021,0.615-0.055,0.848c-0.037,0.229-0.102,0.461-0.189,0.702
				c-0.074,0.204-0.177,0.367-0.322,0.519c-0.623,0.667-2.102,0.702-2.751-0.004c-0.138-0.147-0.239-0.311-0.316-0.515
				c-0.087-0.225-0.144-0.436-0.173-0.651c-0.035-0.218-0.041-0.479-0.041-0.81v-8.899
				C337.597,253.376,337.651,253.015,337.763,252.718z"/>
			<path fill="#0D6073" d="M350.793,250.327c-0.074-0.372-0.4-0.638-0.78-0.638h-0.365c-0.378,0-0.704,0.266-0.779,0.636
				l-3.175,15.7c-0.049,0.235,0.014,0.478,0.164,0.663c0.151,0.186,0.378,0.292,0.616,0.292h0.472c0.374,0,0.699-0.261,0.778-0.629
				l0.882-4.102h2.464l0.84,4.093c0.076,0.371,0.4,0.638,0.779,0.638h0.478c0.016,0.002,0.029,0.002,0.039,0
				c0.44,0,0.797-0.358,0.797-0.796c0-0.142-0.038-0.274-0.104-0.392L350.793,250.327z M348.992,260.207l0.832-4.289l0.806,4.289
				H348.992z"/>
			<path fill="#0D6073" d="M365.559,249.689h-0.345c-0.299,0-0.572,0.168-0.708,0.432l-3.286,6.432l-3.288-6.432
				c-0.136-0.264-0.41-0.432-0.709-0.432h-0.367c-0.44,0-0.797,0.572-0.797,1.011v15.484c0,0.438,0.356,0.796,0.797,0.796h0.455
				c0.44,0,0.796-0.358,0.796-0.796v-11.218l2.25,4.449c0.136,0.27,0.409,0.436,0.71,0.436h0.305c0.301,0,0.576-0.168,0.711-0.438
				l2.226-4.443v11.214c0,0.438,0.356,0.796,0.797,0.796h0.454c0.44,0,0.798-0.358,0.798-0.796v-15.701
				C366.356,250.045,365.999,249.689,365.559,249.689z"/>
			<path fill="#0D6073" d="M376.116,251.457c-0.363-0.567-0.886-1.015-1.557-1.329c-0.638-0.292-1.405-0.438-2.284-0.438h-2.485
				c-0.44,0-0.796,0.355-0.796,0.794v15.701c0,0.438,0.355,0.796,0.796,0.796h0.455c0.438,0,0.797-0.358,0.797-0.796v-5.921h1.233
				c1.001,0,1.774-0.143,2.361-0.439c0.604-0.3,1.101-0.745,1.476-1.32c0.313-0.479,0.565-1.038,0.736-1.659
				c0.172-0.602,0.26-1.229,0.26-1.866c0-0.632-0.086-1.234-0.257-1.847C376.678,252.512,376.434,251.95,376.116,251.457z
				 M374.879,256.268c-0.124,0.425-0.29,0.808-0.486,1.119c-0.174,0.27-0.389,0.47-0.662,0.612
				c-0.153,0.082-0.545,0.222-1.455,0.222h-1.233v-6.485h1.233c0.573,0,1.043,0.081,1.392,0.239
				c0.326,0.149,0.564,0.344,0.718,0.578c0.205,0.328,0.372,0.708,0.493,1.128c0.122,0.43,0.186,0.861,0.186,1.286
				C375.063,255.403,375,255.842,374.879,256.268z"/>
			<path fill="#0D6073" d="M385.837,250.002c-0.242-0.105-0.505-0.201-0.773-0.271c-0.283-0.076-0.562-0.136-0.825-0.162
				c-0.581-0.073-0.987-0.065-1.51,0.011c-0.254,0.041-0.513,0.1-0.784,0.175c-0.275,0.078-0.532,0.174-0.788,0.297
				c-0.284,0.137-0.519,0.294-0.703,0.462c-0.463,0.402-0.804,0.903-1.015,1.482c-0.194,0.53-0.294,1.143-0.294,1.817v9.22
				c0,0.232,0.023,0.513,0.071,0.847c0.052,0.325,0.146,0.67,0.294,1.061c0.159,0.411,0.399,0.789,0.718,1.123
				c0.37,0.391,0.888,0.685,1.544,0.877c0.604,0.172,1.17,0.256,1.729,0.256c0.562,0,1.13-0.084,1.743-0.256
				c0.655-0.19,1.182-0.481,1.578-0.877c0.307-0.326,0.544-0.688,0.718-1.101c0.136-0.349,0.24-0.672,0.303-0.977
				c0.074-0.349,0.108-0.61,0.108-0.85v-9.323c0-1.416-0.463-2.539-1.369-3.333C386.383,250.298,386.137,250.14,385.837,250.002z
				 M385.878,262.813c0,0.272-0.012,0.505-0.055,0.726c-0.032,0.191-0.096,0.401-0.178,0.628c-0.061,0.166-0.159,0.322-0.325,0.499
				c-0.045,0.051-0.115,0.102-0.194,0.143c-0.154,0.074-0.317,0.137-0.492,0.189c-0.186,0.052-0.377,0.09-0.564,0.115
				c-0.586,0.077-1.087,0.036-1.684-0.122c-0.385-0.097-0.565-0.229-0.663-0.335c-0.135-0.142-0.234-0.3-0.3-0.489
				c-0.085-0.238-0.145-0.471-0.181-0.681c-0.034-0.215-0.046-0.472-0.03-0.8v-8.874c0-0.509,0.07-0.911,0.211-1.198
				c0.133-0.274,0.303-0.488,0.492-0.633c0.221-0.16,0.451-0.264,0.714-0.318c0.304-0.068,0.591-0.102,0.872-0.102
				c0.147,0,0.317,0.016,0.521,0.04c0.179,0.021,0.359,0.063,0.531,0.116c0.186,0.061,0.364,0.133,0.549,0.228
				c0.113,0.059,0.203,0.124,0.281,0.205c0.157,0.17,0.282,0.383,0.37,0.634c0.1,0.279,0.149,0.626,0.149,1.025L385.878,262.813z"/>
			<path fill="#0D6073" d="M396.03,257.935c-0.416-0.326-0.839-0.636-1.262-0.932c-0.356-0.252-0.697-0.509-1.032-0.765
				c-0.295-0.221-0.552-0.463-0.769-0.728c-0.209-0.248-0.375-0.52-0.508-0.817c-0.115-0.267-0.172-0.585-0.172-0.947
				c0-0.258,0.015-0.481,0.045-0.644c0.039-0.184,0.099-0.387,0.182-0.604c0.065-0.164,0.16-0.313,0.3-0.46
				c0.303-0.334,0.768-0.495,1.418-0.495c0.343,0,0.627,0.045,0.848,0.134c0.199,0.084,0.365,0.198,0.496,0.343
				c0.11,0.129,0.19,0.275,0.233,0.439c0.064,0.236,0.117,0.468,0.139,0.668c0.023,0.232,0.029,0.498,0.016,0.803
				c-0.006,0.214,0.073,0.425,0.223,0.583c0.151,0.155,0.356,0.243,0.573,0.243h0.455c0.436,0,0.788-0.353,0.795-0.788l0.012-0.298
				c0.007-0.217-0.007-0.491-0.036-0.816c-0.035-0.33-0.107-0.669-0.213-1.023c-0.122-0.414-0.331-0.801-0.623-1.144
				c-0.671-0.788-1.652-1.188-2.917-1.188c-1.232,0-2.22,0.391-2.914,1.139c-0.329,0.328-0.571,0.691-0.712,1.071
				c-0.131,0.339-0.224,0.651-0.278,0.94c-0.058,0.298-0.088,0.564-0.088,0.783v0.338c0,1.121,0.382,2.148,1.148,3.071
				c0.325,0.368,0.688,0.709,1.078,1.002c0.361,0.279,0.739,0.55,1.132,0.827c0.399,0.283,0.784,0.567,1.17,0.861
				c0.335,0.256,0.643,0.547,0.914,0.874c0.258,0.311,0.458,0.659,0.616,1.067c0.153,0.394,0.227,0.854,0.227,1.407
				c0,0.443-0.066,0.81-0.192,1.088c-0.134,0.282-0.291,0.495-0.496,0.657c-0.211,0.17-0.447,0.294-0.713,0.373
				c-0.549,0.158-1.048,0.181-1.688,0.031c-0.224-0.047-0.433-0.153-0.631-0.312c-0.2-0.166-0.37-0.401-0.513-0.708
				c-0.146-0.337-0.221-0.796-0.221-1.365c0-0.438-0.357-0.796-0.797-0.796h-0.455c-0.439,0-0.796,0.357-0.796,0.796
				c0,0.685,0.106,1.342,0.316,1.956c0.221,0.661,0.569,1.207,1.051,1.632c0.478,0.4,0.992,0.662,1.539,0.78
				c0.483,0.108,0.922,0.162,1.303,0.162c1.129,0,2.098-0.32,2.889-0.963c0.962-0.804,1.449-1.927,1.449-3.331
				c0-1.426-0.438-2.682-1.304-3.742C396.912,258.702,396.498,258.298,396.03,257.935z"/>
			<path fill="#0D6073" d="M404.364,250.456c-0.023-0.007-0.056-0.016-0.09-0.025c-0.063-0.02-0.133-0.038-0.203-0.045
				c-0.403-0.05-0.777,0.232-0.859,0.636l-2.913,14.424c-0.072,0.351,0.143,0.728,0.464,0.891c0.092,0.043,0.338,0.102,0.49,0.117
				c0.073,0.017,0.153,0.027,0.214,0.027h0.041c0.38,0,0.705-0.267,0.78-0.635l2.934-14.586
				C405.223,250.804,404.915,250.489,404.364,250.456z"/>
			<path fill="#0D6073" d="M425.385,259.779c0.163-0.082,0.314-0.182,0.456-0.293c0.347-0.271,0.647-0.607,0.889-0.99
				c0.312-0.472,0.559-1.03,0.738-1.655c0.167-0.616,0.254-1.242,0.254-1.862c0-0.615-0.083-1.219-0.257-1.849
				c-0.174-0.618-0.419-1.18-0.736-1.677c-0.371-0.568-0.892-1.013-1.556-1.325c-0.637-0.292-1.405-0.438-2.287-0.438h-2.483
				c-0.438,0-0.796,0.355-0.796,0.794v15.701c0,0.438,0.357,0.796,0.796,0.796h0.452c0.44,0,0.797-0.358,0.797-0.796v-5.921
				l1.732-0.009l2.728,6.226c0.126,0.292,0.412,0.477,0.729,0.477h0.47c0.008,0,0.014,0,0.021,0c0.411-0.05,0.816-0.351,0.816-0.795
				c0-0.199-0.073-0.382-0.196-0.522L425.385,259.779z M424.343,257.999c-0.152,0.082-0.544,0.222-1.457,0.222h-1.234v-6.485h1.234
				c0.575,0,1.045,0.081,1.396,0.239c0.323,0.149,0.562,0.344,0.72,0.583c0.202,0.323,0.363,0.689,0.489,1.123
				c0.123,0.43,0.186,0.861,0.186,1.286c0,0.437-0.062,0.875-0.185,1.301c-0.13,0.438-0.289,0.81-0.486,1.119
				C424.832,257.656,424.617,257.856,424.343,257.999z"/>
			<path fill="#0D6073" d="M437.806,249.581h-0.452c-0.44,0-0.796,0.358-0.796,0.796v12.329c0,0.275-0.014,0.511-0.049,0.708
				c-0.037,0.193-0.1,0.402-0.186,0.621c-0.073,0.179-0.179,0.344-0.327,0.502c-0.63,0.664-2.146,0.683-2.745,0.025
				c-0.139-0.149-0.244-0.331-0.316-0.538c-0.091-0.263-0.147-0.515-0.179-0.748c-0.03-0.258-0.045-0.57-0.045-0.938
				c0-0.438-0.355-0.796-0.797-0.796h-0.454c-0.429,0-0.783,0.43-0.798,0.856l-0.009,0.288c-0.008,0.252,0.012,0.564,0.065,0.919
				c0.049,0.368,0.145,0.755,0.282,1.137c0.155,0.445,0.404,0.851,0.736,1.205c0.698,0.755,1.657,1.139,2.851,1.139
				c1.256,0,2.241-0.386,2.932-1.152c0.284-0.321,0.508-0.681,0.67-1.071c0.138-0.341,0.24-0.664,0.312-0.977
				c0.065-0.31,0.102-0.592,0.102-0.842v-12.667C438.604,249.939,438.246,249.581,437.806,249.581z"/>
		</g>
	</g>
</g>
</svg>
