<?xml version="1.0" encoding="utf-8"?>
<!-- Generator: Adobe Illustrator 16.0.0, SVG Export Plug-In . SVG Version: 6.00 Build 0)  -->
<!DOCTYPE svg PUBLIC "-//W3C//DTD SVG 1.1//EN" "http://www.w3.org/Graphics/SVG/1.1/DTD/svg11.dtd">
<svg version="1.1" id="Layer_1" xmlns="http://www.w3.org/2000/svg" xmlns:xlink="http://www.w3.org/1999/xlink" x="0px" y="0px"
	 width="708.97px" height="708.975px" viewBox="0 0 708.97 708.975" enable-background="new 0 0 708.97 708.975"
	 xml:space="preserve">
<g>
	<g>
		<path fill="none" d="M354.449,0C158.277,0.005,0.984,158.957,0.005,352.592c-0.989,195.506,156.723,355.125,352.128,356.375
			c196.356,1.257,356.236-157.195,356.835-353.328C709.569,158.867,550.23-0.114,354.449,0z"/>
		<path fill-rule="evenodd" clip-rule="evenodd" fill="#FFFFFF" d="M354.449,0C550.23-0.114,709.569,158.867,708.968,355.639
			c-0.599,196.133-160.479,354.585-356.835,353.328C156.728,707.717-0.984,548.098,0.005,352.592
			C0.984,158.957,158.277,0.005,354.449,0z M171.773,69.674c-1.216,0.748-2.229,1.331-3.203,1.974
			c-20.028,13.221-38.503,28.332-55.32,45.461c-35.685,36.346-62.071,78.477-78.766,126.633
			c-6.954,20.059-11.891,40.606-14.94,61.618c-1.539,10.605-2.627,21.256-3.108,31.95c-0.355,7.897-0.219,15.817-0.254,23.726
			c-0.039,8.801,0.613,17.564,1.431,26.322c1.123,12.023,2.93,23.938,5.345,35.768c6.146,30.093,16.087,58.88,30.355,86.07
			c35.951,68.508,88.893,119.473,158.871,152.526c33.729,15.931,69.322,25.486,106.408,29.338c9.45,0.981,18.966,1.465,28.464,1.813
			c11.913,0.437,23.814-0.134,35.699-1.116c9.161-0.757,18.265-1.89,27.337-3.356c18.646-3.014,36.896-7.603,54.736-13.776
			c50.85-17.595,94.944-45.837,132.452-84.371c30.533-31.369,54.167-67.293,70.749-107.824
			c14.851-36.303,22.94-74.104,24.639-113.252c0.745-17.188,0.222-34.364-1.675-51.49c-1.452-13.119-3.545-26.125-6.495-38.983
			c-8.956-39.024-24.329-75.343-46.273-108.845c-3.633-5.547-7.271-11.149-11.486-16.245c-6.837-8.262-14.511-15.77-22.666-22.758
			c-9.334-7.997-19.326-14.982-30.667-19.89c-9.284-4.018-18.977-6.19-29.09-6.219c-8.031-0.023-15.935,1.205-23.664,3.345
			c-8.308,2.3-16.542,4.86-24.844,7.18c-9.222,2.577-18.574,4.132-28.18,2.652c-7.888-1.215-15.216-3.792-21.055-9.511
			c-4.055-3.971-7.988-8.069-11.929-12.155c-5.846-6.061-11.931-11.838-19.23-16.152c-10.999-6.5-22.824-8.819-35.484-6.941
			c-8.226,1.22-15.617,4.475-22.521,8.971c-5.581,3.634-10.631,7.939-15.565,12.389c-5.583,5.034-11.082,10.168-16.785,15.063
			c-7.139,6.128-14.841,11.514-23.94,14.258c-6.095,1.838-12.385,3.108-18.653,4.284c-14.361,2.692-28.839,3.66-43.435,2.36
			c-7.59-0.676-15.026-2.087-22.249-4.51c-12.909-4.331-23.856-11.479-31.999-22.576c-5.671-7.729-9.222-16.404-11.355-25.696
			C172.843,75.158,172.369,72.582,171.773,69.674z"/>
		<path fill-rule="evenodd" clip-rule="evenodd" fill="none" d="M171.773,69.674c0.596,2.908,1.07,5.484,1.656,8.035
			c2.133,9.292,5.684,17.967,11.355,25.696c8.143,11.098,19.09,18.245,31.999,22.576c7.223,2.423,14.659,3.833,22.249,4.51
			c14.595,1.299,29.073,0.332,43.435-2.36c6.268-1.176,12.558-2.446,18.653-4.284c9.1-2.745,16.802-8.13,23.94-14.258
			c5.703-4.896,11.201-10.029,16.785-15.063c4.934-4.45,9.984-8.755,15.565-12.389c6.904-4.496,14.296-7.75,22.521-8.971
			c12.66-1.878,24.485,0.44,35.484,6.941c7.3,4.314,13.385,10.091,19.23,16.152c3.94,4.086,7.874,8.184,11.929,12.155
			c5.839,5.719,13.167,8.296,21.055,9.511c9.605,1.48,18.958-0.076,28.18-2.652c8.302-2.319,16.536-4.879,24.844-7.18
			c7.729-2.14,15.633-3.368,23.664-3.345c10.113,0.029,19.806,2.201,29.09,6.219c11.341,4.908,21.333,11.893,30.667,19.89
			c8.155,6.988,15.829,14.496,22.666,22.758c4.216,5.096,7.854,10.698,11.486,16.245c21.944,33.502,37.317,69.82,46.273,108.845
			c2.95,12.857,5.043,25.864,6.495,38.983c1.896,17.126,2.42,34.303,1.675,51.49c-1.698,39.148-9.788,76.949-24.639,113.252
			c-16.582,40.531-40.216,76.455-70.749,107.824c-37.508,38.534-81.603,66.776-132.452,84.371
			c-17.841,6.174-36.09,10.763-54.736,13.776c-9.072,1.467-18.176,2.6-27.337,3.356c-11.885,0.982-23.786,1.553-35.699,1.116
			c-9.499-0.349-19.014-0.832-28.464-1.813c-37.086-3.852-72.68-13.407-106.408-29.338
			c-69.979-33.054-122.92-84.019-158.871-152.526c-14.269-27.19-24.21-55.978-30.355-86.07c-2.416-11.829-4.223-23.744-5.345-35.768
			c-0.817-8.758-1.47-17.521-1.431-26.322c0.035-7.909-0.101-15.829,0.254-23.726c0.481-10.694,1.569-21.345,3.108-31.95
			c3.05-21.012,7.987-41.559,14.94-61.618c16.694-48.156,43.081-90.287,78.766-126.633c16.817-17.129,35.292-32.24,55.32-45.461
			C169.544,71.005,170.557,70.422,171.773,69.674z M307.28,506.697c6.796-0.08,14.79-0.271,22.706-1.501
			c6.976-1.084,13.741-2.945,20.035-6.245c11.226-5.886,18.448-14.83,20.789-27.441c1.46-7.866,1.247-15.789-0.051-23.611
			c-1.501-9.053-3.549-18.014-5.268-27.032c-1.406-7.369-2.983-14.726-3.933-22.158c-1.242-9.72,0.416-19.146,4.576-28.032
			c2.471-5.277,5.228-10.424,7.921-15.595c1.923-3.692,3.771-7.403,4.794-11.47c0.833-3.31,1.009-6.607,0.105-9.943
			c-1.54-5.682-5.48-9.005-10.721-11.102c-4.274-1.71-8.766-2.515-13.308-2.815c-8.092-0.537-16.135,0.031-24.046,1.912
			c-3.656,0.869-7.247,1.964-10.552,3.818c-3.881,2.178-6.769,5.259-7.46,9.742c-0.395,2.562-0.316,5.286,0.069,7.859
			c0.873,5.814,3.417,11.116,5.55,16.542c1.752,4.455,3.673,8.888,4.898,13.496c2.611,9.822-1.945,17.639-11.665,20.672
			c-5.077,1.584-10.214,1.679-15.374,0.386c-5.043-1.264-7.807-4.386-8.392-9.515c-0.355-3.113-0.29-6.232,0.32-9.298
			c0.856-4.307,1.876-8.58,2.802-12.872c1.349-6.254,2.638-12.502,1.771-18.979c-0.863-6.452-3.969-11.376-9.583-14.694
			c-4.495-2.656-9.442-3.83-14.572-4.327c-6.075-0.589-12.139-0.258-18.173,0.514c-5.08,0.65-10.064,1.758-14.806,3.771
			c-3.627,1.541-7.078,3.363-9.838,6.264c-2.65,2.785-3.636,6.068-3.152,9.893c0.517,4.087,2.227,7.677,4.509,10.982
			c2.587,3.747,5.393,7.343,8.115,10.997c4.848,6.507,8.161,13.693,9.748,21.674c1.973,9.92,1.416,19.898,0.646,29.861
			c-0.8,10.353-2.153,20.664-2.229,31.066c-0.07,9.414,1.056,18.633,4.261,27.559c4.168,11.607,11.6,20.104,23.147,24.773
			c6.736,2.724,13.801,3.968,21.015,4.363C296.644,506.472,301.364,506.519,307.28,506.697z M111.465,485.931
			c0.012,10.878,0.518,18.602,2.928,26.068c3.948,12.232,12.002,19.886,24.836,22.255c7.03,1.298,14.071,1.108,20.961-0.42
			c9.342-2.072,18.634-4.443,27.822-7.116c8.697-2.53,16.902-6.287,24.332-11.6c7.579-5.419,12.179-12.737,14.198-21.769
			c1.842-8.242,1.617-16.545,0.31-24.784c-2.534-15.966-6.417-31.618-11.852-46.858c-2.098-5.88-4.613-11.582-7.981-16.87
			c-2.075-3.259-4.417-6.291-7.61-8.545c-4.261-3.008-8.72-3.216-13.333-0.833c-2.918,1.507-5.189,3.704-6.924,6.472
			c-1.316,2.1-2.536,4.266-3.954,6.293c-1.046,1.495-2.234,2.931-3.556,4.184c-1.757,1.665-3.984,2.49-6.398,2.072
			c-6.658-1.154-11.429-4.706-13.675-11.262c-1.401-4.09-1.586-8.31-1.151-12.556c0.885-8.638,3.231-16.918,6.212-25.046
			c0.96-2.619,1.881-5.28,2.488-7.996c1.783-7.988-2.336-13.009-8.326-15.207c-1.84-0.675-3.88-0.966-5.851-1.097
			c-6.403-0.423-12.55,1.056-18.583,2.971c-11.531,3.661-22.388,8.925-33.184,14.298c-3.597,1.791-6.736,4.286-9.523,7.205
			c-8.44,8.837-8.534,19.832-0.111,28.679c1.863,1.956,4.035,3.632,6.146,5.336c3.732,3.012,7.626,5.828,11.272,8.938
			c6.296,5.371,10.314,12.213,11.832,20.333c0.833,4.457,1.506,9.039,1.426,13.55c-0.143,8.139-0.881,16.268-1.417,24.398
			C112.313,474.356,111.766,481.684,111.465,485.931z M607.189,440.062c0-1.279,0.075-2.564-0.014-3.838
			c-0.341-4.894-1.733-9.421-4.873-13.291c-4.989-6.147-12.26-7.209-18.74-2.668c-1.631,1.143-3.06,2.57-4.628,3.808
			c-1.754,1.383-3.455,2.876-5.366,4.005c-4.147,2.449-8.224,1.359-11.607-1.236c-1.817-1.394-2.47-3.341-1.842-5.556
			c0.322-1.135,0.735-2.354,1.467-3.239c1.772-2.145,3.578-4.324,5.688-6.114c4.563-3.868,9.887-6.544,15.548-8.335
			c7.757-2.453,15.611-4.605,23.461-6.754c5.311-1.454,10.725-2.543,15.786-4.811c2.575-1.153,4.976-2.557,6.901-4.669
			c1.641-1.8,2.41-3.896,2.357-6.346c-0.059-2.714-1.243-4.925-2.896-6.942c-2.154-2.63-4.768-4.77-7.701-6.424
			c-4.45-2.509-8.965-4.917-13.547-7.176c-13.89-6.847-28.396-11.989-43.611-14.921c-7.91-1.525-15.905-2.664-23.898-3.689
			c-4.179-0.536-8.402-0.808-12.672-0.209c-7.262,1.019-11.558,5.237-12.345,12.471c-0.575,5.295-0.046,10.541,0.685,15.757
			c0.537,3.831,2.1,7.234,5.651,9.309c3.514,2.051,7.277,2.748,11.301,1.979c4.718-0.9,8.929-3.016,12.906-5.57
			c4.288-2.754,8.922-4.675,13.792-5.979c2.914-0.781,5.942-1.327,8.948-1.504c1.918-0.112,4.045,0.289,5.801,1.078
			c4.198,1.884,4.637,6.876,0.992,9.633c-1.141,0.863-2.38,1.636-3.667,2.261c-2.512,1.219-5.051,2.399-7.646,3.428
			c-6.529,2.586-13.151,4.945-19.632,7.645c-6.566,2.734-12.967,5.841-18.978,9.691c-8.728,5.589-15.443,12.92-19.268,22.633
			c-1.929,4.898-3.826,9.851-5.17,14.929c-3.411,12.895-6.514,25.87-9.715,38.82c-1.326,5.364-2.222,10.791-2.358,16.336
			c-0.293,11.873,4.487,20.85,14.976,26.676c4.355,2.419,8.912,4.357,13.704,5.644c10.482,2.814,20.999,5.508,31.519,8.184
			c6.45,1.641,12.99,2.723,19.682,2.354c8.637-0.478,15.603-4.022,20.026-11.636c1.671-2.874,2.975-6.023,4.019-9.188
			c2.356-7.146,3.702-14.548,4.856-21.971c1.941-12.476,3.986-24.92,7.423-37.102C606.112,451.838,607.337,446.041,607.189,440.062z
			 M437.347,321.07c-1.852,0.134-4.732,0.223-7.581,0.579c-4.211,0.526-8.353,1.416-12.101,3.549
			c-4.689,2.669-7.324,6.631-7.151,12.121c0.08,2.537,0.203,5.166,0.923,7.568c1.646,5.501,3.611,10.91,5.561,16.315
			c1.967,5.453,3.179,11.005,3.312,16.836c0.201,8.812-1.862,17.11-5.183,25.163c-3.609,8.756-8.476,16.83-13.587,24.767
			c-5.21,8.09-9.626,16.583-12.856,25.66c-3.023,8.49-5.091,17.172-4.444,26.274c0.829,11.658,6.253,20.442,16.645,25.997
			c1.546,0.826,3.147,1.567,4.776,2.217c6.289,2.509,12.847,3.768,19.599,4.12c9.312,0.486,18.342-0.716,26.91-4.536
			c10.494-4.678,17.366-12.456,20.283-23.695c1.926-7.422,1.975-14.839,0.588-22.317c-1.405-7.574-4.002-14.79-6.677-21.981
			c-2.923-7.858-5.924-15.688-7.733-23.912c-2.539-11.544-1.784-22.743,3.585-33.386c2.262-4.484,4.876-8.798,7.475-13.104
			c1.731-2.87,3.87-5.5,5.544-8.4c1.55-2.684,3.051-5.478,3.999-8.408c2.49-7.691,0.744-14.494-5.06-20.188
			c-2.897-2.842-6.355-4.822-10.063-6.38C455.881,322.471,447.226,321.264,437.347,321.07z M310.023,254.036
			c-0.133,0.004-0.267,0.009-0.4,0.014c0,2.397,0.065,4.797-0.013,7.191c-0.198,6.068-0.614,12.133-0.641,18.201
			c-0.019,4.064,0.391,8.146,1.803,12.032c0.915,2.521,2.171,4.839,4.411,6.425c6.492,4.595,15.995,4.345,21.538-3.187
			c3.171-4.31,4.155-9.277,3.815-14.528c-0.329-5.081-1.965-9.842-3.726-14.569c-1.672-4.49-3.465-8.947-4.867-13.522
			c-2.385-7.785-1.738-15.299,2.663-22.349c1.139-1.824,2.074-3.783,3.004-5.728c1.089-2.276,1.483-4.699,1.321-7.23
			c-0.247-3.854-2.151-6.432-5.982-6.99c-3.126-0.456-6.354-0.336-9.531-0.264c-1.403,0.031-2.865,0.402-4.179,0.924
			c-2.813,1.117-4.104,3.622-3.443,6.586c0.345,1.548,0.974,3.033,1.471,4.548c0.448,1.363,1.071,2.701,1.279,4.1
			c0.167,1.13,0.049,2.411-0.329,3.49c-0.701,1.998-2.557,2.344-3.886,0.708c-0.828-1.019-1.47-2.303-1.814-3.572
			c-0.39-1.441-0.349-2.998-0.504-4.503c-0.206-1.98-0.211-4.011-0.68-5.927c-0.694-2.832-2.993-4.306-5.721-4.05
			c-3.126,0.294-5.471,2.142-6.292,5.394c-0.583,2.309-0.807,4.715-1.095,7.09c-0.322,2.655-0.918,5.213-2.562,7.373
			c-0.439,0.577-1.224,1.167-1.896,1.226c-1.03,0.089-1.329-0.97-1.641-1.792c-0.597-1.568-0.494-3.147,0.053-4.694
			c0.611-1.731,1.357-3.417,1.919-5.164c1.21-3.764-0.125-6.606-3.791-8.115c-2.104-0.867-4.341-1.193-6.583-0.929
			c-3.089,0.363-6.198,0.743-9.215,1.464c-1.979,0.473-3.938,1.354-5.676,2.425c-2.161,1.331-3.097,3.519-2.3,6.011
			c0.523,1.636,1.326,3.262,2.35,4.635c1.232,1.653,2.833,3.029,4.27,4.53c7.796,8.144,9.979,17.719,7.226,28.525
			c-0.453,1.778-1.139,3.495-1.625,5.266c-1.608,5.848-3.334,11.67-4.698,17.575c-0.854,3.699-0.554,7.468,0.966,11.057
			c4.417,10.43,18.654,13.169,27.36,5.738c0.926-0.791,1.589-2.007,2.095-3.149c1.211-2.736,1.622-5.665,1.657-8.646
			c0.124-10.264-1.595-20.374-2.559-30.546c-0.362-3.815-0.834-7.619-1.169-11.437c-0.171-1.95,0.26-3.838,1.308-5.509
			c1.275-2.032,3.442-1.972,4.509,0.187c0.554,1.123,0.917,2.411,1.046,3.657C309.613,247.342,309.784,250.692,310.023,254.036z
			 M158.137,302.798c-0.251-3.462-0.419-6.252-0.662-9.035c-0.873-9.999-2.957-19.742-6.395-29.171
			c-2.368-6.493-5.365-12.667-10.072-17.847c-2.791-3.071-6.055-5.448-10.148-6.501c-4.022-1.035-7.771-0.61-11.041,2.172
			c-1.644,1.398-3.222,2.876-4.893,4.241c-1.357,1.108-2.72,2.258-4.236,3.113c-3.186,1.795-5.437,0.719-5.627-2.893
			c-0.274-5.177-0.14-10.375-0.244-15.562c-0.047-2.305,0.024-4.664-0.441-6.897c-0.862-4.139-2.903-4.766-5.822-4.77
			c-6.182-0.01-11.812,1.774-16.875,5.277c-1.167,0.807-2.225,1.849-3.117,2.958c-2.337,2.906-2.468,6.032-0.28,9.045
			c1.212,1.669,2.688,3.165,4.156,4.626c7.343,7.305,13.447,15.398,16.656,25.418c2.524,7.88,3.717,16.01,4.716,24.182
			c0.979,8.007,1.829,16.032,2.969,24.016c0.47,3.295,1.259,6.612,2.42,9.726c1.927,5.168,5.926,8.082,11.417,8.57
			c2.922,0.26,5.913,0.227,8.833-0.066c6.288-0.631,12.166-2.593,17.419-6.205c5.366-3.689,9.009-8.647,10.305-15.049
			C157.837,308.881,157.877,305.491,158.137,302.798z M376.947,244.68c0.335-5.958,0.588-10.745,0.89-15.528
			c0.044-0.704,0.229-1.433,0.504-2.083c1.33-3.133,4.6-3.996,7.306-1.945c1.252,0.949,2.138,2.197,2.397,3.753
			c0.355,2.122,0.724,4.257,0.835,6.4c0.264,5.065-0.538,10.04-1.63,14.965c-1.572,7.092-3.363,14.14-4.745,21.267
			c-1.213,6.256-1.067,12.543,0.677,18.757c0.987,3.516,3.046,6.11,6.085,7.996c3.852,2.389,8.055,3.398,12.577,3.155
			c4.886-0.263,8.267-2.6,10.088-7.171c1.139-2.858,1.643-5.841,1.711-8.892c0.15-6.635-1.129-13.032-3.427-19.229
			c-1.194-3.219-2.596-6.363-3.745-9.598c-1.041-2.928-1.981-5.903-2.763-8.91c-1.519-5.85-0.157-11.37,2.042-16.82
			c1.041-2.578,1.989-5.261,2.46-7.987c1.145-6.624-0.261-11.776-8.504-14.698c-0.3-0.106-0.604-0.206-0.909-0.296
			c-4.771-1.409-9.62-1.376-14.488-0.728c-3.917,0.522-7.365,2.035-10.094,5.003c-0.537,0.583-1.185,1.075-1.822,1.555
			c-3.338,2.515-5.14,2.292-7.699-0.919c-0.398-0.5-0.743-1.074-1.233-1.461c-0.676-0.535-1.415-1.167-2.216-1.334
			c-2.895-0.606-5.738-0.399-8.304,1.266c-2.383,1.547-3.421,3.952-2.491,6.623c0.671,1.929,1.753,3.741,2.826,5.5
			c1.454,2.384,3.222,4.583,4.589,7.011c2.511,4.457,3.467,9.272,2.389,14.335c-0.646,3.038-1.336,6.093-2.353,9.02
			c-1.544,4.447-3.408,8.784-5.103,13.18c-2.272,5.893-4.376,11.834-5.363,18.112c-1.202,7.643,2.665,13.586,10.192,15.487
			c3.393,0.857,6.804,0.71,10.203-0.091c6.056-1.427,9.797-5.125,11.02-11.254c0.343-1.717,0.636-3.464,0.716-5.208
			c0.333-7.206-0.446-14.362-1.089-21.524C377.913,256.107,377.391,249.823,376.947,244.68z M210.218,258.726
			c0.137,1.734,0.271,5.013,0.676,8.258c1.005,8.061,3.039,15.843,6.839,23.079c3.38,6.436,7.912,11.807,14.476,15.223
			c10.022,5.215,20.725,3.339,28.354-5c5.74-6.273,8.577-13.772,9.055-22.184c0.633-11.127-0.768-22.019-4.24-32.608
			c-3.026-9.229-7.53-17.582-14.546-24.495c-4.966-4.893-10.706-7.099-17.626-6.001c-7.551,1.199-13.548,4.631-16.822,11.888
			c-0.592,1.31-1.172,2.628-1.683,3.971C211.474,239.336,210.427,248.188,210.218,258.726z M525.118,270.768
			c0-1.919,0.198-3.865-0.052-5.751c-0.301-2.275-0.709-4.61-1.564-6.719c-1.306-3.218-4.093-4.208-7.295-2.866
			c-1.464,0.614-2.846,1.453-4.202,2.291c-4.069,2.512-8.468,3.33-13.109,2.356c-3.407-0.715-6.362-2.209-7.444-5.952
			c-1.333-4.612,0.797-7.128,5.506-6.264c3.292,0.604,6.53,1.502,9.79,2.28c3.379,0.807,6.787,1.253,10.182,0.247
			c4.788-1.419,8.206-4.292,9.118-9.442c0.467-2.634,0.176-5.252-0.754-7.79c-3.365-9.187-11.561-13.479-20.799-13.106
			c-11.222,0.454-20.258,5.383-26.525,14.884c-1.534,2.326-2.915,4.787-4.087,7.315c-5.96,12.851-8.002,26.376-6.568,40.427
			c0.531,5.196,1.835,10.223,4.271,14.892c3.111,5.962,7.821,10.007,14.323,11.927c4.74,1.399,9.574,1.75,14.473,1.429
			c10.421-0.684,19.168-7.799,21.935-17.875C524.315,285.763,525.124,278.312,525.118,270.768z M207.398,242.487
			c-0.128-5.314-1.361-10.293-4.686-14.567c-3.298-4.24-7.815-5.448-12.821-3.464c-3.409,1.351-6.284,3.457-8.582,6.339
			c-0.895,1.123-1.765,2.289-2.803,3.269c-1.181,1.113-2.412,1.083-3.674,0.075c-0.619-0.494-1.136-1.12-1.678-1.706
			c-1.402-1.516-3.104-2.642-5.129-2.888c-5.462-0.661-10.292,0.924-14.32,4.675c-1.636,1.524-2.3,3.573-1.446,5.702
			c0.823,2.05,1.777,4.126,3.085,5.884c2.239,3.01,4.894,5.707,7.191,8.678c1.554,2.008,3.008,4.153,4.132,6.423
			c2.837,5.729,2.925,11.9,2.236,18.076c-0.699,6.268-1.827,12.492-2.417,18.768c-0.311,3.307-0.257,6.75,0.305,10.016
			c1.15,6.692,6.045,10.978,12.706,11.894c3.39,0.466,6.706,0.127,9.992-0.617c4.86-1.101,9.554-2.672,13.599-5.703
			c6.243-4.678,7.476-11.094,3.387-17.714c-1.427-2.311-3.006-4.531-4.583-6.744c-3.387-4.754-6.876-9.437-10.211-14.226
			c-2.613-3.752-4.75-7.774-6.116-12.169c-0.884-2.847-1.433-5.75-1.202-8.736c0.204-2.642,0.601-5.267,2.356-7.418
			c0.715-0.876,1.59-1.71,2.836-1.473c1.428,0.271,1.683,1.568,1.975,2.734c0.114,0.458,0.083,0.952,0.113,1.431
			c0.054,0.878,0.044,1.765,0.166,2.633c0.309,2.21,1.598,3.628,3.551,4.003c4.846,0.928,8.729-1.125,10.669-5.674
			C207.045,247.597,207.442,245.084,207.398,242.487z M443.603,214.104c-0.017,0.117-0.032,0.234-0.048,0.351
			c-0.879,0-1.766-0.069-2.637,0.015c-1.665,0.161-3.36,0.252-4.973,0.653c-3.615,0.897-5.334,3.2-5.284,6.956
			c0.018,1.345,0.153,2.725,0.492,4.021c0.603,2.314,1.343,4.598,2.129,6.857c2.115,6.079,2.248,12.184,0.513,18.373
			c-1.459,5.205-3.952,9.926-6.575,14.602c-1.562,2.786-3.159,5.564-4.512,8.453c-2.394,5.115-3.849,10.443-3.626,16.203
			c0.269,6.926,3.597,11.573,9.883,14.227c4.504,1.902,9.24,2.578,14.074,2.159c4.779-0.415,9.219-1.912,12.925-5.132
			c2.984-2.593,5.268-5.676,5.664-9.7c0.241-2.442,0.319-5.014-0.18-7.391c-0.867-4.124-2.155-8.168-3.421-12.198
			c-1.291-4.11-2.902-8.123-4.122-12.252c-1.019-3.449-1.783-7.043-0.812-10.625c0.663-2.444,1.601-4.85,2.716-7.125
			c1.334-2.72,3.02-5.265,4.497-7.917c1.29-2.316,2.242-4.756,2.617-7.414c0.473-3.361-0.515-6.151-3.075-8.367
			c-1.908-1.652-4.118-2.826-6.572-3.303C450.078,214.929,446.829,214.574,443.603,214.104z M573.282,265.6
			c-3.332-4.052-7.43-5.732-12.368-5.567c-3.357,0.112-4.598,1.419-4.357,4.818c0.123,1.749,0.562,3.479,0.624,5.227
			c0.047,1.326-0.08,2.727-0.478,3.985c-0.568,1.798-1.821,2.433-3.556,1.754c-1.299-0.508-2.544-1.34-3.584-2.281
			c-2.698-2.44-4.61-2.5-7.245,0.026c-2.573,2.467-4.488,5.402-6.021,8.593c-3.599,7.493-5.571,15.449-6.585,23.659
			c-0.416,3.367-0.136,6.704,0.955,9.941c0.629,1.867,1.651,3.424,3.37,4.51c6.155,3.889,12.731,5.789,20.063,4.577
			c2.813-0.465,4.944-1.751,6.188-4.335c0.517-1.073,0.977-2.191,1.307-3.334c1.021-3.54,0.679-7.146,0.202-10.706
			c-0.596-4.448-1.116-8.889-0.542-13.366c1.23-9.579,5.049-18.085,10.827-25.762C572.46,266.837,572.798,266.305,573.282,265.6z
			 M600.967,299.142c-0.125-1.262-0.278-3.493-0.59-5.702c-0.178-1.256-0.627-2.473-0.935-3.712
			c-1.547-6.239-11.838-10.322-17.787-5.127c-2.671,2.333-5.016,4.907-7.047,7.805c-4.703,6.709-7.286,14.166-7.91,22.304
			c-0.342,4.449,0.081,8.777,2.452,12.731c3.817,6.366,12.009,8.468,18.366,4.702c2.462-1.458,4.436-3.391,5.891-5.848
			C598.189,318.224,600.745,309.513,600.967,299.142z M461.863,193.882c0.198-6.444-4.615-13.319-12.827-13.281
			c-8.248,0.039-12.851,6.617-12.905,13.283c-0.06,7.178,5.721,13.167,12.782,13.169
			C456.927,207.058,462.028,200.415,461.863,193.882z"/>
		<path fill-rule="evenodd" clip-rule="evenodd" fill="#FFFFFF" d="M307.28,506.697c-5.916-0.179-10.637-0.226-15.345-0.484
			c-7.214-0.396-14.279-1.64-21.015-4.363c-11.548-4.669-18.979-13.166-23.147-24.773c-3.205-8.926-4.331-18.145-4.261-27.559
			c0.077-10.402,1.43-20.714,2.229-31.066c0.77-9.963,1.327-19.941-0.646-29.861c-1.587-7.98-4.9-15.167-9.748-21.674
			c-2.722-3.654-5.528-7.25-8.115-10.997c-2.282-3.306-3.992-6.896-4.509-10.982c-0.484-3.825,0.502-7.108,3.152-9.893
			c2.76-2.9,6.211-4.723,9.838-6.264c4.742-2.014,9.726-3.122,14.806-3.771c6.035-0.771,12.099-1.103,18.173-0.514
			c5.129,0.497,10.077,1.671,14.572,4.327c5.614,3.317,8.72,8.242,9.583,14.694c0.867,6.477-0.422,12.725-1.771,18.979
			c-0.926,4.292-1.945,8.565-2.802,12.872c-0.609,3.065-0.675,6.185-0.32,9.298c0.585,5.129,3.349,8.251,8.392,9.515
			c5.16,1.293,10.296,1.198,15.374-0.386c9.72-3.033,14.276-10.85,11.665-20.672c-1.225-4.608-3.146-9.041-4.898-13.496
			c-2.133-5.426-4.678-10.728-5.55-16.542c-0.386-2.573-0.464-5.298-0.069-7.859c0.691-4.483,3.58-7.564,7.46-9.742
			c3.305-1.854,6.896-2.949,10.552-3.818c7.912-1.88,15.954-2.448,24.046-1.912c4.542,0.301,9.033,1.105,13.308,2.815
			c5.241,2.097,9.181,5.42,10.721,11.102c0.903,3.335,0.728,6.633-0.105,9.943c-1.023,4.066-2.871,7.777-4.794,11.47
			c-2.694,5.171-5.451,10.317-7.921,15.595c-4.16,8.886-5.818,18.312-4.576,28.032c0.95,7.433,2.527,14.789,3.933,22.158
			c1.719,9.019,3.767,17.979,5.268,27.032c1.297,7.822,1.511,15.745,0.051,23.611c-2.34,12.611-9.563,21.556-20.789,27.441
			c-6.294,3.3-13.059,5.161-20.035,6.245C322.07,506.427,314.077,506.617,307.28,506.697z"/>
		<path fill-rule="evenodd" clip-rule="evenodd" fill="#FFFFFF" d="M111.465,485.931c0.301-4.247,0.848-11.574,1.332-18.905
			c0.537-8.131,1.274-16.26,1.417-24.398c0.08-4.511-0.594-9.093-1.426-13.55c-1.518-8.12-5.536-14.962-11.832-20.333
			c-3.646-3.11-7.54-5.927-11.272-8.938c-2.111-1.704-4.283-3.38-6.146-5.336c-8.423-8.847-8.329-19.842,0.111-28.679
			c2.787-2.919,5.926-5.414,9.523-7.205c10.796-5.373,21.653-10.637,33.184-14.298c6.032-1.915,12.179-3.394,18.583-2.971
			c1.971,0.13,4.011,0.421,5.851,1.097c5.99,2.198,10.109,7.218,8.326,15.207c-0.606,2.716-1.527,5.377-2.488,7.996
			c-2.981,8.128-5.327,16.408-6.212,25.046c-0.435,4.246-0.25,8.466,1.151,12.556c2.247,6.556,7.017,10.107,13.675,11.262
			c2.414,0.418,4.641-0.407,6.398-2.072c1.322-1.253,2.51-2.688,3.556-4.184c1.418-2.027,2.637-4.193,3.954-6.293
			c1.735-2.768,4.006-4.965,6.924-6.472c4.613-2.383,9.071-2.175,13.333,0.833c3.193,2.254,5.535,5.286,7.61,8.545
			c3.368,5.288,5.883,10.99,7.981,16.87c5.436,15.24,9.318,30.893,11.852,46.858c1.307,8.239,1.533,16.542-0.31,24.784
			c-2.019,9.031-6.619,16.35-14.198,21.769c-7.43,5.312-15.635,9.069-24.332,11.6c-9.188,2.673-18.48,5.044-27.822,7.116
			c-6.89,1.528-13.931,1.718-20.961,0.42c-12.833-2.369-20.888-10.022-24.836-22.255
			C111.983,504.532,111.477,496.809,111.465,485.931z"/>
		<path fill-rule="evenodd" clip-rule="evenodd" fill="#FFFFFF" d="M607.189,440.062c0.147,5.979-1.077,11.776-2.684,17.47
			c-3.437,12.182-5.481,24.626-7.423,37.102c-1.154,7.423-2.5,14.824-4.856,21.971c-1.044,3.165-2.348,6.314-4.019,9.188
			c-4.424,7.613-11.39,11.158-20.026,11.636c-6.691,0.369-13.231-0.713-19.682-2.354c-10.52-2.676-21.036-5.369-31.519-8.184
			c-4.792-1.286-9.349-3.225-13.704-5.644c-10.488-5.826-15.269-14.803-14.976-26.676c0.137-5.545,1.032-10.972,2.358-16.336
			c3.201-12.95,6.304-25.926,9.715-38.82c1.344-5.078,3.241-10.03,5.17-14.929c3.824-9.713,10.54-17.044,19.268-22.633
			c6.011-3.851,12.411-6.957,18.978-9.691c6.48-2.699,13.103-5.059,19.632-7.645c2.595-1.028,5.134-2.209,7.646-3.428
			c1.287-0.625,2.526-1.397,3.667-2.261c3.645-2.757,3.206-7.749-0.992-9.633c-1.756-0.789-3.883-1.19-5.801-1.078
			c-3.006,0.177-6.034,0.723-8.948,1.504c-4.87,1.305-9.504,3.226-13.792,5.979c-3.978,2.555-8.188,4.67-12.906,5.57
			c-4.023,0.769-7.787,0.071-11.301-1.979c-3.552-2.074-5.114-5.478-5.651-9.309c-0.73-5.216-1.26-10.462-0.685-15.757
			c0.787-7.233,5.083-11.452,12.345-12.471c4.27-0.599,8.493-0.327,12.672,0.209c7.993,1.025,15.988,2.165,23.898,3.689
			c15.215,2.932,29.722,8.074,43.611,14.921c4.582,2.259,9.097,4.667,13.547,7.176c2.934,1.654,5.547,3.794,7.701,6.424
			c1.652,2.018,2.837,4.229,2.896,6.942c0.053,2.45-0.717,4.546-2.357,6.346c-1.926,2.112-4.326,3.516-6.901,4.669
			c-5.062,2.268-10.476,3.356-15.786,4.811c-7.85,2.148-15.704,4.301-23.461,6.754c-5.661,1.791-10.984,4.467-15.548,8.335
			c-2.11,1.79-3.916,3.97-5.688,6.114c-0.731,0.885-1.145,2.104-1.467,3.239c-0.628,2.215,0.024,4.162,1.842,5.556
			c3.384,2.596,7.46,3.686,11.607,1.236c1.911-1.129,3.612-2.622,5.366-4.005c1.568-1.237,2.997-2.665,4.628-3.808
			c6.48-4.541,13.751-3.479,18.74,2.668c3.14,3.87,4.532,8.397,4.873,13.291C607.265,437.497,607.189,438.782,607.189,440.062z"/>
		<path fill-rule="evenodd" clip-rule="evenodd" fill="#FFFFFF" d="M437.347,321.07c9.879,0.193,18.534,1.4,26.762,4.858
			c3.708,1.558,7.166,3.538,10.063,6.38c5.804,5.694,7.55,12.497,5.06,20.188c-0.948,2.931-2.449,5.725-3.999,8.408
			c-1.674,2.9-3.812,5.53-5.544,8.4c-2.599,4.306-5.213,8.619-7.475,13.104c-5.369,10.643-6.124,21.842-3.585,33.386
			c1.81,8.225,4.811,16.054,7.733,23.912c2.675,7.191,5.271,14.407,6.677,21.981c1.387,7.479,1.338,14.896-0.588,22.317
			c-2.917,11.239-9.789,19.018-20.283,23.695c-8.568,3.82-17.599,5.022-26.91,4.536c-6.752-0.353-13.31-1.611-19.599-4.12
			c-1.629-0.649-3.23-1.391-4.776-2.217c-10.392-5.555-15.815-14.339-16.645-25.997c-0.646-9.103,1.421-17.784,4.444-26.274
			c3.23-9.077,7.646-17.57,12.856-25.66c5.111-7.937,9.978-16.011,13.587-24.767c3.32-8.053,5.384-16.352,5.183-25.163
			c-0.133-5.831-1.345-11.383-3.312-16.836c-1.949-5.405-3.914-10.814-5.561-16.315c-0.72-2.402-0.843-5.032-0.923-7.568
			c-0.173-5.49,2.462-9.452,7.151-12.121c3.748-2.133,7.89-3.023,12.101-3.549C432.614,321.293,435.495,321.205,437.347,321.07z"/>
		<path fill-rule="evenodd" clip-rule="evenodd" fill="#FFFFFF" d="M310.023,254.036c-0.239-3.343-0.41-6.694-0.754-10.026
			c-0.128-1.247-0.492-2.535-1.046-3.657c-1.066-2.159-3.234-2.219-4.509-0.187c-1.048,1.671-1.479,3.559-1.308,5.509
			c0.335,3.817,0.807,7.622,1.169,11.437c0.963,10.173,2.683,20.283,2.559,30.546c-0.036,2.981-0.446,5.911-1.657,8.646
			c-0.506,1.142-1.168,2.358-2.095,3.149c-8.706,7.431-22.944,4.692-27.36-5.738c-1.52-3.589-1.82-7.358-0.966-11.057
			c1.364-5.905,3.09-11.728,4.698-17.575c0.487-1.771,1.172-3.488,1.625-5.266c2.754-10.807,0.57-20.382-7.226-28.525
			c-1.437-1.501-3.038-2.877-4.27-4.53c-1.023-1.373-1.827-2.999-2.35-4.635c-0.796-2.493,0.139-4.681,2.3-6.011
			c1.738-1.071,3.697-1.952,5.676-2.425c3.018-0.721,6.126-1.101,9.215-1.464c2.242-0.264,4.479,0.062,6.583,0.929
			c3.666,1.509,5,4.351,3.791,8.115c-0.562,1.747-1.308,3.433-1.919,5.164c-0.546,1.547-0.649,3.126-0.053,4.694
			c0.312,0.822,0.611,1.88,1.641,1.792c0.672-0.058,1.457-0.649,1.896-1.226c1.644-2.16,2.24-4.718,2.562-7.373
			c0.289-2.375,0.513-4.781,1.095-7.09c0.821-3.251,3.166-5.1,6.292-5.394c2.729-0.256,5.027,1.218,5.721,4.05
			c0.469,1.917,0.475,3.947,0.68,5.927c0.156,1.505,0.114,3.062,0.504,4.503c0.344,1.269,0.986,2.553,1.814,3.572
			c1.329,1.636,3.185,1.29,3.886-0.708c0.378-1.079,0.497-2.36,0.329-3.49c-0.208-1.399-0.832-2.737-1.279-4.1
			c-0.497-1.515-1.126-3-1.471-4.548c-0.661-2.964,0.63-5.469,3.443-6.586c1.314-0.521,2.775-0.893,4.179-0.924
			c3.178-0.072,6.405-0.191,9.531,0.264c3.831,0.559,5.735,3.136,5.982,6.99c0.162,2.531-0.232,4.954-1.321,7.23
			c-0.93,1.944-1.865,3.903-3.004,5.728c-4.401,7.049-5.048,14.563-2.663,22.349c1.402,4.575,3.195,9.033,4.867,13.522
			c1.761,4.728,3.397,9.489,3.726,14.569c0.34,5.251-0.644,10.218-3.815,14.528c-5.543,7.531-15.046,7.781-21.538,3.187
			c-2.24-1.586-3.496-3.905-4.411-6.425c-1.412-3.887-1.822-7.968-1.803-12.032c0.027-6.068,0.443-12.133,0.641-18.201
			c0.078-2.395,0.013-4.794,0.013-7.191C309.756,254.045,309.89,254.04,310.023,254.036z"/>
		<path fill-rule="evenodd" clip-rule="evenodd" fill="#FFFFFF" d="M158.137,302.798c-0.259,2.693-0.3,6.083-0.96,9.347
			c-1.296,6.402-4.938,11.359-10.305,15.049c-5.253,3.612-11.131,5.574-17.419,6.205c-2.92,0.293-5.911,0.327-8.833,0.066
			c-5.491-0.489-9.49-3.402-11.417-8.57c-1.161-3.114-1.95-6.431-2.42-9.726c-1.14-7.984-1.99-16.009-2.969-24.016
			c-0.999-8.172-2.192-16.302-4.716-24.182c-3.209-10.02-9.313-18.113-16.656-25.418c-1.469-1.461-2.944-2.957-4.156-4.626
			c-2.188-3.013-2.058-6.139,0.28-9.045c0.892-1.108,1.95-2.15,3.117-2.958c5.062-3.502,10.693-5.287,16.875-5.277
			c2.918,0.004,4.96,0.631,5.822,4.77c0.465,2.234,0.394,4.593,0.441,6.897c0.104,5.188-0.03,10.385,0.244,15.562
			c0.191,3.612,2.441,4.688,5.627,2.893c1.516-0.855,2.879-2.005,4.236-3.113c1.671-1.364,3.249-2.842,4.893-4.241
			c3.269-2.782,7.018-3.207,11.041-2.172c4.093,1.054,7.357,3.431,10.148,6.501c4.708,5.18,7.705,11.354,10.072,17.847
			c3.438,9.43,5.521,19.173,6.395,29.171C157.718,296.546,157.886,299.336,158.137,302.798z M117.894,264.032
			c0.074,3.625,0.648,7.153,2.031,10.508c0.449,1.089,1.078,2.136,1.787,3.081c1.652,2.199,5.842,1.495,6.566-0.916
			c0.389-1.292,0.999-2.515,1.449-3.791c2.318-6.565-1.056-11.624-5.914-14.951c-2.662-1.823-5.228-0.505-5.734,2.729
			C117.906,261.789,117.949,262.918,117.894,264.032z"/>
		<path fill-rule="evenodd" clip-rule="evenodd" fill="#FFFFFF" d="M376.947,244.68c0.443,5.143,0.966,11.427,1.529,17.708
			c0.643,7.162,1.422,14.318,1.089,21.524c-0.08,1.744-0.373,3.491-0.716,5.208c-1.223,6.128-4.964,9.827-11.02,11.254
			c-3.398,0.801-6.81,0.948-10.203,0.091c-7.528-1.901-11.394-7.844-10.192-15.487c0.987-6.277,3.091-12.219,5.363-18.112
			c1.695-4.396,3.559-8.732,5.103-13.18c1.016-2.927,1.706-5.982,2.353-9.02c1.078-5.063,0.123-9.879-2.389-14.335
			c-1.368-2.428-3.136-4.627-4.589-7.011c-1.072-1.758-2.154-3.57-2.826-5.5c-0.93-2.671,0.108-5.076,2.491-6.623
			c2.566-1.666,5.409-1.873,8.304-1.266c0.801,0.168,1.54,0.8,2.216,1.334c0.49,0.388,0.835,0.962,1.233,1.461
			c2.559,3.212,4.361,3.435,7.699,0.919c0.637-0.48,1.285-0.971,1.822-1.555c2.729-2.968,6.177-4.481,10.094-5.003
			c4.868-0.648,9.718-0.681,14.488,0.728c0.306,0.09,0.609,0.189,0.909,0.296c8.243,2.921,9.648,8.074,8.504,14.698
			c-0.471,2.726-1.419,5.409-2.46,7.987c-2.199,5.45-3.561,10.97-2.042,16.82c0.781,3.007,1.722,5.982,2.763,8.91
			c1.149,3.234,2.551,6.378,3.745,9.598c2.298,6.198,3.577,12.594,3.427,19.229c-0.068,3.051-0.572,6.034-1.711,8.892
			c-1.821,4.572-5.202,6.909-10.088,7.171c-4.522,0.243-8.726-0.766-12.577-3.155c-3.039-1.886-5.098-4.48-6.085-7.996
			c-1.744-6.214-1.89-12.501-0.677-18.757c1.382-7.127,3.173-14.175,4.745-21.267c1.092-4.926,1.894-9.9,1.63-14.965
			c-0.111-2.143-0.479-4.278-0.835-6.4c-0.26-1.556-1.146-2.804-2.397-3.753c-2.706-2.051-5.976-1.188-7.306,1.945
			c-0.275,0.65-0.46,1.379-0.504,2.083C377.535,233.936,377.282,238.722,376.947,244.68z"/>
		<path fill-rule="evenodd" clip-rule="evenodd" fill="#FFFFFF" d="M210.218,258.726c0.209-10.538,1.256-19.39,4.482-27.87
			c0.511-1.343,1.091-2.661,1.683-3.971c3.274-7.257,9.271-10.689,16.822-11.888c6.921-1.098,12.66,1.108,17.626,6.001
			c7.016,6.913,11.52,15.266,14.546,24.495c3.473,10.59,4.874,21.481,4.24,32.608c-0.479,8.411-3.315,15.91-9.055,22.184
			c-7.629,8.34-18.332,10.215-28.354,5c-6.564-3.416-11.096-8.787-14.476-15.223c-3.8-7.236-5.833-15.018-6.839-23.079
			C210.489,263.739,210.354,260.46,210.218,258.726z M236.992,250.525c0.558,0,1.12,0.047,1.672-0.008
			c4.653-0.462,6.203-1.932,5.748-6.564c-0.455-4.625-2.221-8.772-5.236-12.338c-0.558-0.659-1.241-1.253-1.968-1.722
			c-2.153-1.387-4.474-0.864-5.691,1.398c-0.588,1.093-0.997,2.376-1.121,3.609c-0.375,3.745-0.138,7.48,0.779,11.145
			C232.123,249.832,233.126,250.585,236.992,250.525z"/>
		<path fill-rule="evenodd" clip-rule="evenodd" fill="#FFFFFF" d="M525.118,270.768c0.006,7.543-0.803,14.995-2.804,22.283
			c-2.767,10.076-11.514,17.191-21.935,17.875c-4.898,0.321-9.732-0.029-14.473-1.429c-6.502-1.92-11.212-5.965-14.323-11.927
			c-2.436-4.668-3.739-9.696-4.271-14.892c-1.434-14.051,0.608-27.576,6.568-40.427c1.172-2.528,2.553-4.989,4.087-7.315
			c6.268-9.5,15.304-14.43,26.525-14.884c9.238-0.373,17.434,3.919,20.799,13.106c0.93,2.537,1.221,5.156,0.754,7.79
			c-0.912,5.15-4.33,8.023-9.118,9.442c-3.395,1.006-6.803,0.56-10.182-0.247c-3.26-0.778-6.498-1.676-9.79-2.28
			c-4.709-0.864-6.839,1.651-5.506,6.264c1.082,3.743,4.037,5.237,7.444,5.952c4.642,0.974,9.04,0.156,13.109-2.356
			c1.356-0.838,2.738-1.677,4.202-2.291c3.202-1.342,5.989-0.352,7.295,2.866c0.855,2.109,1.264,4.444,1.564,6.719
			C525.316,266.903,525.118,268.849,525.118,270.768z M492.963,236.937c0.261,0.196,0.374,0.352,0.512,0.376
			c5.248,0.944,10.489,1.933,15.754,2.781c2.062,0.333,3.477-1.527,2.812-3.513c-0.564-1.688-1.8-2.824-3.379-3.529
			c-2.951-1.317-6.092-1.938-9.298-1.814C495.948,231.369,493.328,233.812,492.963,236.937z"/>
		<path fill-rule="evenodd" clip-rule="evenodd" fill="#FFFFFF" d="M207.398,242.487c0.044,2.597-0.353,5.11-1.372,7.5
			c-1.94,4.549-5.823,6.602-10.669,5.674c-1.954-0.375-3.242-1.792-3.551-4.003c-0.122-0.868-0.112-1.755-0.166-2.633
			c-0.029-0.479,0.001-0.973-0.113-1.431c-0.292-1.167-0.546-2.463-1.975-2.734c-1.247-0.237-2.121,0.597-2.836,1.473
			c-1.756,2.151-2.152,4.776-2.356,7.418c-0.23,2.986,0.318,5.889,1.202,8.736c1.366,4.395,3.503,8.417,6.116,12.169
			c3.335,4.789,6.825,9.472,10.211,14.226c1.577,2.213,3.156,4.434,4.583,6.744c4.089,6.62,2.856,13.036-3.387,17.714
			c-4.045,3.03-8.739,4.602-13.599,5.703c-3.286,0.744-6.603,1.083-9.992,0.617c-6.661-0.916-11.556-5.202-12.706-11.894
			c-0.562-3.266-0.616-6.708-0.305-10.016c0.59-6.276,1.718-12.5,2.417-18.768c0.689-6.176,0.601-12.348-2.236-18.076
			c-1.124-2.27-2.578-4.415-4.132-6.423c-2.297-2.971-4.952-5.668-7.191-8.678c-1.308-1.758-2.262-3.834-3.085-5.884
			c-0.854-2.128-0.19-4.178,1.446-5.702c4.028-3.751,8.858-5.336,14.32-4.675c2.026,0.246,3.727,1.372,5.129,2.888
			c0.542,0.586,1.059,1.212,1.678,1.706c1.262,1.008,2.494,1.038,3.674-0.075c1.039-0.979,1.908-2.146,2.803-3.269
			c2.297-2.882,5.173-4.988,8.582-6.339c5.006-1.984,9.523-0.776,12.821,3.464C206.037,232.194,207.27,237.172,207.398,242.487z"/>
		<path fill-rule="evenodd" clip-rule="evenodd" fill="#FFFFFF" d="M443.603,214.104c3.227,0.47,6.476,0.824,9.674,1.445
			c2.454,0.477,4.664,1.651,6.572,3.303c2.561,2.215,3.548,5.006,3.075,8.367c-0.375,2.658-1.327,5.098-2.617,7.414
			c-1.478,2.652-3.163,5.198-4.497,7.917c-1.115,2.275-2.053,4.681-2.716,7.125c-0.972,3.583-0.207,7.177,0.812,10.625
			c1.22,4.129,2.831,8.142,4.122,12.252c1.266,4.029,2.554,8.074,3.421,12.198c0.499,2.377,0.421,4.949,0.18,7.391
			c-0.396,4.024-2.68,7.107-5.664,9.7c-3.706,3.221-8.146,4.718-12.925,5.132c-4.834,0.419-9.57-0.257-14.074-2.159
			c-6.286-2.654-9.614-7.301-9.883-14.227c-0.223-5.759,1.232-11.088,3.626-16.203c1.353-2.889,2.95-5.667,4.512-8.453
			c2.623-4.676,5.116-9.396,6.575-14.602c1.735-6.189,1.603-12.294-0.513-18.373c-0.786-2.26-1.526-4.543-2.129-6.857
			c-0.339-1.297-0.475-2.676-0.492-4.021c-0.05-3.755,1.669-6.059,5.284-6.956c1.612-0.4,3.308-0.492,4.973-0.653
			c0.871-0.084,1.758-0.015,2.637-0.015C443.57,214.338,443.586,214.222,443.603,214.104z"/>
		<path fill-rule="evenodd" clip-rule="evenodd" fill="#FFFFFF" d="M573.282,265.6c-0.484,0.705-0.822,1.237-1.2,1.739
			c-5.778,7.676-9.597,16.183-10.827,25.762c-0.574,4.477-0.054,8.918,0.542,13.366c0.477,3.561,0.818,7.166-0.202,10.706
			c-0.33,1.143-0.79,2.261-1.307,3.334c-1.243,2.584-3.374,3.871-6.188,4.335c-7.332,1.211-13.908-0.688-20.063-4.577
			c-1.719-1.086-2.741-2.644-3.37-4.51c-1.091-3.237-1.371-6.574-0.955-9.941c1.014-8.209,2.986-16.166,6.585-23.659
			c1.533-3.191,3.448-6.126,6.021-8.593c2.635-2.526,4.547-2.466,7.245-0.026c1.04,0.941,2.285,1.773,3.584,2.281
			c1.734,0.679,2.987,0.044,3.556-1.754c0.397-1.258,0.524-2.659,0.478-3.985c-0.062-1.747-0.501-3.478-0.624-5.227
			c-0.24-3.399,1-4.706,4.357-4.818C565.853,259.867,569.95,261.548,573.282,265.6z M552.127,285.46
			c-0.089-1.382-0.577-2.359-1.671-2.892c-1.206-0.587-2.152,0.036-2.968,0.871c-1.962,2.01-2.54,4.59-2.583,7.232
			c-0.036,2.227,1.367,3.613,3.402,3.925c1.596,0.245,2.076-0.183,2.336-1.859c0.242-1.564,0.584-3.112,0.899-4.664
			C551.732,287.142,551.956,286.218,552.127,285.46z"/>
		<path fill-rule="evenodd" clip-rule="evenodd" fill="#FFFFFF" d="M600.967,299.142c-0.222,10.371-2.777,19.082-7.56,27.153
			c-1.455,2.457-3.429,4.39-5.891,5.848c-6.357,3.766-14.549,1.664-18.366-4.702c-2.371-3.954-2.794-8.282-2.452-12.731
			c0.624-8.138,3.207-15.594,7.91-22.304c2.031-2.897,4.376-5.472,7.047-7.805c5.949-5.194,16.24-1.112,17.787,5.127
			c0.308,1.239,0.757,2.456,0.935,3.712C600.688,295.649,600.842,297.88,600.967,299.142z M591.864,295.75
			c-0.165-1.383-0.265-2.413-0.416-3.435c-0.155-1.045-0.748-1.775-1.795-1.99c-1.014-0.207-1.927,0.093-2.517,0.978
			c-1.515,2.269-2.698,4.699-3.264,7.384c-0.312,1.481,0.035,2.258,1.32,3.005c0.752,0.437,1.561,0.827,2.393,1.065
			c1.576,0.453,2.457,0.052,2.953-1.539C591.128,299.329,591.482,297.367,591.864,295.75z"/>
		<path fill-rule="evenodd" clip-rule="evenodd" fill="#FFFFFF" d="M461.863,193.882c0.165,6.533-4.937,13.175-12.95,13.172
			c-7.062-0.003-12.842-5.991-12.782-13.169c0.055-6.666,4.657-13.245,12.905-13.283
			C457.248,180.563,462.062,187.438,461.863,193.882z"/>
		<path fill-rule="evenodd" clip-rule="evenodd" fill="none" d="M117.894,264.032c0.055-1.114,0.012-2.244,0.184-3.339
			c0.507-3.234,3.073-4.552,5.734-2.729c4.858,3.327,8.232,8.385,5.914,14.951c-0.45,1.275-1.06,2.499-1.449,3.791
			c-0.724,2.41-4.914,3.115-6.566,0.916c-0.709-0.944-1.337-1.992-1.787-3.081C118.542,271.186,117.968,267.657,117.894,264.032z"/>
		<path fill-rule="evenodd" clip-rule="evenodd" fill="none" d="M236.992,250.525c-3.866,0.06-4.869-0.693-5.817-4.48
			c-0.917-3.664-1.154-7.399-0.779-11.145c0.124-1.233,0.533-2.516,1.121-3.609c1.217-2.262,3.538-2.785,5.691-1.398
			c0.727,0.468,1.41,1.062,1.968,1.722c3.015,3.566,4.781,7.714,5.236,12.338c0.456,4.632-1.094,6.102-5.748,6.564
			C238.112,250.572,237.55,250.525,236.992,250.525z"/>
		<path fill-rule="evenodd" clip-rule="evenodd" fill="none" d="M492.963,236.937c0.365-3.124,2.985-5.567,6.4-5.698
			c3.206-0.124,6.347,0.497,9.298,1.814c1.579,0.705,2.814,1.84,3.379,3.529c0.665,1.986-0.75,3.846-2.812,3.513
			c-5.265-0.849-10.506-1.837-15.754-2.781C493.337,237.288,493.224,237.133,492.963,236.937z"/>
		<path fill-rule="evenodd" clip-rule="evenodd" fill="none" d="M552.127,285.46c-0.171,0.758-0.395,1.682-0.584,2.614
			c-0.315,1.552-0.657,3.1-0.899,4.664c-0.26,1.676-0.74,2.104-2.336,1.859c-2.035-0.312-3.438-1.698-3.402-3.925
			c0.043-2.642,0.621-5.223,2.583-7.232c0.815-0.835,1.762-1.458,2.968-0.871C551.55,283.101,552.038,284.078,552.127,285.46z"/>
		<path fill-rule="evenodd" clip-rule="evenodd" fill="none" d="M591.864,295.75c-0.382,1.618-0.736,3.579-1.325,5.468
			c-0.496,1.591-1.377,1.992-2.953,1.539c-0.832-0.239-1.641-0.629-2.393-1.065c-1.285-0.747-1.632-1.524-1.32-3.005
			c0.565-2.685,1.749-5.115,3.264-7.384c0.59-0.884,1.503-1.185,2.517-0.978c1.047,0.215,1.64,0.945,1.795,1.99
			C591.6,293.336,591.699,294.366,591.864,295.75z"/>
	</g>
</g>
</svg>
