<?xml version="1.0" encoding="utf-8"?>
<!-- Generator: Adobe Illustrator 16.0.0, SVG Export Plug-In . SVG Version: 6.00 Build 0)  -->
<!DOCTYPE svg PUBLIC "-//W3C//DTD SVG 1.1//EN" "http://www.w3.org/Graphics/SVG/1.1/DTD/svg11.dtd">
<svg version="1.1" id="Layer_1" xmlns="http://www.w3.org/2000/svg" xmlns:xlink="http://www.w3.org/1999/xlink" x="0px" y="0px"
	 width="86.942px" height="89.688px" viewBox="0 0 86.942 89.688" enable-background="new 0 0 86.942 89.688" xml:space="preserve">
<g id="bcgoHI_1_">
	<g>
		<path fill-rule="evenodd" clip-rule="evenodd" fill="#FFFFFF" d="M41.693,35.296c0.61-3.633,1.131-6.64,1.619-9.653
			c0.477-2.941,1.748-4.696,5.156-4.698c6.254-0.004,12.648-1.26,18.721-0.309c5.392,0.846,11.398,2.857,15.406,6.341
			c7.338,6.375,4.951,17.331-3.898,22.5c-1.682,0.982-3.447,1.822-6.363,3.352c1.311,0.666,2.038,1.027,2.758,1.4
			c11.219,5.832,12.499,21.621-1.195,29.908c-4.781,2.893-10.783,4.555-16.395,5.111c-8.487,0.84-17.119,0.219-26.117,0.219
			c1.45-8.023,2.646-14.639,3.879-21.455C15.863,71.808,7.445,71.282,0,65.745c1.35-3.217,2.734-6.52,3.924-9.354
			c6.2,0.9,11.857,2.012,17.566,2.459c4.598,0.359,8.73-1.309,10.263-6.131c1.597-5.027-1.308-8.164-5.409-10.498
			c-2.449-1.395-4.916-2.766-7.289-4.283c-6.17-3.939-11.068-9.025-10.744-16.819c0.354-8.477,5.055-14.422,12.768-17.94
			c9.762-4.454,19.487-4.116,29.564,0.314c-1.269,3.438-2.51,6.802-3.707,10.046c-4.768-0.638-9.295-1.678-13.822-1.683
			c-2.595-0.002-5.604,1.132-7.697,2.717c-4.023,3.047-3.545,8.308,0.911,11.342C30.965,29.073,35.902,31.79,41.693,35.296z
			 M46.836,78.935c3.562,0,6.551,0.225,9.493-0.049c5.149-0.479,9.642-2.299,11.907-7.461c1.609-3.668,1.693-8.25-1.582-9.912
			c-4.287-2.174-9.603-2.395-14.523-3.141c-0.568-0.086-1.875,1.756-2.1,2.855C48.876,66.858,47.963,72.54,46.836,78.935z
			 M52.574,49.079c5.971-1.203,11.104-1.578,15.695-3.352c4.518-1.746,6.012-10.697,2.225-12.551
			c-3.762-1.841-8.52-2.19-12.801-2.042c-1.066,0.036-2.199,4.446-2.905,6.958C53.947,41.085,53.531,44.198,52.574,49.079z"/>
		<path fill-rule="evenodd" clip-rule="evenodd" fill="none" d="M46.836,78.935c1.127-6.395,2.04-12.076,3.195-17.707
			c0.225-1.1,1.531-2.941,2.1-2.855c4.921,0.746,10.236,0.967,14.523,3.141c3.275,1.662,3.191,6.244,1.582,9.912
			c-2.266,5.162-6.758,6.982-11.907,7.461C53.387,79.159,50.397,78.935,46.836,78.935z"/>
		<path fill-rule="evenodd" clip-rule="evenodd" fill="none" d="M52.574,49.079c0.957-4.881,1.373-7.994,2.214-10.986
			c0.706-2.512,1.839-6.921,2.905-6.958c4.281-0.148,9.039,0.2,12.801,2.042c3.787,1.854,2.293,10.805-2.225,12.551
			C63.678,47.501,58.545,47.876,52.574,49.079z"/>
	</g>
</g>
</svg>
