<?xml version="1.0" encoding="utf-8"?>
<!-- Generator: Adobe Illustrator 16.0.0, SVG Export Plug-In . SVG Version: 6.00 Build 0)  -->
<!DOCTYPE svg PUBLIC "-//W3C//DTD SVG 1.1//EN" "http://www.w3.org/Graphics/SVG/1.1/DTD/svg11.dtd">
<svg version="1.1" id="Layer_1" xmlns="http://www.w3.org/2000/svg" xmlns:xlink="http://www.w3.org/1999/xlink" x="0px" y="0px"
	 width="438.728px" height="231.015px" viewBox="0 0 438.728 231.015" enable-background="new 0 0 438.728 231.015"
	 xml:space="preserve">
<g>
	<g>
		<path fill="#FFFFFF" d="M12.94,54.71c4.012,2.604,7.987,4.638,11.923,6.129c3.938,1.486,7.616,2.226,11.029,2.226
			c3.271,0,5.759-0.458,7.466-1.393c1.71-0.931,2.566-2.324,2.566-4.178c0-0.958-0.375-1.727-1.117-2.287
			c-0.744-0.558-1.728-1.02-2.95-1.386c-1.229-0.372-2.66-0.675-4.292-0.894c-1.634-0.225-3.306-0.521-5.011-0.889
			c-1.634-0.301-3.552-0.653-5.742-1.064c-2.189-0.404-4.436-1.003-6.738-1.781c-2.301-0.784-4.591-1.765-6.854-2.948
			c-2.266-1.191-4.291-2.715-6.072-4.574c-1.784-1.854-3.212-4.068-4.289-6.629c-1.078-2.566-1.621-5.587-1.621-9.079
			c0-5.121,1.004-9.36,3.006-12.705c2.009-3.344,4.553-5.998,7.64-7.966c3.077-1.968,6.518-3.344,10.303-4.124
			C25.979,0.384,29.655,0,33.222,0c6.238,0,11.826,0.91,16.772,2.731c4.934,1.815,9.675,4.472,14.201,7.962
			c0.6,0.524,0.931,1.154,1.005,1.896c0.076,0.741-0.11,1.415-0.554,2.007L55.95,26.967c-0.444,0.591-1.037,0.958-1.781,1.111
			c-0.742,0.154-1.411,0-2.01-0.442c-3.785-2.375-7.315-4.071-10.579-5.074c-3.27-1.008-6.281-1.507-9.026-1.507
			c-0.821,0-1.767,0.022-2.847,0.061c-1.073,0.032-2.098,0.181-3.06,0.438c-0.968,0.263-1.769,0.692-2.394,1.289
			c-0.636,0.591-0.95,1.409-0.95,2.451c0,1.041,0.777,1.968,2.339,2.784c1.561,0.817,3.343,1.525,5.353,2.118
			c2.001,0.597,3.932,1.057,5.793,1.391c1.854,0.331,3.047,0.543,3.563,0.615c2.672,0.52,5.606,1.284,8.805,2.28
			c3.193,1.004,6.181,2.494,8.967,4.463c2.784,1.969,5.125,4.524,7.022,7.682c1.89,3.159,2.84,7.118,2.84,11.87
			c0,4.452-0.778,8.296-2.343,11.537c-1.561,3.225-3.728,5.885-6.518,7.968c-2.783,2.077-6.123,3.617-10.03,4.615
			c-3.895,1.01-8.224,1.51-12.979,1.51c-3.862,0-7.462-0.319-10.81-0.95c-3.339-0.626-6.459-1.507-9.356-2.614
			c-2.898-1.118-5.593-2.437-8.079-3.959c-2.489-1.519-4.773-3.138-6.851-4.852c-0.6-0.441-0.933-1.054-1.004-1.833
			c-0.077-0.784,0.111-1.469,0.555-2.062l8.582-12.369c0.444-0.593,1.037-0.966,1.78-1.113C11.675,54.223,12.348,54.342,12.94,54.71
			z"/>
		<path fill="#FFFFFF" d="M130.61,21.614h-15.604c-0.745,0-1.374,0.263-1.89,0.778c-0.524,0.521-0.784,1.156-0.784,1.892v55.718
			c0,0.745-0.24,1.377-0.721,1.898c-0.488,0.515-1.138,0.773-1.951,0.773H92.948c-0.745,0-1.378-0.259-1.897-0.773
			c-0.518-0.521-0.778-1.153-0.778-1.898V24.284c0-0.735-0.243-1.37-0.727-1.892c-0.48-0.516-1.133-0.778-1.947-0.778H71.774
			c-0.742,0-1.375-0.257-1.895-0.772c-0.521-0.526-0.781-1.164-0.781-1.903V3.789c0-0.745,0.259-1.376,0.781-1.897
			c0.52-0.516,1.152-0.778,1.895-0.778h58.836c0.811,0,1.465,0.263,1.949,0.778c0.479,0.521,0.725,1.152,0.725,1.897v15.149
			c0,0.739-0.246,1.377-0.725,1.903C132.076,21.357,131.421,21.614,130.61,21.614z"/>
		<path fill="#FFFFFF" d="M157.238,3.674c0.3-0.664,0.803-1.244,1.505-1.726c0.708-0.478,1.466-0.726,2.288-0.726h15.596
			c0.744,0,1.468,0.248,2.174,0.726c0.704,0.481,1.207,1.062,1.507,1.726l32.533,75.771c0.297,0.669,0.242,1.369-0.167,2.114
			c-0.41,0.753-1.206,1.115-2.394,1.115h-19.057c-0.816,0-1.582-0.238-2.284-0.72c-0.707-0.483-1.245-1.064-1.613-1.733
			l-3.011-6.683c-0.371-0.663-0.913-1.24-1.617-1.728c-0.702-0.478-1.43-0.72-2.171-0.72h-23.515c-0.814,0-1.578,0.242-2.279,0.72
			c-0.709,0.487-1.213,1.064-1.506,1.728l-3.122,6.683c-0.297,0.669-0.801,1.25-1.503,1.733c-0.708,0.481-1.431,0.72-2.175,0.72
			h-19.163c-0.372,0-0.76-0.066-1.172-0.22c-0.405-0.143-0.74-0.373-0.998-0.669c-0.264-0.291-0.428-0.669-0.503-1.114
			c-0.075-0.45,0.039-0.965,0.336-1.558L157.238,3.674z M163.814,52.149h9.918c0.743,0,1.278-0.241,1.614-0.725
			c0.338-0.488,0.317-1.062-0.054-1.727c-0.743-1.865-1.633-4.03-2.673-6.524c-1.043-2.49-2.005-4.809-2.898-6.958
			c-0.298-0.669-0.633-1.01-1.002-1.01c-0.374,0-0.708,0.341-1.004,1.01l-5.569,13.482c-0.3,0.664-0.3,1.238,0,1.727
			C162.441,51.908,162.994,52.149,163.814,52.149z"/>
		<path fill="#FFFFFF" d="M235.78,82.674h-16.683c-0.746,0-1.382-0.259-1.906-0.773c-0.522-0.521-0.781-1.153-0.781-1.898V3.789
			c0-0.745,0.255-1.376,0.777-1.897c0.52-0.516,1.151-0.778,1.897-0.778h34.652c4.311,0,8.283,0.724,11.923,2.172
			c3.64,1.447,6.744,3.47,9.303,6.075c2.566,2.599,4.568,5.681,6.015,9.249c1.448,3.564,2.176,7.5,2.176,11.81
			c0,2.375-0.275,4.738-0.835,7.08c-0.554,2.335-1.361,4.544-2.395,6.624c-1.042,2.077-2.268,3.953-3.676,5.624
			c-1.417,1.678-3.012,3.064-4.793,4.179c-0.597,0.449-0.987,0.985-1.172,1.615c-0.184,0.638-0.057,1.246,0.388,1.837
			c2.824,3.725,5.799,7.547,8.917,11.479c3.122,3.94,5.903,7.544,8.358,10.811c0.448,0.604,0.557,1.246,0.333,1.952
			c-0.225,0.702-0.705,1.055-1.453,1.055h-20.723c-0.736,0-1.543-0.204-2.393-0.61c-0.861-0.405-1.508-0.909-1.95-1.501
			c-2.369-3.121-4.715-6.277-7.045-9.472c-2.329-3.194-4.642-6.424-6.933-9.698c-0.44-0.597-1.073-1.096-1.879-1.501
			c-0.812-0.407-1.596-0.614-2.329-0.614h-2.438c-0.74,0-1.374,0.262-1.889,0.777c-0.518,0.521-0.776,1.157-0.776,1.898v18.049
			c0,0.745-0.266,1.377-0.79,1.898C237.167,82.415,236.532,82.674,235.78,82.674z M241.131,38.776h11.757
			c0.887,0,1.81-0.17,2.771-0.505c0.959-0.334,1.843-0.856,2.659-1.563c0.812-0.7,1.476-1.572,1.996-2.614
			c0.517-1.042,0.779-2.265,0.779-3.675c0-0.745-0.128-1.623-0.393-2.619c-0.256-1.003-0.703-1.964-1.329-2.901
			c-0.626-0.927-1.479-1.711-2.549-2.337c-1.074-0.635-2.383-0.947-3.935-0.947h-11.757c-0.735,0-1.369,0.263-1.884,0.778
			c-0.518,0.521-0.776,1.156-0.776,1.892v11.816c0,0.745,0.259,1.369,0.776,1.892C239.762,38.512,240.396,38.776,241.131,38.776z"/>
		<path fill="#FFFFFF" d="M349.901,21.614h-15.604c-0.747,0-1.377,0.263-1.892,0.778c-0.523,0.521-0.785,1.156-0.785,1.892v55.718
			c0,0.745-0.236,1.377-0.718,1.898c-0.491,0.515-1.138,0.773-1.954,0.773h-16.712c-0.745,0-1.378-0.259-1.89-0.773
			c-0.526-0.521-0.787-1.153-0.787-1.898V24.284c0-0.735-0.241-1.37-0.722-1.892c-0.484-0.516-1.137-0.778-1.949-0.778h-15.822
			c-0.747,0-1.374-0.257-1.894-0.772c-0.524-0.526-0.786-1.164-0.786-1.903V3.789c0-0.745,0.262-1.376,0.786-1.897
			c0.52-0.516,1.146-0.778,1.894-0.778h58.835c0.816,0,1.459,0.263,1.951,0.778c0.477,0.521,0.719,1.152,0.719,1.897v15.149
			c0,0.739-0.242,1.377-0.719,1.903C351.36,21.357,350.717,21.614,349.901,21.614z"/>
	</g>
	<g>
		<path fill="#FFFFFF" d="M236.519,229.731h-25.997c-1.256,0-2.259-0.4-3.007-1.212c-0.746-0.799-1.119-1.787-1.119-2.939V107.428
			c0-1.15,0.373-2.132,1.119-2.944c0.748-0.801,1.751-1.201,3.007-1.201h25.997c1.146,0,2.122,0.4,2.925,1.201
			c0.804,0.812,1.207,1.794,1.207,2.944V225.58c0,1.152-0.403,2.141-1.207,2.939C238.641,229.331,237.665,229.731,236.519,229.731z"
			/>
		<path fill="#FFFFFF" d="M348.426,134.932h-24.224c-1.154,0-2.137,0.411-2.939,1.211c-0.812,0.812-1.218,1.788-1.218,2.944v86.493
			c0,1.152-0.373,2.141-1.119,2.939c-0.745,0.812-1.763,1.212-3.027,1.212h-25.948c-1.156,0-2.137-0.4-2.94-1.212
			c-0.806-0.799-1.209-1.787-1.209-2.939v-86.493c0-1.156-0.381-2.133-1.126-2.944c-0.749-0.8-1.759-1.211-3.027-1.211h-24.565
			c-1.155,0-2.137-0.396-2.941-1.214c-0.807-0.793-1.213-1.787-1.213-2.933v-23.527c0-1.157,0.406-2.133,1.213-2.944
			c0.805-0.8,1.786-1.207,2.941-1.207h91.344c1.264,0,2.269,0.407,3.021,1.207c0.746,0.812,1.123,1.787,1.123,2.944v23.527
			c0,1.146-0.377,2.14-1.123,2.933C350.695,134.536,349.69,134.932,348.426,134.932z"/>
	</g>
	<g>
		<g>
			<path fill="#F8D80E" d="M422.889,151.374H387.81c-2.319,0-4.222-0.734-5.685-2.215c-1.481-1.469-2.326-3.263-2.533-5.369
				L371.69,7.584c-0.21-2.319,0.365-4.168,1.737-5.532C374.795,0.687,376.635,0,378.96,0h52.774c2.104,0,3.843,0.687,5.216,2.052
				c1.361,1.364,1.947,3.213,1.735,5.532l-7.9,136.206c-0.211,2.106-1.058,3.9-2.527,5.369
				C426.784,150.64,424.993,151.374,422.889,151.374z"/>
			<path fill="#F8D80E" d="M429.211,231.015H381.8c-2.319,0-4.155-0.734-5.526-2.21c-1.376-1.476-2.057-3.268-2.057-5.374v-43.617
				c0-2.314,0.681-4.155,2.057-5.532c1.371-1.359,3.207-2.045,5.526-2.045h47.411c2.101,0,3.896,0.686,5.37,2.045
				c1.473,1.377,2.211,3.218,2.211,5.532v43.617c0,2.106-0.738,3.898-2.211,5.374C433.108,230.28,431.312,231.015,429.211,231.015z"
				/>
		</g>
	</g>
	<path fill="#F8D80E" d="M180.581,114.512c-0.007-7.819-5.376-12.217-14.875-12.226c-25.256-0.029-50.515-0.012-75.769-0.012
		c-25.022,0-50.045-0.018-75.068,0.012c-9.405,0.009-14.835,4.463-14.848,12.253c-0.027,34.341-0.027,68.686,0,103.029
		c0.013,7.776,5.512,12.239,14.888,12.239h150.836c9.397,0,14.829-4.429,14.836-12.271
		C180.619,183.192,180.619,148.853,180.581,114.512z M126.015,172.698c-16.256,9.557-32.554,19.048-48.889,28.471
		c-5.598,3.221-9.597,0.945-9.66-5.46c-0.083-9.698-0.017-19.405-0.017-29.115c0-9.424-0.066-18.872,0.029-28.297
		c0.055-6.201,4.021-8.559,9.38-5.478c16.462,9.491,32.873,19.043,49.23,28.703C131.614,164.786,131.563,169.441,126.015,172.698z"
		/>
</g>
</svg>
