<?xml version="1.0" encoding="utf-8"?>
<!-- Generator: Adobe Illustrator 16.0.0, SVG Export Plug-In . SVG Version: 6.00 Build 0)  -->
<!DOCTYPE svg PUBLIC "-//W3C//DTD SVG 1.1//EN" "http://www.w3.org/Graphics/SVG/1.1/DTD/svg11.dtd">
<svg version="1.1" id="Layer_1" xmlns="http://www.w3.org/2000/svg" xmlns:xlink="http://www.w3.org/1999/xlink" x="0px" y="0px"
	 width="416.607px" height="51.988px" viewBox="0 0 416.607 51.988" enable-background="new 0 0 416.607 51.988"
	 xml:space="preserve">
<g>
	<path fill="none" d="M448.913-219.88c0,190.2,0,380.4,0,570.6c-6.8,0-13.6,0-20.399,0c-0.012-22.169-0.066-44.337,0.023-66.505
		c0.011-2.666-0.803-3.397-3.401-3.368c-13.478,0.155-26.959,0.219-40.438,0.123c-2.986-0.021-3.663,1.072-3.65,3.844
		c0.097,21.968,0.062,43.938,0.066,65.906c-15.8,0-31.6,0-47.399,0c-0.021-1.399-0.061-2.797-0.061-4.195
		c-0.004-20.686-0.013-41.37,0.012-62.056c0.003-1.945,0.024-3.498-2.713-3.464c-8.792,0.107-17.587,0.068-26.38-0.003
		c-2.105-0.017-2.789,0.867-2.783,2.87c0.067,22.282,0.09,44.564,0.124,66.848c-20.399,0-40.8,0-61.199,0
		c-0.024-21.97-0.109-43.939-0.002-65.907c0.015-3.095-0.95-3.928-3.918-3.857c-7.785,0.184-15.577,0.074-23.366,0.086
		c-4.485,0.006-4.489,0.01-4.491,4.368c-0.009,21.77-0.016,43.54-0.023,65.311c-15.799,0-31.6,0-47.399,0
		c-0.006-22.073-0.044-44.147,0.027-66.222c0.008-2.525-0.627-3.533-3.345-3.52c-13.582,0.07-27.166,0.018-40.747-0.133
		c-2.575-0.028-3.426,0.667-3.413,3.354c0.109,22.173,0.071,44.347,0.077,66.521c-7.4,0-14.8,0-22.2,0
		c-0.003-21.874-0.003-43.749-0.01-65.623c-0.001-4.062-0.015-4.076-4.187-4.077c-7.791-0.003-15.582,0.01-23.372,0.022
		c-4.151,0.007-4.152,0.011-4.157,4.057c-0.025,21.874-0.05,43.747-0.075,65.621c-15.8,0-31.6,0-47.4,0
		c0.011-22.091-0.015-44.181,0.08-66.271c0.011-2.61-0.781-3.569-3.423-3.462c-3.79,0.152-7.593-0.058-11.39-0.043
		c-9.689,0.038-19.378,0.115-29.066,0.176c0-190.199,0-380.4,0-570.6c6.6,0,13.2,0,19.8,0c-0.021,22.378-0.009,44.756-0.111,67.134
		c-0.011,2.47,1.147,2.727,3.112,2.713c13.486-0.091,26.972-0.116,40.458-0.168c3.905-0.016,3.916-0.023,3.917-4.042
		c0.011-21.879,0.016-43.758,0.023-65.637c15.8,0,31.6,0,47.4,0c-0.001,6.196-0.004,12.393-0.004,18.589
		c0,15.891,0.002,31.781,0,47.672c0,1.734-0.204,3.471,2.444,3.454c8.995-0.059,17.989-0.042,26.984-0.011
		c1.799,0.006,2.51-0.812,2.487-2.549c-0.038-2.897,0.012-5.797,0.006-8.695c-0.036-19.486-0.078-38.974-0.118-58.46
		c20.4,0,40.8,0,61.2,0c-0.004,21.98,0.055,43.961-0.081,65.94c-0.019,3.154,1.08,3.882,3.983,3.823
		c7.79-0.157,15.584-0.047,23.377-0.045c4.446,0,4.456-0.002,4.46-4.378c0.023-21.781,0.04-43.561,0.059-65.34
		c15.8,0,31.601,0,47.4,0c-0.021,22.17-0.011,44.339-0.105,66.509c-0.011,2.567,1.007,3.204,3.373,3.2
		c13.381-0.027,26.762,0.07,40.143,0.111c3.947,0.012,3.957-0.009,3.959-3.908c0.013-21.971,0.021-43.941,0.03-65.912
		c7.4,0,14.801,0,22.2,0c-0.013,22.078,0.021,44.155-0.094,66.232c-0.015,2.861,1.057,3.566,3.683,3.518
		c6.891-0.128,13.785-0.044,20.679-0.037c7.422,0.008,7.41,0.012,7.422-7.381c0.031-20.777,0.073-41.554,0.11-62.332
		c15.8,0,31.601,0,47.4,0c-0.05,22.342-0.091,44.685-0.165,67.026c-0.006,1.913,0.8,2.671,2.692,2.655
		c3.989-0.034,7.979,0.087,11.969,0.075C428.977-219.755,438.945-219.826,448.913-219.88z M29.549,14.608
		c-5.79-5.31-10.932-5.496-16.639-1.371c-1.709-0.851-2.891-1.803-4.188-2.002c-1.952-0.299-3.985-0.054-5.984-0.076
		C0.911,11.139-0.009,11.892,0,13.836c0.041,8.395,0.036,16.791,0.002,25.187c-0.007,1.771,0.811,2.589,2.509,2.588
		c2.496-0.001,4.992-0.075,7.488-0.06c1.809,0.012,2.369-0.84,2.336-2.598c-0.089-4.695-0.035-9.394-0.009-14.092
		c0.013-2.254,0.448-4.335,3.271-4.451c3.015-0.123,3.232,2.271,3.368,4.344c0.188,2.887,0.066,5.793,0.068,8.692
		c0.006,8.824-0.001,8.729,9.043,8.179c2.411-0.147,3.001-1.014,2.936-3.254c-0.137-4.693-0.14-9.397,0.033-14.089
		c0.076-2.06,0.8-4.054,3.536-3.894c2.514,0.146,3.025,1.945,3.067,3.993c0.051,2.498,0.018,4.998,0.018,7.496
		c0.002,10.488,0.002,10.49,10.587,9.602c0.379-0.032,0.747-0.208,1.34-0.381c0-6.908,0.056-13.781-0.017-20.652
		c-0.065-6.178-4.456-10.373-10.56-10.01C35.487,10.646,32.044,11.364,29.549,14.608z M108.241,13.335
		c-4.384-3.445-9.484-3.767-13.925-1.077c-5.916,3.584-8.152,12.21-5.131,19.788c2.107,5.285,6.9,8.363,12.534,7.625
		c2.268-0.297,4.429-1.407,6.794-2.2c-0.1,1.013-0.051,2.226-0.362,3.338c-1.104,3.957-3.459,4.532-6.451,1.788
		c-0.741-0.68-1.84-1.26-2.817-1.335c-2.482-0.19-4.988-0.085-7.485-0.066c-2.192,0.016-2.484,1.237-1.794,2.984
		c1.206,3.05,3.357,5.178,6.441,6.276c5.44,1.937,10.993,2.053,16.438,0.259c4.803-1.583,7.667-5.127,7.848-10.24
		c0.31-8.774,0.341-17.558,0.445-26.339c0.009-0.762-0.099-1.7-0.534-2.26c-1.02-1.314-10.566-0.91-11.67,0.401
		C108.398,12.482,108.392,12.827,108.241,13.335z M222.708,13.096c-1.451-0.785-2.4-1.661-3.438-1.785
		c-2.167-0.259-4.383-0.084-6.575-0.157c-2.181-0.072-2.918,0.895-2.873,3.073c0.121,5.888,0.039,11.78,0.039,17.669
		c0,10.924,0.097,11.007,11.124,9.421c0.177-0.025,0.333-0.192,0.8-0.478c0-4.287-0.042-8.759,0.024-13.229
		c0.021-1.479,0.192-2.986,0.532-4.424c0.48-2.041,1.974-2.923,4.019-2.787c2.208,0.147,2.736,1.688,2.756,3.56
		c0.03,2.795,0.049,5.59,0.05,8.385c0.002,9.909-0.005,9.851,9.886,9.173c2.006-0.138,2.521-0.925,2.499-2.758
		c-0.072-5.889,0.035-11.781-0.056-17.669c-0.046-2.962-0.906-5.655-3.199-7.791C234.243,9.523,228.226,9.495,222.708,13.096z
		 M319.177,39.69c1.748,0.806,2.972,1.725,4.293,1.897c1.955,0.256,3.982-0.11,5.974-0.041c2.135,0.074,2.708-0.92,2.686-2.909
		c-0.08-6.888-0.026-13.777-0.024-20.667c0.003-6.876,0.003-6.876-6.917-6.836c-5.393,0.031-5.38,0.031-5.397,5.385
		c-0.013,4.093,0.011,8.188-0.124,12.276c-0.077,2.368-1.501,3.593-3.876,3.659c-2.264,0.062-2.875-1.371-2.958-3.287
		c-0.142-3.278-0.396-6.555-0.42-9.835c-0.061-8.722-0.021-8.722-8.802-8.172c-0.199,0.012-0.398,0.032-0.598,0.034
		c-1.83,0.013-2.611,0.807-2.58,2.756c0.102,6.188-0.049,12.381,0.078,18.569c0.08,3.873,1.822,7.066,5.43,8.636
		C310.896,43.312,315.648,42.584,319.177,39.69z M72.475,40.055c4.31,2.76,8.621,1.449,12.192,1.334
		c0-4.029,0.035-7.498-0.01-10.965c-0.046-3.598-0.166-7.194-0.261-10.792c-0.113-4.285-2.033-6.984-6.163-8.12
		c-5.703-1.569-11.458-1.57-17.114,0.265c-4.226,1.37-6.41,4.58-6.146,9.17c3.035,0,6.115,0.188,9.148-0.104
		c1.04-0.1,1.864-1.739,2.967-2.067c1.413-0.421,3.033-0.399,4.511-0.192c0.421,0.059,1.102,1.938,0.907,2.104
		c-0.978,0.842-2.182,1.443-3.359,2.024c-0.417,0.206-0.991,0.067-1.476,0.167c-2.824,0.582-5.725,0.939-8.444,1.843
		c-4.406,1.464-6.276,4.624-5.958,9.237c0.274,3.98,3.151,7.1,7.345,7.977C64.893,42.83,68.929,42.203,72.475,40.055z
		 M416.592,41.483c0-4.218,0.039-7.873-0.012-11.527c-0.051-3.689-0.123-7.381-0.312-11.065c-0.204-4.008-2.519-6.43-6.264-7.422
		c-5.604-1.485-11.255-1.456-16.803,0.268c-3.476,1.08-5.857,3.392-6.433,7.138c-0.093,0.604,0.508,1.892,0.671,1.873
		c3.729-0.445,7.8,1.946,11.239-1.637c0.875-0.912,3.076-0.737,4.654-0.678c0.5,0.019,0.953,1.283,1.428,1.976
		c-1.263,0.79-2.491,1.645-3.807,2.332c-0.485,0.254-1.191,0.042-1.771,0.166c-2.816,0.601-5.716,0.985-8.416,1.931
		c-4.041,1.415-6.106,5.068-5.665,9.184c0.429,4.007,3.367,7.123,7.447,7.918c4.269,0.83,8.317,0.315,11.922-1.957
		C408.542,43.086,412.904,41.211,416.592,41.483z M155.709,41.509c-0.195-4.061-0.43-7.611-0.52-11.167
		c-0.089-3.592,0.051-7.191-0.067-10.782c-0.118-3.594-1.692-6.459-5.221-7.627c-6.432-2.13-12.956-2.21-19.294,0.334
		c-3.693,1.482-5.427,4.685-4.972,8.517c1.013,0.061,2.09,0.245,3.146,0.165c3.177-0.24,6.681,1.141,9.235-2.354
		c0.506-0.693,2.917-0.155,4.39,0.125c0.396,0.075,0.957,1.774,0.788,1.909c-1.005,0.802-2.167,1.443-3.35,1.974
		c-0.609,0.273-1.383,0.147-2.06,0.301c-2.902,0.661-5.917,1.048-8.663,2.118c-4.097,1.597-5.7,4.934-5.125,9.393
		c0.521,4.042,3.209,6.787,7.349,7.545c4.368,0.8,8.5,0.336,11.842-2.07C147.355,43.105,151.72,41.159,155.709,41.509z
		 M277.812,32.639c-4.153-1.218-9.105-0.804-12.444,0.884c-3.828,1.936-7.621,0.028-7.699-4.162c1.081,0,2.159,0,3.238,0
		c5.091-0.001,10.186,0.08,15.272-0.084c0.854-0.027,2.304-1.014,2.413-1.723c1.03-6.623-3.814-14.347-10.345-16.009
		c-3.094-0.788-6.511-0.972-9.692-0.62c-7.341,0.813-12.277,6.25-13.058,14.472c-0.562,5.926,1.952,12.461,9.047,15.381
		c5.012,2.064,10.141,2.16,15.155,0.213C273.498,39.516,276.587,37.094,277.812,32.639z M171.204,20.34
		c-3.08,2.866-5.467,5.623-8.363,7.653c-3.798,2.662-5.028,5.941-4.698,10.433c0.185,2.519,1.012,3.283,3.339,3.265
		c7.086-0.055,14.172-0.003,21.258-0.007c6.117-0.004,6.072-0.049,5.945-6.15c-0.049-2.334-0.918-3.176-3.228-3.082
		c-3.434,0.138-6.878,0.035-10.878,0.035c3.29-3.121,5.946-5.977,8.952-8.401c3.195-2.577,4.312-5.614,3.988-9.646
		c-0.198-2.457-1.012-3.349-3.399-3.321c-6.087,0.072-12.176-0.013-18.264,0.02c-7.506,0.041-6.237-0.597-6.415,6.682
		c-0.05,2.039,0.917,2.582,2.735,2.538C164.963,20.29,167.754,20.34,171.204,20.34z M369.441,32.491
		c3.493-3.28,6.25-6.183,9.338-8.677c2.949-2.383,3.854-5.193,3.688-8.874c-0.126-2.792-0.911-3.929-3.813-3.854
		c-5.984,0.154-11.977,0.028-17.966,0.043c-7.526,0.021-6.012-0.284-6.263,6.241c-0.083,2.175,0.641,3.103,2.887,3.001
		c2.748-0.125,5.506-0.029,8.833-0.029c-3,2.772-5.292,5.506-8.145,7.391c-5.143,3.397-5.425,8.045-4.412,13.46
		c0.638,0.093,1.307,0.27,1.978,0.277c7.283,0.086,14.567,0.17,21.853,0.207c6.496,0.032,6.771-0.338,6.169-6.768
		c-0.162-1.729-0.848-2.478-2.62-2.441C377.39,32.543,373.809,32.491,369.441,32.491z M294.937,20.956c0-4.194,0.002-8.389,0-12.583
		c-0.004-8.324-0.008-8.188-8.37-8.359c-3.071-0.063-3.985,0.956-3.944,3.917c0.133,9.686-0.062,19.375,0.093,29.061
		c0.156,9.799-2.209,8.635,9.304,8.679c2.129,0.009,3-0.811,2.956-3.037C294.859,32.743,294.936,26.849,294.937,20.956z
		 M204.322,26.431c0-4.198-0.055-8.397,0.027-12.594c0.034-1.742-0.471-2.57-2.358-2.513c-2.391,0.073-4.789-0.071-7.183-0.139
		c-2.003-0.057-2.807,0.84-2.789,2.891c0.072,8.195,0.062,16.392,0.006,24.588c-0.013,1.987,0.714,3.011,2.759,2.976
		c2.396-0.04,4.795-0.091,7.191-0.064c1.789,0.021,2.417-0.763,2.374-2.551C204.249,34.829,204.317,30.629,204.322,26.431z
		 M349.578,26.529c0-2.295,0-4.59,0-6.885c0-9.1,0.003-9.063-9.041-8.513c-2.053,0.125-2.974,0.738-2.938,3.019
		c0.127,8.181,0.13,16.366,0.002,24.547c-0.036,2.303,0.916,3.008,2.959,2.976c2.095-0.034,4.191-0.047,6.286-0.01
		c1.984,0.035,2.834-0.758,2.767-2.86C349.481,34.715,349.573,30.621,349.578,26.529z M319.658,53.313
		c-2.679-3.479-5.925,0.056-8.834-0.85c-0.103-0.032-0.662,0.755-0.667,1.165c-0.047,4.396-0.074,8.796,0.046,13.19
		c0.013,0.483,0.975,0.942,1.496,1.412c0.411-0.464,1.052-0.871,1.183-1.403c0.21-0.852,0.047-1.788,0.103-2.685
		c0.146-2.378,0.144-4.788,0.593-7.109c0.147-0.759,1.505-1.282,2.309-1.914c0.486,0.85,1.325,1.672,1.392,2.553
		c0.194,2.585-0.052,5.204,0.158,7.787c0.078,0.965,0.938,1.867,1.441,2.798c0.577-0.965,1.545-1.888,1.654-2.903
		c0.266-2.473-0.104-5.025,0.275-7.47c0.161-1.037,1.561-1.882,2.397-2.814c0.612,0.994,1.653,1.946,1.753,2.988
		c0.256,2.676-0.008,5.397,0.166,8.086c0.047,0.727,0.909,1.4,1.396,2.1c0.475-0.729,1.315-1.435,1.36-2.188
		c0.167-2.79,0.109-5.596,0.067-8.394C327.865,52.146,324.726,50.373,319.658,53.313z M382.538,60.159
		c0.181,1.241,0.245,2.445,0.545,3.587c0.717,2.718,2.302,4.74,5.253,5.02c2.485,0.234,4.528-0.838,5.56-3.202
		c0.338-0.775,0.122-1.793,0.159-2.7c-0.812,0.344-1.624,0.687-2.436,1.031c-1.188,0.507-2.37,1.359-3.565,1.38
		c-0.62,0.01-1.264-1.455-1.896-2.253c0.727-0.471,1.408-1.228,2.189-1.35c1.463-0.23,3.014,0.077,4.469-0.177
		c0.793-0.139,1.948-0.853,2.109-1.51c0.753-3.078-1.908-7.565-4.633-8.206c-3.222-0.758-6.043,1.261-7.156,5.19
		C382.839,58.012,382.73,59.107,382.538,60.159z M351.444,62.362c0.174-0.267,0.348-0.533,0.521-0.8c2.068,0,4.137-0.002,6.204,0
		c2.043,0.003,2.994-0.874,2.438-2.993c-0.277-1.057-0.225-2.378-0.858-3.124c-1.205-1.42-2.757-3.443-4.236-3.506
		c-1.827-0.077-4.436,1.107-5.452,2.601c-2.378,3.49-2.514,7.666-0.184,11.288c0.926,1.438,3.195,2.873,4.778,2.795
		c1.731-0.085,3.492-1.786,4.993-3.072c0.48-0.411,0.173-1.742,0.227-2.653c-0.864,0.39-1.714,0.814-2.595,1.161
		c-1.202,0.473-2.568,1.431-3.601,1.163C352.75,64.98,352.175,63.369,351.444,62.362z M298.957,62.746
		c0.185-0.393,0.369-0.785,0.554-1.179c2.053,0,4.115,0.115,6.153-0.056c0.845-0.07,2.082-0.55,2.377-1.193
		c1.108-2.42-1.229-7.325-3.744-8.322c-2.898-1.148-6.406,0.385-7.291,3.791c-0.677,2.607-0.8,5.523-0.419,8.196
		c0.39,2.735,2.47,4.603,5.376,4.803c2.51,0.173,4.405-1.165,5.45-3.438c0.315-0.687,0.111-1.612,0.146-2.429
		c-0.823,0.269-1.673,0.475-2.462,0.82c-1.176,0.516-2.393,1.695-3.435,1.54C300.657,65.129,299.85,63.645,298.957,62.746z
		 M198.185,8.947c6.121,0.002,6.121,0.002,6.141-3.958c0.024-4.904,0.024-4.904-4.878-4.906c-0.998-0.001-1.995-0.001-2.993,0.001
		c-4.369,0.009-4.437,0.079-4.424,4.522c0.012,4.224,0.114,4.326,4.358,4.339C196.987,8.947,197.585,8.946,198.185,8.947z
		 M342.253,51.092c-3.245,0.597-5.302,2.271-5.641,4.986c-0.333,2.674,0.934,4.352,3.514,5.107c1.045,0.306,2.148,0.591,3.042,1.169
		c0.527,0.341,0.965,1.255,0.93,1.882c-0.024,0.437-0.988,1.229-1.413,1.156c-1.153-0.194-2.271-0.704-3.349-1.204
		c-0.846-0.392-1.611-0.955-2.412-1.442c-0.063,1.023-0.465,2.179-0.126,3.045c0.974,2.492,3.257,3.201,5.636,2.956
		c2.56-0.264,4.435-1.611,4.766-4.493c0.304-2.629-0.539-4.473-3.183-5.302c-1.134-0.356-2.303-0.671-3.349-1.212
		c-0.51-0.262-1.13-1.057-1.058-1.507c0.085-0.526,0.938-1.379,1.338-1.317c1.053,0.163,2.031,0.768,3.057,1.152
		c0.8,0.3,1.624,0.532,2.438,0.795c-0.023-0.821,0.288-1.956-0.132-2.405C345.119,53.187,343.627,52.194,342.253,51.092z
		 M343.66,8.92c1.299,0,2.642,0.197,3.882-0.074c0.749-0.164,1.793-0.961,1.931-1.632c1.241-6.062,0.326-7.131-5.769-7.129
		c-1.3,0-2.678-0.25-3.872,0.106c-0.852,0.254-2.063,1.322-2.077,2.047C337.602,10.364,336.968,8.774,343.66,8.92z M413.782,55.082
		c-2.417,3.61-4.482,6.542-6.381,9.578c-1.585,2.538-0.929,3.638,2.054,3.695c2.096,0.041,4.204,0.127,6.282-0.068
		c0.754-0.07,1.437-0.898,2.151-1.383c-0.69-0.483-1.337-1.278-2.082-1.387c-1.504-0.22-3.062-0.066-5.199-0.066
		c2.484-3.705,4.614-6.704,6.548-9.825c1.433-2.312,0.84-3.313-1.81-3.383c-2.095-0.054-4.198-0.087-6.285,0.058
		c-0.599,0.042-1.153,0.733-1.729,1.127c0.556,0.552,1.043,1.463,1.678,1.58C410.34,55.254,411.75,55.082,413.782,55.082z
		 M283.852,52.765c1.46,4.831,2.85,9.588,4.384,14.298c0.179,0.547,1.243,1.247,1.742,1.142c0.71-0.149,1.599-0.862,1.847-1.541
		c0.987-2.706,1.75-5.495,2.605-8.25c0.595-1.913,1.206-3.821,1.904-6.031c-1.294,0-2.294-0.181-2.383,0.026
		c-1.406,3.288-2.694,6.625-4.158,10.326c-0.776-2.979-1.48-5.637-2.159-8.301C287.206,52.748,286.414,51.713,283.852,52.765z
		 M378.541,61.336c-0.232,0.073-0.464,0.147-0.696,0.221c0,1.494-0.146,3.008,0.06,4.473c0.11,0.784,0.83,1.482,1.273,2.221
		c0.524-0.775,1.426-1.516,1.501-2.332c0.21-2.271,0.039-4.574,0.093-6.863c0.037-1.603-0.555-3.418,1.504-4.447
		c0.233-0.116,0.12-1.922-0.309-2.193c-1.731-1.096-1.428-1.976-0.262-3.287c0.51-0.574,0.479-1.631,0.693-2.469
		c-0.941-0.053-2.526-0.457-2.721-0.102c-1.327,2.429-2.363,5.017-3.483,7.557c-0.031,0.07,0.045,0.189,0.076,0.283
		C377.027,56.71,377.784,59.022,378.541,61.336z M396.715,57.32c0,2.886-0.122,5.779,0.08,8.65c0.056,0.797,1.071,1.526,1.646,2.286
		c0.466-0.757,1.318-1.507,1.333-2.273c0.112-5.769,0.111-11.543-0.002-17.312c-0.016-0.77-0.861-1.521-1.323-2.282
		c-0.577,0.759-1.596,1.485-1.651,2.279C396.596,51.541,396.718,54.435,396.715,57.32z M362.875,52.787
		c0,4.501-0.043,9.157,0.058,13.811c0.012,0.555,0.811,1.094,1.244,1.641c0.52-0.571,1.388-1.087,1.489-1.725
		c0.23-1.455,0.069-2.971,0.099-4.461c0.057-2.901-0.728-6.175,3.417-7.238c0.325-0.084,0.479-1.57,0.346-2.343
		c-0.051-0.3-1.14-0.646-1.718-0.587C366.35,52.031,364.914,52.396,362.875,52.787z M402.048,60.079c-0.006,0-0.013,0-0.02,0
		c0,2.097-0.117,4.204,0.067,6.285c0.061,0.67,0.918,1.27,1.411,1.901c0.521-0.611,1.471-1.208,1.493-1.837
		c0.144-4.088,0.149-8.185,0.027-12.273c-0.02-0.634-0.926-1.241-1.423-1.86c-0.519,0.598-1.421,1.158-1.485,1.801
		C401.923,56.073,402.048,58.082,402.048,60.079z M405.307,48.602c0.21-0.406,0.42-0.812,0.63-1.22
		c-0.761-0.341-1.567-1.017-2.269-0.921c-0.596,0.081-1.473,1.042-1.488,1.633c-0.017,0.624,0.839,1.271,1.313,1.908
		C404.099,49.536,404.703,49.068,405.307,48.602z"/>
	<path fill-rule="evenodd" clip-rule="evenodd" fill="none" d="M381.113,350.72c-0.005-21.969,0.03-43.938-0.066-65.906
		c-0.013-2.771,0.664-3.864,3.65-3.844c13.479,0.096,26.961,0.032,40.438-0.123c2.599-0.029,3.412,0.702,3.401,3.368
		c-0.09,22.168-0.035,44.336-0.023,66.505C412.713,350.72,396.913,350.72,381.113,350.72z"/>
	<path fill-rule="evenodd" clip-rule="evenodd" fill="none" d="M114.113,350.72c-0.006-22.174,0.032-44.348-0.077-66.521
		c-0.014-2.687,0.838-3.382,3.413-3.354c13.582,0.15,27.165,0.203,40.747,0.133c2.718-0.014,3.354,0.994,3.345,3.52
		c-0.071,22.074-0.033,44.148-0.027,66.222C145.713,350.72,129.913,350.72,114.113,350.72z"/>
	<path fill-rule="evenodd" clip-rule="evenodd" fill="none" d="M36.113-289.48c-0.007,21.879-0.013,43.758-0.023,65.637
		c-0.002,4.019-0.012,4.026-3.917,4.042c-13.486,0.052-26.972,0.077-40.458,0.168c-1.965,0.014-3.123-0.243-3.112-2.713
		c0.102-22.377,0.089-44.756,0.111-67.134C4.513-289.48,20.313-289.48,36.113-289.48z"/>
	<path fill-rule="evenodd" clip-rule="evenodd" fill="none" d="M303.113-289.48c-0.009,21.971-0.018,43.941-0.03,65.912
		c-0.002,3.899-0.012,3.92-3.959,3.908c-13.381-0.041-26.762-0.138-40.143-0.111c-2.366,0.004-3.384-0.632-3.373-3.2
		c0.095-22.17,0.084-44.339,0.105-66.509C271.513-289.48,287.313-289.48,303.113-289.48z"/>
	<path fill-rule="evenodd" clip-rule="evenodd" fill="none" d="M448.913-219.88c-9.968,0.054-19.936,0.125-29.903,0.156
		c-3.99,0.012-7.979-0.109-11.969-0.075c-1.893,0.016-2.698-0.742-2.692-2.655c0.074-22.342,0.115-44.684,0.165-67.026
		c14.8,0,29.6,0,44.399,0C448.913-266.28,448.913-243.081,448.913-219.88z"/>
	<path fill-rule="evenodd" clip-rule="evenodd" fill="none" d="M-31.087,281.119c9.688-0.061,19.377-0.138,29.066-0.176
		c3.797-0.015,7.6,0.195,11.39,0.043c2.642-0.107,3.435,0.852,3.423,3.462c-0.095,22.091-0.069,44.181-0.08,66.271
		c-14.562,0-29.123,0-43.8,0C-31.087,327.52-31.087,304.319-31.087,281.119z"/>
	<path fill-rule="evenodd" clip-rule="evenodd" fill="none" d="M301.913,350.72c-0.034-22.283-0.057-44.565-0.124-66.848
		c-0.006-2.003,0.678-2.887,2.783-2.87c8.793,0.071,17.588,0.11,26.38,0.003c2.737-0.034,2.716,1.519,2.713,3.464
		c-0.024,20.686-0.016,41.37-0.012,62.056c0,1.398,0.039,2.796,0.061,4.195C323.113,350.72,312.513,350.72,301.913,350.72z"/>
	<path fill-rule="evenodd" clip-rule="evenodd" fill="none" d="M208.913,350.72c0.008-21.771,0.015-43.541,0.023-65.311
		c0.002-4.358,0.006-4.362,4.491-4.368c7.789-0.012,15.581,0.098,23.366-0.086c2.968-0.07,3.933,0.763,3.918,3.857
		c-0.107,21.968-0.022,43.938,0.002,65.907C230.113,350.72,219.513,350.72,208.913,350.72z"/>
	<path fill-rule="evenodd" clip-rule="evenodd" fill="none" d="M115.313-289.48c0.04,19.486,0.082,38.974,0.118,58.46
		c0.005,2.898-0.044,5.797-0.006,8.695c0.022,1.737-0.688,2.555-2.487,2.549c-8.995-0.03-17.989-0.047-26.984,0.011
		c-2.648,0.018-2.444-1.719-2.444-3.454c0.003-15.891,0-31.782,0-47.672c0-6.196,0.002-12.393,0.004-18.589
		C94.113-289.48,104.713-289.48,115.313-289.48z"/>
	<path fill-rule="evenodd" clip-rule="evenodd" fill="none" d="M60.113,350.72c0.025-21.874,0.049-43.747,0.075-65.621
		c0.004-4.046,0.005-4.05,4.157-4.057c7.791-0.013,15.582-0.025,23.372-0.022c4.171,0.001,4.185,0.016,4.187,4.077
		c0.007,21.874,0.007,43.749,0.01,65.623C81.313,350.72,70.713,350.72,60.113,350.72z"/>
	<path fill-rule="evenodd" clip-rule="evenodd" fill="none" d="M208.313-289.48c-0.02,21.78-0.036,43.56-0.059,65.34
		c-0.005,4.376-0.015,4.378-4.46,4.378c-7.793-0.002-15.587-0.112-23.377,0.045c-2.904,0.059-4.002-0.669-3.983-3.823
		c0.135-21.979,0.077-43.96,0.081-65.94C187.113-289.48,197.713-289.48,208.313-289.48z"/>
	<path fill-rule="evenodd" clip-rule="evenodd" fill="none" d="M357.113-289.48c-0.037,20.777-0.079,41.554-0.11,62.332
		c-0.012,7.393,0,7.389-7.422,7.381c-6.894-0.007-13.788-0.091-20.679,0.037c-2.626,0.048-3.697-0.656-3.683-3.518
		c0.114-22.077,0.081-44.154,0.094-66.232C335.914-289.48,346.513-289.48,357.113-289.48z"/>
	<path fill-rule="evenodd" clip-rule="evenodd" fill="#FFFFFF" d="M29.549,14.608c2.496-3.244,5.938-3.962,9.468-4.172
		c6.104-0.363,10.495,3.832,10.56,10.01c0.073,6.871,0.017,13.744,0.017,20.652c-0.593,0.173-0.96,0.349-1.34,0.381
		c-10.585,0.889-10.585,0.887-10.587-9.602c0-2.499,0.033-4.998-0.018-7.496c-0.042-2.048-0.553-3.847-3.067-3.993
		c-2.736-0.16-3.46,1.834-3.536,3.894c-0.172,4.692-0.17,9.396-0.033,14.089c0.066,2.24-0.525,3.106-2.936,3.254
		c-9.044,0.551-9.037,0.646-9.043-8.179c-0.002-2.898,0.119-5.805-0.068-8.692c-0.135-2.073-0.353-4.467-3.368-4.344
		c-2.823,0.115-3.258,2.196-3.271,4.451c-0.026,4.698-0.081,9.396,0.009,14.092c0.033,1.758-0.527,2.609-2.336,2.598
		c-2.496-0.016-4.992,0.059-7.488,0.06c-1.698,0.001-2.516-0.816-2.509-2.588C0.036,30.627,0.041,22.231,0,13.836
		c-0.009-1.944,0.911-2.697,2.737-2.677c1.999,0.022,4.032-0.224,5.984,0.076c1.298,0.199,2.479,1.151,4.188,2.002
		C18.617,9.112,23.759,9.298,29.549,14.608z"/>
	<path fill-rule="evenodd" clip-rule="evenodd" fill="#FFFFFF" d="M108.241,13.335c0.151-0.508,0.158-0.853,0.331-1.058
		c1.104-1.311,10.651-1.715,11.67-0.401c0.435,0.56,0.543,1.498,0.534,2.26c-0.104,8.781-0.135,17.564-0.445,26.339
		c-0.181,5.113-3.045,8.657-7.848,10.24c-5.444,1.794-10.998,1.678-16.438-0.259c-3.083-1.099-5.235-3.227-6.441-6.276
		c-0.69-1.747-0.398-2.969,1.794-2.984c2.497-0.019,5.002-0.124,7.485,0.066c0.977,0.075,2.076,0.655,2.817,1.335
		c2.991,2.744,5.346,2.169,6.451-1.788c0.311-1.112,0.262-2.325,0.362-3.338c-2.366,0.793-4.527,1.903-6.794,2.2
		c-5.633,0.738-10.426-2.34-12.534-7.625c-3.021-7.578-0.785-16.204,5.131-19.788C98.756,9.568,103.857,9.89,108.241,13.335z
		 M99.978,25.25c-0.046,3.606,1.851,6.398,4.43,6.519c2.673,0.124,4.508-2.36,4.606-6.235c0.088-3.5-1.726-5.812-4.581-5.842
		C101.651,19.664,100.023,21.695,99.978,25.25z"/>
	<path fill-rule="evenodd" clip-rule="evenodd" fill="#FFFFFF" d="M222.708,13.096c5.518-3.601,11.534-3.572,15.588,0.204
		c2.293,2.135,3.153,4.829,3.199,7.791c0.091,5.889-0.017,11.781,0.056,17.669c0.021,1.833-0.493,2.62-2.499,2.758
		c-9.891,0.678-9.884,0.736-9.886-9.173c-0.001-2.795-0.02-5.59-0.05-8.385c-0.02-1.871-0.548-3.412-2.756-3.56
		c-2.045-0.136-3.538,0.747-4.019,2.787c-0.34,1.438-0.511,2.945-0.532,4.424c-0.066,4.47-0.024,8.941-0.024,13.229
		c-0.467,0.285-0.623,0.452-0.8,0.478c-11.027,1.586-11.124,1.503-11.124-9.421c0-5.89,0.082-11.781-0.039-17.669
		c-0.045-2.178,0.692-3.146,2.873-3.073c2.192,0.073,4.408-0.102,6.575,0.157C220.308,11.435,221.257,12.311,222.708,13.096z"/>
	<path fill-rule="evenodd" clip-rule="evenodd" fill="#FFFFFF" d="M319.177,39.69c-3.529,2.894-8.281,3.621-13.236,1.466
		c-3.607-1.569-5.35-4.763-5.43-8.636c-0.127-6.188,0.023-12.38-0.078-18.569c-0.031-1.949,0.75-2.743,2.58-2.756
		c0.199-0.002,0.398-0.022,0.598-0.034c8.78-0.55,8.741-0.55,8.802,8.172c0.023,3.28,0.278,6.557,0.42,9.835
		c0.083,1.916,0.694,3.348,2.958,3.287c2.375-0.065,3.799-1.291,3.876-3.659c0.135-4.088,0.111-8.184,0.124-12.276
		c0.018-5.354,0.005-5.354,5.397-5.385c6.92-0.04,6.92-0.04,6.917,6.836c-0.002,6.889-0.056,13.779,0.024,20.667
		c0.022,1.989-0.551,2.983-2.686,2.909c-1.991-0.069-4.019,0.297-5.974,0.041C322.149,41.415,320.925,40.496,319.177,39.69z"/>
	<path fill-rule="evenodd" clip-rule="evenodd" fill="#FFFFFF" d="M72.475,40.055c-3.546,2.148-7.583,2.775-11.858,1.882
		c-4.194-0.877-7.071-3.996-7.345-7.977c-0.318-4.613,1.552-7.772,5.958-9.237c2.719-0.904,5.62-1.262,8.444-1.843
		c0.485-0.1,1.059,0.039,1.476-0.167c1.177-0.581,2.381-1.182,3.359-2.024c0.194-0.167-0.486-2.046-0.907-2.104
		c-1.478-0.207-3.098-0.229-4.511,0.192c-1.104,0.329-1.927,1.968-2.967,2.067c-3.034,0.292-6.113,0.104-9.148,0.104
		c-0.264-4.59,1.92-7.8,6.146-9.17c5.656-1.834,11.411-1.834,17.114-0.265c4.129,1.136,6.05,3.835,6.163,8.12
		c0.095,3.597,0.215,7.194,0.261,10.792c0.045,3.467,0.01,6.936,0.01,10.965C81.096,41.504,76.785,42.814,72.475,40.055z
		 M72.548,28.869c-1.71,0.45-3.479,0.738-5.082,1.418c-0.744,0.314-1.706,1.484-1.602,2.104c0.144,0.851,1.063,1.934,1.899,2.241
		C70.822,35.758,73.333,32.808,72.548,28.869z"/>
	<path fill-rule="evenodd" clip-rule="evenodd" fill="#FFFFFF" d="M416.592,41.483c-3.688-0.272-8.051,1.603-12.12-1.501
		c-3.604,2.272-7.653,2.787-11.922,1.957c-4.08-0.795-7.019-3.911-7.447-7.918c-0.441-4.116,1.624-7.77,5.665-9.184
		c2.7-0.946,5.6-1.331,8.416-1.931c0.58-0.123,1.286,0.089,1.771-0.166c1.315-0.688,2.544-1.542,3.807-2.332
		c-0.475-0.693-0.928-1.958-1.428-1.976c-1.578-0.059-3.779-0.234-4.654,0.678c-3.439,3.583-7.51,1.192-11.239,1.637
		c-0.163,0.02-0.764-1.269-0.671-1.873c0.575-3.746,2.957-6.058,6.433-7.138c5.548-1.724,11.198-1.753,16.803-0.268
		c3.745,0.993,6.06,3.414,6.264,7.422c0.188,3.685,0.261,7.376,0.312,11.065C416.631,33.61,416.592,37.266,416.592,41.483z
		 M405.16,29.405c-0.28-0.188-0.562-0.375-0.843-0.562c-1.788,0.52-3.632,0.907-5.336,1.627c-0.645,0.272-1.353,1.325-1.327,1.998
		c0.024,0.687,0.868,1.863,1.43,1.909c1.368,0.112,3.212,0.162,4.064-0.626C404.232,32.749,404.526,30.893,405.16,29.405z"/>
	<path fill-rule="evenodd" clip-rule="evenodd" fill="#FFFFFF" d="M155.709,41.509c-3.99-0.35-8.354,1.597-12.52-1.62
		c-3.341,2.406-7.474,2.87-11.842,2.07c-4.14-0.758-6.829-3.503-7.349-7.545c-0.575-4.459,1.027-7.796,5.125-9.393
		c2.746-1.07,5.761-1.457,8.663-2.118c0.677-0.154,1.451-0.028,2.06-0.301c1.183-0.531,2.344-1.172,3.35-1.974
		c0.169-0.135-0.392-1.834-0.788-1.909c-1.474-0.281-3.884-0.819-4.39-0.125c-2.555,3.495-6.058,2.114-9.235,2.354
		c-1.057,0.081-2.133-0.104-3.146-0.165c-0.455-3.832,1.279-7.034,4.972-8.517c6.339-2.544,12.863-2.464,19.294-0.334
		c3.529,1.168,5.104,4.033,5.221,7.627c0.118,3.591-0.022,7.19,0.067,10.782C155.279,33.897,155.514,37.448,155.709,41.509z
		 M142.981,28.974c-1.667,0.387-3.242,0.472-4.512,1.139c-0.962,0.506-1.536,1.752-2.282,2.67c1.011,0.687,1.961,1.823,3.046,1.971
		C142.019,35.137,143.566,32.735,142.981,28.974z"/>
	<path fill-rule="evenodd" clip-rule="evenodd" fill="#FFFFFF" d="M277.812,32.639c-1.225,4.455-4.314,6.877-8.112,8.352
		c-5.015,1.947-10.144,1.852-15.155-0.213c-7.095-2.92-9.609-9.455-9.047-15.381c0.78-8.222,5.717-13.658,13.058-14.472
		c3.182-0.353,6.599-0.168,9.692,0.62c6.53,1.663,11.375,9.387,10.345,16.009c-0.109,0.709-1.559,1.695-2.413,1.723
		c-5.087,0.164-10.182,0.083-15.272,0.084c-1.079,0-2.157,0-3.238,0c0.078,4.19,3.871,6.098,7.699,4.162
		C268.707,31.835,273.659,31.421,277.812,32.639z M257.422,22.479c3.279,0,6.267,0,9.459,0c-0.615-2.811-2.254-3.863-4.561-3.871
		C259.908,18.6,258.088,19.599,257.422,22.479z"/>
	<path fill-rule="evenodd" clip-rule="evenodd" fill="#FFFFFF" d="M171.204,20.34c-3.449,0-6.241-0.05-9.028,0.018
		c-1.817,0.044-2.785-0.499-2.735-2.538c0.178-7.279-1.091-6.642,6.415-6.682c6.088-0.033,12.177,0.053,18.264-0.02
		c2.388-0.028,3.202,0.864,3.399,3.321c0.324,4.032-0.793,7.069-3.988,9.646c-3.006,2.424-5.662,5.28-8.952,8.401
		c4,0,7.444,0.103,10.878-0.035c2.31-0.094,3.179,0.748,3.228,3.082c0.127,6.102,0.172,6.146-5.945,6.15
		c-7.086,0.004-14.172-0.048-21.258,0.007c-2.327,0.019-3.154-0.746-3.339-3.265c-0.331-4.492,0.899-7.771,4.698-10.433
		C165.736,25.963,168.124,23.206,171.204,20.34z"/>
	<path fill-rule="evenodd" clip-rule="evenodd" fill="#FFFFFF" d="M369.441,32.491c4.368,0,7.949,0.052,11.526-0.022
		c1.772-0.036,2.458,0.713,2.62,2.441c0.603,6.43,0.327,6.8-6.169,6.768c-7.285-0.037-14.569-0.121-21.853-0.207
		c-0.671-0.008-1.34-0.185-1.978-0.277c-1.013-5.415-0.73-10.063,4.412-13.46c2.853-1.884,5.145-4.619,8.145-7.391
		c-3.327,0-6.085-0.095-8.833,0.029c-2.246,0.102-2.97-0.826-2.887-3.001c0.251-6.525-1.264-6.22,6.263-6.241
		c5.989-0.016,11.981,0.11,17.966-0.043c2.902-0.074,3.688,1.062,3.813,3.854c0.166,3.68-0.739,6.491-3.688,8.874
		C375.691,26.308,372.934,29.211,369.441,32.491z"/>
	<path fill-rule="evenodd" clip-rule="evenodd" fill="#FFFFFF" d="M294.937,20.956c-0.001,5.893-0.078,11.787,0.038,17.677
		c0.044,2.227-0.827,3.046-2.956,3.037c-11.513-0.044-9.147,1.12-9.304-8.679c-0.154-9.686,0.04-19.375-0.093-29.061
		c-0.041-2.961,0.873-3.98,3.944-3.917c8.362,0.171,8.366,0.035,8.37,8.359C294.939,12.567,294.937,16.762,294.937,20.956z"/>
	<path fill-rule="evenodd" clip-rule="evenodd" fill="#FFFFFF" d="M204.319,26.431c-0.002,4.198-0.071,8.398,0.03,12.594
		c0.043,1.788-0.585,2.571-2.374,2.551c-2.396-0.026-4.795,0.024-7.191,0.064c-2.045,0.035-2.772-0.988-2.759-2.976
		c0.055-8.196,0.066-16.393-0.006-24.588c-0.018-2.051,0.786-2.948,2.789-2.891c2.394,0.068,4.792,0.212,7.183,0.139
		c1.888-0.058,2.392,0.771,2.358,2.513C204.267,18.034,204.322,22.233,204.319,26.431z"/>
	<path fill-rule="evenodd" clip-rule="evenodd" fill="#FFFFFF" d="M349.575,26.529c-0.002,4.092-0.094,8.186,0.037,12.273
		c0.067,2.103-0.782,2.896-2.767,2.86c-2.095-0.037-4.191-0.024-6.286,0.01c-2.043,0.032-2.995-0.673-2.959-2.976
		c0.128-8.181,0.125-16.366-0.002-24.547c-0.035-2.281,0.886-2.895,2.938-3.019c9.044-0.55,9.041-0.587,9.041,8.513
		C349.578,21.939,349.578,24.234,349.575,26.529z"/>
	<path fill-rule="evenodd" clip-rule="evenodd" fill="none" d="M319.658,53.313c5.068-2.94,8.207-1.167,8.289,4.35
		c0.042,2.798,0.1,5.604-0.067,8.394c-0.045,0.753-0.886,1.459-1.36,2.188c-0.487-0.699-1.35-1.373-1.396-2.1
		c-0.174-2.688,0.09-5.41-0.166-8.086c-0.1-1.042-1.141-1.994-1.753-2.988c-0.837,0.933-2.236,1.777-2.397,2.814
		c-0.38,2.444-0.01,4.997-0.275,7.47c-0.109,1.016-1.077,1.938-1.654,2.903c-0.503-0.931-1.363-1.833-1.441-2.798
		c-0.21-2.583,0.036-5.202-0.158-7.787c-0.066-0.881-0.905-1.703-1.392-2.553c-0.804,0.632-2.161,1.155-2.309,1.914
		c-0.449,2.321-0.446,4.731-0.593,7.109c-0.056,0.896,0.107,1.833-0.103,2.685c-0.131,0.532-0.771,0.939-1.183,1.403
		c-0.521-0.47-1.483-0.929-1.496-1.412c-0.12-4.395-0.093-8.794-0.046-13.19c0.005-0.41,0.564-1.197,0.667-1.165
		C313.733,53.369,316.979,49.835,319.658,53.313z"/>
	<path fill-rule="evenodd" clip-rule="evenodd" fill="none" d="M382.538,60.159c0.192-1.052,0.302-2.147,0.598-3.189
		c1.113-3.93,3.935-5.948,7.156-5.19c2.725,0.641,5.386,5.128,4.633,8.206c-0.161,0.657-1.316,1.371-2.109,1.51
		c-1.455,0.254-3.006-0.054-4.469,0.177c-0.781,0.122-1.463,0.879-2.189,1.35c0.633,0.798,1.276,2.263,1.896,2.253
		c1.195-0.021,2.377-0.873,3.565-1.38c0.812-0.345,1.624-0.688,2.436-1.031c-0.037,0.907,0.179,1.925-0.159,2.7
		c-1.031,2.364-3.074,3.437-5.56,3.202c-2.951-0.279-4.536-2.302-5.253-5.02C382.783,62.604,382.718,61.4,382.538,60.159z
		 M391.046,58.17c0.28-0.282,0.56-0.564,0.84-0.846c-0.933-0.768-1.787-2.025-2.816-2.192c-1.774-0.286-2.883,0.799-2.7,3.038
		C388.003,58.17,389.525,58.17,391.046,58.17z"/>
	<path fill-rule="evenodd" clip-rule="evenodd" fill="none" d="M351.444,62.362c0.731,1.007,1.307,2.618,2.236,2.859
		c1.032,0.268,2.398-0.69,3.601-1.163c0.881-0.347,1.73-0.771,2.595-1.161c-0.054,0.911,0.254,2.242-0.227,2.653
		c-1.501,1.286-3.262,2.987-4.993,3.072c-1.583,0.078-3.853-1.356-4.778-2.795c-2.33-3.622-2.194-7.798,0.184-11.288
		c1.017-1.493,3.625-2.678,5.452-2.601c1.479,0.062,3.031,2.086,4.236,3.506c0.634,0.746,0.581,2.067,0.858,3.124
		c0.556,2.119-0.396,2.996-2.438,2.993c-2.067-0.002-4.136,0-6.204,0C351.792,61.829,351.618,62.096,351.444,62.362z
		 M351.927,58.397c1.196,0,2.293,0.139,3.331-0.047c0.741-0.132,1.404-0.7,2.104-1.073c-0.59-0.712-1.066-1.87-1.789-2.053
		C353.347,54.661,352.003,55.637,351.927,58.397z"/>
	<path fill-rule="evenodd" clip-rule="evenodd" fill="none" d="M298.957,62.746c0.894,0.898,1.7,2.383,2.705,2.533
		c1.042,0.155,2.259-1.024,3.435-1.54c0.789-0.346,1.639-0.552,2.462-0.82c-0.034,0.816,0.17,1.742-0.146,2.429
		c-1.045,2.273-2.94,3.611-5.45,3.438c-2.906-0.2-4.986-2.067-5.376-4.803c-0.381-2.673-0.258-5.589,0.419-8.196
		c0.885-3.406,4.393-4.939,7.291-3.791c2.516,0.997,4.853,5.902,3.744,8.322c-0.295,0.644-1.532,1.123-2.377,1.193
		c-2.038,0.171-4.101,0.056-6.153,0.056C299.326,61.961,299.141,62.354,298.957,62.746z M304.839,58.177
		c0.192-0.408,0.385-0.817,0.577-1.226c-1.093-0.642-2.235-1.854-3.266-1.765c-1.062,0.092-2.016,1.449-3.017,2.253
		c0.179,0.246,0.356,0.492,0.535,0.737C301.393,58.177,303.116,58.177,304.839,58.177z"/>
	<path fill-rule="evenodd" clip-rule="evenodd" fill="#FFFFFF" d="M198.185,8.946c-0.599,0-1.198,0.001-1.796,0
		c-4.244-0.013-4.346-0.115-4.358-4.339c-0.013-4.443,0.055-4.513,4.424-4.522c0.998-0.002,1.996-0.002,2.993-0.001
		c4.902,0.002,4.902,0.002,4.878,4.906C204.305,8.949,204.305,8.949,198.185,8.946z"/>
	<path fill-rule="evenodd" clip-rule="evenodd" fill="none" d="M342.253,51.092c1.374,1.103,2.865,2.095,4.058,3.366
		c0.42,0.449,0.108,1.584,0.132,2.405c-0.813-0.263-1.638-0.495-2.438-0.795c-1.025-0.385-2.004-0.989-3.057-1.152
		c-0.4-0.062-1.253,0.791-1.338,1.317c-0.072,0.45,0.548,1.245,1.058,1.507c1.046,0.541,2.215,0.855,3.349,1.212
		c2.644,0.829,3.486,2.673,3.183,5.302c-0.331,2.882-2.206,4.229-4.766,4.493c-2.379,0.245-4.662-0.464-5.636-2.956
		c-0.339-0.866,0.062-2.021,0.126-3.045c0.801,0.487,1.566,1.051,2.412,1.442c1.078,0.5,2.195,1.01,3.349,1.204
		c0.425,0.072,1.389-0.72,1.413-1.156c0.035-0.627-0.402-1.541-0.93-1.882c-0.894-0.578-1.997-0.863-3.042-1.169
		c-2.58-0.756-3.847-2.434-3.514-5.107C336.952,53.363,339.008,51.688,342.253,51.092z"/>
	<path fill-rule="evenodd" clip-rule="evenodd" fill="#FFFFFF" d="M343.66,8.92c-6.691-0.146-6.058,1.444-5.905-6.681
		c0.014-0.725,1.226-1.793,2.077-2.047c1.194-0.357,2.572-0.106,3.872-0.106c6.095-0.002,7.01,1.067,5.769,7.129
		c-0.138,0.671-1.182,1.468-1.931,1.632C346.301,9.117,344.958,8.92,343.66,8.92z"/>
	<path fill-rule="evenodd" clip-rule="evenodd" fill="none" d="M413.782,55.082c-2.032,0-3.441,0.172-4.772-0.074
		c-0.635-0.117-1.122-1.028-1.678-1.58c0.575-0.394,1.13-1.085,1.729-1.127c2.087-0.145,4.19-0.111,6.285-0.058
		c2.649,0.069,3.242,1.07,1.81,3.383c-1.934,3.121-4.063,6.12-6.548,9.825c2.137,0,3.695-0.153,5.199,0.066
		c0.745,0.108,1.392,0.903,2.082,1.387c-0.715,0.484-1.397,1.312-2.151,1.383c-2.078,0.195-4.187,0.109-6.282,0.068
		c-2.982-0.058-3.639-1.157-2.054-3.695C409.299,61.624,411.365,58.692,413.782,55.082z"/>
	<path fill-rule="evenodd" clip-rule="evenodd" fill="none" d="M283.852,52.765c2.562-1.052,3.354-0.017,3.782,1.669
		c0.679,2.664,1.383,5.321,2.159,8.301c1.464-3.701,2.752-7.038,4.158-10.326c0.089-0.207,1.089-0.026,2.383-0.026
		c-0.698,2.21-1.31,4.118-1.904,6.031c-0.855,2.755-1.618,5.544-2.605,8.25c-0.248,0.679-1.137,1.392-1.847,1.541
		c-0.499,0.105-1.563-0.595-1.742-1.142C286.702,62.353,285.312,57.596,283.852,52.765z"/>
	<path fill-rule="evenodd" clip-rule="evenodd" fill="none" d="M378.541,61.336c-0.757-2.313-1.514-4.626-2.271-6.939
		c-0.031-0.094-0.107-0.213-0.076-0.283c1.12-2.54,2.156-5.128,3.483-7.557c0.194-0.355,1.779,0.049,2.721,0.102
		c-0.215,0.838-0.184,1.895-0.693,2.469c-1.166,1.312-1.47,2.191,0.262,3.287c0.429,0.271,0.542,2.077,0.309,2.193
		c-2.059,1.029-1.467,2.845-1.504,4.447c-0.054,2.289,0.117,4.593-0.093,6.863c-0.075,0.816-0.977,1.557-1.501,2.332
		c-0.443-0.738-1.163-1.437-1.273-2.221c-0.206-1.465-0.06-2.979-0.06-4.473C378.077,61.483,378.308,61.409,378.541,61.336z"/>
	<path fill-rule="evenodd" clip-rule="evenodd" fill="none" d="M396.717,57.32c0.001-2.886-0.121-5.779,0.081-8.651
		c0.056-0.794,1.074-1.521,1.651-2.279c0.462,0.761,1.308,1.513,1.323,2.282c0.113,5.769,0.114,11.543,0.002,17.312
		c-0.015,0.767-0.867,1.517-1.333,2.273c-0.575-0.76-1.591-1.489-1.646-2.286C396.593,63.1,396.715,60.206,396.717,57.32z"/>
	<path fill-rule="evenodd" clip-rule="evenodd" fill="none" d="M362.875,52.787c2.039-0.391,3.476-0.756,4.935-0.902
		c0.578-0.059,1.667,0.287,1.718,0.587c0.134,0.772-0.021,2.259-0.346,2.343c-4.145,1.063-3.36,4.337-3.417,7.238
		c-0.029,1.49,0.132,3.006-0.099,4.461c-0.102,0.638-0.97,1.153-1.489,1.725c-0.434-0.547-1.232-1.086-1.244-1.641
		C362.832,61.944,362.875,57.288,362.875,52.787z"/>
	<path fill-rule="evenodd" clip-rule="evenodd" fill="none" d="M402.048,60.079c0-1.997-0.125-4.006,0.071-5.983
		c0.064-0.643,0.967-1.203,1.485-1.801c0.497,0.619,1.403,1.227,1.423,1.86c0.122,4.089,0.116,8.186-0.027,12.273
		c-0.022,0.629-0.972,1.226-1.493,1.837c-0.493-0.632-1.351-1.231-1.411-1.901c-0.185-2.081-0.067-4.188-0.067-6.285
		C402.036,60.079,402.042,60.079,402.048,60.079z"/>
	<path fill-rule="evenodd" clip-rule="evenodd" fill="none" d="M405.307,48.602c-0.604,0.467-1.208,0.935-1.813,1.4
		c-0.475-0.637-1.33-1.284-1.313-1.908c0.016-0.591,0.893-1.552,1.488-1.633c0.701-0.096,1.508,0.58,2.269,0.921
		C405.727,47.789,405.517,48.195,405.307,48.602z"/>
	<path fill-rule="evenodd" clip-rule="evenodd" fill="none" d="M99.978,25.25c0.046-3.556,1.674-5.586,4.455-5.558
		c2.855,0.029,4.669,2.342,4.581,5.842c-0.098,3.875-1.933,6.359-4.606,6.235C101.829,31.648,99.931,28.857,99.978,25.25z"/>
	<path fill-rule="evenodd" clip-rule="evenodd" fill="none" d="M72.548,28.869c0.785,3.938-1.726,6.889-4.785,5.763
		c-0.836-0.308-1.755-1.391-1.899-2.241c-0.104-0.619,0.857-1.789,1.602-2.104C69.069,29.607,70.838,29.319,72.548,28.869z"/>
	<path fill-rule="evenodd" clip-rule="evenodd" fill="none" d="M405.16,29.405c-0.634,1.487-0.928,3.344-2.012,4.346
		c-0.853,0.788-2.696,0.738-4.064,0.626c-0.562-0.046-1.405-1.223-1.43-1.909c-0.025-0.673,0.683-1.726,1.327-1.998
		c1.704-0.72,3.548-1.107,5.336-1.627C404.598,29.03,404.879,29.218,405.16,29.405z"/>
	<path fill-rule="evenodd" clip-rule="evenodd" fill="none" d="M142.981,28.974c0.585,3.761-0.962,6.163-3.748,5.78
		c-1.085-0.147-2.035-1.284-3.046-1.971c0.747-0.918,1.32-2.164,2.282-2.67C139.739,29.446,141.314,29.361,142.981,28.974z"/>
	<path fill-rule="evenodd" clip-rule="evenodd" fill="none" d="M257.422,22.479c0.666-2.881,2.485-3.879,4.898-3.871
		c2.307,0.008,3.945,1.06,4.561,3.871C263.689,22.479,260.702,22.479,257.422,22.479z"/>
	<path fill-rule="evenodd" clip-rule="evenodd" fill="none" d="M391.046,58.17c-1.521,0-3.043,0-4.677,0
		c-0.183-2.239,0.926-3.324,2.7-3.038c1.029,0.167,1.884,1.425,2.816,2.192C391.606,57.605,391.327,57.888,391.046,58.17z"/>
	<path fill-rule="evenodd" clip-rule="evenodd" fill="none" d="M351.927,58.397c0.076-2.761,1.42-3.736,3.646-3.173
		c0.723,0.183,1.199,1.341,1.789,2.053c-0.699,0.373-1.362,0.941-2.104,1.073C354.22,58.536,353.124,58.397,351.927,58.397z"/>
	<path fill-rule="evenodd" clip-rule="evenodd" fill="none" d="M304.839,58.177c-1.724,0-3.446,0-5.17,0
		c-0.179-0.245-0.356-0.491-0.535-0.737c1.001-0.804,1.954-2.161,3.017-2.253c1.03-0.089,2.173,1.123,3.266,1.765
		C305.224,57.359,305.032,57.769,304.839,58.177z"/>
</g>
</svg>
